<svg xmlns="http://www.w3.org/2000/svg" viewBox="0 0 456.1 196.56">
  <defs>
    <style>
      .cls-1 {
        fill: #3b3b3b;
      }
    </style>
  </defs>
  <title>Asset 1</title>
  <g id="Layer_2" data-name="Layer 2">
    <g id="Layer_1-2" data-name="Layer 1">
      <g>
        <path class="cls-1" d="M90.45,3.23c6.87-1.62,13.87-4,21-3,4.2,1.31,5.76,6.16,4.39,10.07-2.36,6.54-6.6,12.16-10.56,17.8-5.63,7-10.82,14.49-17.2,20.9a79.89,79.89,0,0,0-5.52,6.4c-5.17,5.9-11.38,10.86-16.15,17.1,4.51-.26,8.3-3,12.58-4.15,5.47-1.49,10.93-3.7,16.72-3.16,2.6-.15,4.72,1.86,6.05,3.9,1.47,4.55-2.58,8-4.15,11.91-3,7.76-9.16,13.82-12.08,21.61C95,96.74,103.4,89,114,85a24.26,24.26,0,0,1,6.48.1c-.24,6.39-6.18,10.7-6.76,17,8.19-5.59,15.64-12.32,24.48-17l3.31-.55c-2,3.59-5.92,5.3-8.86,8a90.51,90.51,0,0,1-7.74,6.23c-6.13,5.14-11.36,11.39-18.16,15.7-2.25,1.82-5.54-1.13-4.43-3.63,1.12-3.1,2.4-6.39,4.93-8.64,4-3.62,6.29-8.69,8.64-13.47-5.91,1.84-11.08,5.27-16.11,8.76-4.47,2.55-7.2,7.16-11.69,9.68-7.66,4.78-13.93,11.29-20.39,17.49-1.34-1-2.69-1.93-4-2.87A28,28,0,0,1,73.25,111c8.84-7.8,15.16-17.91,20.86-28.12,1.4-2.5,4.12-4.49,4.13-7.59.86-3.19-2.23-6.75-5.52-6.2C82.86,71,72.9,73.73,64.62,79.64c-4,3-8.79,5-12.39,8.5-5.09,4.94-15,15.07-15,15.07S24.9,115,18.79,120.86c-1.95,1.55-3.53,3-5.77,4.78-1.84,1.44-3.74,2.68-3.74,2.68s-3.53,1.93-5.64,2.94l-3-1.52c2.79-8.69,9.88-14.8,16-21.16,2.19-2.09,6.72-6.1,6.72-6.1s9.19-7.13,14.05-10.32c4.62-3.38,9.52-6.32,14.2-9.61,5.07-3.56,8.7-8.69,12.71-13.32C76.74,55.7,89.78,42.56,100.44,27.51c3.23-5.31,7.23-10.15,10-15.74,1.33-2.33.75-5.07.67-7.6-14-.3-27.06,5.62-40.09,10Q55.2,20.35,39.27,26.24c-7.2,2.83-14,6.69-21.29,9.21-4.32,1.4-8.51,3.95-13.19,3.67-2.48.12-3.44-2.59-4.79-4.19a59.74,59.74,0,0,1,11.63-7.12c2,.76,3.77,2.24,5.91,2.47,4-.53,7.66-2.45,11.29-4.16,9.89-3.57,19.46-8,29.49-11.23C68.9,10.66,79.6,6.71,90.45,3.23ZM11.37,120.59h0c4.28-3.86,8.55-7.41,13.07-11.35a72.93,72.93,0,0,0,8.44-8C26,108,17.28,112.8,11.37,120.59Z"/>
        <path class="cls-1" d="M340.06,40c3-3.16,5.12-7.22,9-9.44.28,2.44.71,5.21-.88,7.32a114.26,114.26,0,0,1-14.42,16.86c-5,4.86-8.76,11.3-15.37,14.12-.61-2-2.14-4.28-.48-6.15,3.59-4.9,7.67-9.6,9.73-15.41,1.44-3,1.09-7.17-2.15-8.86-4.85-1.58-9.95.3-14.11,2.88a207.16,207.16,0,0,0-34.23,22.77c-9,8.44-18.91,15.86-27.15,25.07-1.28,1.29-.89,3.32-1.28,5a10.47,10.47,0,0,0,7.41.44c12.42-3.31,24.48-8.14,37.25-10,6.14-1.76,12.5-2.53,18.64-4.31A33.81,33.81,0,0,1,324.27,79a38.7,38.7,0,0,1,.1,4.17c-1.75,2.37-3.56,4.7-5.37,7,3.09,2,5.59,4.82,5.32,8.72,7.94-4.56,16.1-8.79,24.4-12.66a39.06,39.06,0,0,1,18.51-3.91c3.26.88,3.14,4.34,3,7.08,7.33-4.45,15.55-7.1,23.27-10.77,7-3.31,14.86-3.45,22.24-5.45,2.62,0,5.14,1.58,7.09,3.26.9,2.74-.49,5.53-1,8.21,9.39-3,19.32-3.85,28.7-6.91A23.75,23.75,0,0,1,456.1,77c0,.6,0,1.8-.05,2.39C444.2,84.38,431.72,87.6,419.38,91c-2.95.44-8.36,1.14-8.14-3.28,1-3.58,5.21-5.2,7-8.45-10.47-1.32-20.92,2-30,7.13-7.64,3.43-15.39,6.72-22.55,11.08-4.62,2.45-8.65,7.3-14.35,6.46a37.6,37.6,0,0,1,.07-4.75c3.25-4.22,8.37-7,10.12-12.33-8.72,1.44-16.57,6-24.35,10-4.46,2.18-9.06,4.17-13.12,7-4.4,4.29-6.41,9.63-10,15.19-3.85,5.88-11.47,16.51-11.47,16.51-5.32,6.45-12.51,14.28-20.37,22.61l-18.42,16.41s-13.73,10.5-21.25,14.76c-4.24,2.38-8.31,5.31-13.11,6.45a20.24,20.24,0,0,1-10.19.11,6.36,6.36,0,0,1-1.12-5.42c1.39-2.31,3.11-4.39,4.61-6.63,5.24-8,19.11-21,19.11-21L272.14,135l8.69-7.53s14.92-12.2,24.23-17.69c2.11-1.33,6.7-4.1,6.7-4.1l5.09-3c1.86-1.31,1.41-3.74,1.63-5.7-2.84-.09-5.67.09-8.49.26-1.23-1.75-2.71-3.76-1.78-6,2-2.29,4.7-3.82,6.93-5.87-5.08-1-9.71,1.75-14.59,2.58a248.27,248.27,0,0,0-39.87,10.36c-2.9,1.06-6,1-9.07,1-3.59.24-6.29-2.51-9.42-3.8-6.72,10.76-15.79,20-21.59,31.33-3.7,5.38-7.36,10.81-10.54,16.52-7.7,11.49-13.93,23.87-21.12,35.67-3.18,4.9-4.59,11.07-9.44,14.74-1.19-1.26-2.12-3.19-.88-4.76,7.5-11.91,21-36.59,21-36.59l8.94-16.39,9.63-14.71s8.84-12,13-18.12c6.62-7.27,11.64-15.76,17.63-23.53-3.78.58-6.53,3.44-9.52,5.56-7.25,6.33-16.6,9.34-24.43,14.8-3.13,2.45-7.3,1.11-10.92,1.15,0-2.44-.38-5,.32-7.34a40.4,40.4,0,0,1,4.43-6.64c-7.28,4-13.65,9.46-20.9,13.48-3.13,2-5.89-2.62-4.47-5.32,2.75-4.74,6.74-8.58,10.19-12.8-5.08,2.73-8.74,7.27-13.28,10.72-3.93,3.47-8.79,5.82-12.07,10-2.76,3.75-7.79,4.14-12.06,3.84-.13-2.64-.05-5.41,1.64-7.6,4.12-5.69,8.52-11.43,14.57-15.21,1.89-.91,2.84-2.78,4-4.42-4,.51-5.87,4.56-8.85,6.73-6.75,4.82-13.6,9.52-20.1,14.69a47.54,47.54,0,0,1-10.48,7.32c-2.36,1.55-4.11-2.09-4-4.07-.64-3.32,2.29-5.34,4.25-7.46,4.65-4.4,6.44-11.09,11.91-14.75l1.44,3.29c-1.86,2.91-4.57,5.17-6.41,8.1s-3.72,6-5.71,9c4.85-3.26,8.68-7.81,13.76-10.76,10.06-6.1,19.46-13.23,29.78-18.91.54,1.35,1.95,2.69,1.36,4.24-4.37,8-12.73,12.66-17.31,20.49,3.29-2.38,6.44-5,9.84-7.17,7.95-5.38,14.84-12.24,23.19-17,1.59-.93,3.56-.42,5.32-.6,0,1.57-.1,3.14-.24,4.71-2.6,3.77-6.3,6.72-8.22,11,4.95-1.39,8.6-5.15,12.75-8,4.62-3.39,9.63-6.41,15.28-7.71L225.28,75c-2.82,7-10.46,10-14,16.42-1.44,1.82-1.29,4.19-1.41,6.37,4.49-2.85,8.85-5.94,13.54-8.47,10.43-5,19.8-11.87,28.65-19.23,12.06-9.52,22.15-21.21,33.14-31.88a7.08,7.08,0,0,1,4.9-2.33c1.09,5.34-3.57,9-6.92,12.27-7.93,8.34-17.05,15.68-23.64,25.19,5.78-4.07,10.8-9.11,16.41-13.4C284.37,52.71,293.72,46.7,303.2,41c7.39-3.73,14.93-8.79,23.62-7.7,3.08,1.76,6.17,4.73,6.46,8.48.44,3.09-.85,6-1.65,9C334.59,47.27,336.93,43.31,340.06,40Zm-33.73,74.08c-4.9,3.52-10.41,6.16-14.84,10.33C286.82,128,278.05,135,278.05,135l-12.74,11.12s-11.91,11.48-17.72,17.36c-4.35,5.28-10.19,9.14-14.08,14.82-3.13,4.36-6.93,8.71-7.83,14.15,20.52-8.94,39.67-21.46,54.73-38.14,4.71-5,14-16,14-16l4.17-4.92,3.11-4.2s7.75-12,11.76-18.53C310.73,111,308.51,112.59,306.33,114.05Z"/>
        <path class="cls-1" d="M191.76,46.67c3.15-1.12,6.52-.63,9.78-.58-.13.47-.4,1.41-.54,1.88a55.92,55.92,0,0,0-9.63,3.93c0,1.44,0,2.87,0,4.31a25.67,25.67,0,0,1-9.65,1.13c-2.36.06-3.41-2.41-4.93-3.77C180,48.43,186.54,48.34,191.76,46.67Z"/>
      </g>
    </g>
  </g>
</svg>
