<svg xmlns="http://www.w3.org/2000/svg" viewBox="0 0 1571.88 303.33">
  <defs>
    <style>
      .cls-111 {
        fill: #ffbf4f;
      }

      .cls-222 {
        fill: #b91028;
      }

      .cls-333 {
        fill: #fff;
      }
    </style>
  </defs>
  <title>Asset 2</title>
  <g id="Layer_2" data-name="Layer 2">
    <g id="Layer_1-2" data-name="Layer 1">
      <g>
        <path class="cls-111" d="M386.25,3.82c5.06-1.5,10.08-3.39,15.4-3.63C408.81-.13,416,.05,423.15,0a33,33,0,0,1,11.89,2c7,2.59,14.41,4.22,21,7.82,6.21,3.3,12.53,6.42,18.39,10.34,2.69,1.49,5.39,4,8.64,3.75,6.56-4.43,7.68-13.49,14-18.22a26.84,26.84,0,0,1,4.65.23,82.32,82.32,0,0,1,.62,9.28q-.07,20-.09,40c-.05,8.52.45,17.08-.68,25.55-2.31.21-5.83,1.14-6.81-1.8-3.5-8-5.37-16.69-9.65-24.35-4.27-7.43-9-14.68-15-20.84C461,23.33,448.2,16.64,435,12.67c-9.42-3.32-19.55-2.1-29.33-2.36s-19.09,3.12-27.9,6.91c-13.4,5.75-24,17.07-30.07,30.19-7.26,16.32-8.08,34.37-9.49,51.9-1.16,8.81-.47,17.71-1.34,26.53-.71,7.54-.45,15.12-.47,22.68q0,19,0,37.93c-.31,15.4,1.16,30.77,3,46A70.48,70.48,0,0,0,351.82,266c10,14.15,26.08,23.07,42.85,26.4a97,97,0,0,0,29.41.27c7.05-.76,13.68-3.51,20.12-6.32,8.34-3.71,15.46-9.54,22.19-15.58,6.32-5.76,11.22-12.85,15.82-20,4.31-6.87,8.4-14,11-21.7,1.47-3.87,2.45-8.23,5.48-11.22,1.42-1.55,3.62-.85,5.44-.9a77.37,77.37,0,0,1,.55,9.5c-.26,15,0,30.08-.44,45.11-.59,9.12-.17,18.27-.57,27.4-2.9-.59-6.3-.77-8.28-3.27-4.69-5.69-7-13.21-12.68-18.08-1.42-1.3-3.08.3-4.39.94a141.36,141.36,0,0,1-29.6,16.72C442,298,435,299.49,428.15,301.5c-8.95,2.74-18.43,1.53-27.65,1.73-7.52.32-14.41-3-21.52-4.9-24.5-7.26-45.8-23.27-61.38-43.31a94.73,94.73,0,0,1-12.08-17.69,159.57,159.57,0,0,1-18.73-55.26c-1.78-13-3.45-26.18-1.92-39.29.68-9.12,2.23-18.13,3.6-27.15,1.22-8,4.07-15.61,6.64-23.25C309.23,50.84,343.46,15.45,386.25,3.82Z"/>
        <path class="cls-111" d="M839.35,5.93c1.67-3.31,6-2.69,9.06-2.55,3.75-.06,4.87,4.13,5.93,7,12.61,38.83,26.22,77.34,38.73,116.2,4.12,10.53,6.88,21.52,10.91,32.08,6,18.17,12.11,36.35,18.35,54.46,6.4,18.88,12.49,37.85,19,56.68,2.1,6.08,3.48,12.49,6.58,18.17.82,2,3.3,1.88,5.12,2.18,9.14.48,18.32-.36,27.47.32q.11,3.66.09,7.34c-7.08,1.05-14.24.58-21.35.66-24.27,0-48.52.05-72.79,0-8.09-.09-16.23.57-24.26-.62q-.08-3.69,0-7.36c13.09-.61,26.21.22,39.29-.8-1-5.14-2.93-10-4.62-14.93-5.6-17.85-12-35.44-17.71-53.26-1.73-5.14-3.36-10.3-5.37-15.35-6-1.07-12-.54-18-.59q-28.19,0-56.39,0c-6.39.07-12.85-.56-19.19.62-5.8,14.2-9.59,29.16-15.09,43.49-3.83,13.45-9.77,26.28-12.58,40,12.4,1.24,24.85,0,37.27.84q.06,3.63,0,7.26a82.14,82.14,0,0,1-9.9.75c-15.38,0-30.76-.14-46.14,0-7.43-.06-14.89.42-22.27-.66q-.08-3.69,0-7.37c9.25-.72,18.61.7,27.81-1a67,67,0,0,0,4.3-11.09c13-37.81,26.5-75.47,39.65-113.23,3.87-12,8.45-23.68,12.51-35.58,5.79-18.19,12.68-36,18.74-54.13,6.33-17.61,12.3-35.34,18.62-53C835.09,16.89,836.42,11.06,839.35,5.93ZM820,86.86c-3.65,12.11-8.81,23.71-12.44,35.83-2.23,7.72-5.62,15-8.09,22.69-4.41,13.57-9.31,27-14.07,40.41a43.31,43.31,0,0,0-2.35,9.6c7,1.66,14.26.65,21.4.86,21.71-.15,43.45.32,65.16-.21.56-5.58-1.93-10.69-3.72-15.78-5.22-15.32-10.15-30.74-15.47-46-4.31-13.41-9.38-26.57-13.42-40.06-3.21-8-4.54-17-10.09-23.85C823.27,75.19,822.16,81.3,820,86.86Z"/>
        <path class="cls-111" d="M537.56,5.89c6.59-.66,13.22-.31,19.83-.33q59.48,0,118.92,0c10.39,0,20.56,2.32,30.68,4.38,22.9,5.16,43.51,21.11,52.75,42.92,5.7,14.27,8.78,30.46,3.92,45.44-3.55,14.27-12.61,26.6-23.85,35.86-11.58,10.31-26.51,15.87-41.44,19.21-9,1.26-18.08,2.17-27.15,2.8-15.06.11-30.13,0-45.18,0a34.08,34.08,0,0,0-7.74,1,32.64,32.64,0,0,0-1,7.74c.21,41.87-.06,83.75.14,125.61,13.17.58,26.4-.69,39.54.59.12,2.06.2,4.14.26,6.22-6.6.66-13.23.31-19.84.34q-40.51,0-81,0c-6.29,0-12.59.29-18.85-.32q0-3.15.19-6.28c12.85-1.18,25.76,0,38.64-.53q.25-138,0-276.08c-12.7-1.61-25.56-.15-38.31-.7A30.34,30.34,0,0,1,537.56,5.89ZM619,15.29c-.24,2-.48,4.05-.54,6.08q.12,59.49,0,119a45.72,45.72,0,0,0,.79,5.82,38,38,0,0,0,7.88.85c12-.17,23.93-.09,35.9-.07a94.23,94.23,0,0,0,21.42-2.39c11.88-2.69,22-11.24,27.51-22,3.22-7,3.59-14.79,4.63-22.3a154.26,154.26,0,0,0-.45-43.45c-.71-8.32-2.45-16.8-7.4-23.7-5.78-8.82-15.69-13.82-25.57-16.58-13.4-2.48-27.1-1.58-40.64-1.74C634.64,15,626.76,14.19,619,15.29Z"/>
      </g>
      <path class="cls-222" d="M0,5.4c27.57-.13,55.14,0,82.72-.08,3.25,0,6.53-.25,9.75.29C96.43,9,98.38,14,101.33,18.17Q133.94,68.09,166.55,118c13.64,20.9,27.6,41.6,40.73,62.83,4.8,7.8,9.82,15.44,14.75,23.16,2.46,3.7,4.27,8.19,8.43,10.36.63-6.22.31-12.46.36-18.69q0-83,0-166.08c0-5.64.47-11.35-.8-16.88-10.49-.28-21,0-31.47,0a12.93,12.93,0,0,1-4.91-.76c-1.25-2-.43-4.36-.31-6.49q40.08-.18,80.18,0a27.8,27.8,0,0,1,0,6.76c-11.08,1.18-22.24,0-33.36.57-.27,93.45,0,186.91-.12,280.36-.09,1.66-.3,3.32-.5,5-2.7-.17-6.14.45-7.68-2.38q-79.6-120.81-159-241.77C64.35,41.61,56.74,28.76,48.38,16.41c-.22,74.11,0,148.21-.1,222.32.08,17-.14,34,.09,51,5.58,1.08,11.29.63,16.94.67,7.23,0,14.46-.07,21.68,0a18.35,18.35,0,0,1,.15,7.49c-29-.14-58.07,0-87.11-.09q-.06-3.69,0-7.36c12.53-.43,25.11.7,37.59-.54.82-5.4.51-10.88.51-16.32v-245c0-5.12.32-10.28-.52-15.36C25.16,12,12.59,13.1.08,12.69Q0,9,0,5.4Z"/>
      <g>
        <path class="cls-333" d="M1016,5a23.79,23.79,0,0,1,8.58,0c.28,86.8,0,173.6.13,260.4-.15,10.92.25,21.83-.15,32.74a25.33,25.33,0,0,1-8.51,0c-.35-38.26,0-76.53-.14-114.78C1015.94,123.92,1015.75,64.43,1016,5Z"/>
        <path class="cls-333" d="M1104.22,5.56a66,66,0,0,1,11.42.1c-1.47,3.36-2.92,6.84-2.89,10.56-.08,7.54,0,15.07,0,22.62-.11,6.22.63,12.53-.78,18.66-6.19-3.59-10.32-9.61-15.46-14.43-8-7.72-14.91-16.56-23-24.28a35.64,35.64,0,0,0-.76,11.87c.83,8.61.92,17.27,1.4,25.9-2.33,0-4.64,0-7,0,2-9.2,1.06-18.62,1.26-27.95.11-7.64-.37-15.32.4-22.95,4.51,2.76,7.88,6.87,11.26,10.85,5.58,6.68,12.29,12.31,17.81,19.06a37.68,37.68,0,0,0,10.79,9.41c.06-9.93-.33-19.84-.43-29.75C1108.48,11.47,1106.3,8.39,1104.22,5.56Z"/>
        <path class="cls-333" d="M1143.84,5.57c1.66-.06,4.21-.58,4.58,1.73,4.43,12.76,9.56,25.25,14.51,37.81,1.54,4.33,4.34,8,7.34,11.42-3.49.32-7,.92-10.5.13-4-5.43-3.68-13.35-8.37-18.41a20.42,20.42,0,0,0-12.42-.32c-4,5.22-6.43,12.34-4.38,18.86q-6.13.28-12.25.06c3.26-3.72,6.22-7.8,7.64-12.61C1134.33,31.25,1139.7,18.63,1143.84,5.57Zm-4,27.39a54.35,54.35,0,0,0,10.36-.09,52.14,52.14,0,0,0-5.5-14.76A41.68,41.68,0,0,0,1139.85,33Z"/>
        <path class="cls-333" d="M1179.19,4.93c4.75.52,6.32,5.66,9.36,8.62,5.83,6.12,11.22,12.67,17.33,18.53,4.89,4.7,8.8,10.3,13.86,14.83,1-10.21.17-20.48.45-30.72.39-4.09-2.1-7.46-4.33-10.6a63.12,63.12,0,0,1,10.38,0,35,35,0,0,0-2.2,8.63c-.51,13.55.69,27.17-.54,40.69l-1.88,1.31c-6.31-4.11-11-10.1-16.4-15.26-6.92-7.2-13.28-14.94-20.64-21.7-.56,8.91-.11,17.84-.3,26.77-.3,3.83,1.46,7.27,3.3,10.48a52.29,52.29,0,0,1-10.46.29c3-9.49,1.65-19.48,1.91-29.25C1179.13,20,1178.77,12.47,1179.19,4.93Z"/>
        <path class="cls-333" d="M1245.09,7.91c5.34-4.61,13.06-3.69,19.49-2.46a7.75,7.75,0,0,1-.4,5.52c-3.41-1.49-6.83-3.74-10.7-3.33-4.11.14-6.71,4.77-6.33,8.48,1.81,5.34,7,8.37,11,12,3.56,3.19,7.85,6.65,8.4,11.75.46,4.73.4,10.31-3.34,13.8A19.36,19.36,0,0,1,1245.53,58c-2.09-.61-4.85-1.13-5.62-3.48-1.07-2.83.1-5.75,1.2-8.35,1.65,2.12,3.06,4.43,4.9,6.41,2.13,1.52,5,1.33,7.52,1.16,5-.34,9.18-6.57,6.63-11.17-4.21-7.89-13.85-11.15-17.51-19.43C1240.69,18.2,1240.58,11.48,1245.09,7.91Z"/>
        <path class="cls-333" d="M1315.5,5.57a81.77,81.77,0,0,1,13.37.06c-4.37,5.37-3,12.47-3.08,18.84,0,10.68-.22,21.35.51,32a59.28,59.28,0,0,1-9.7,0c2.6-8.22,2.65-16.93,2-25.44-9.28-1.28-18.74-1-28-.24-1.06,8.53-.91,17.28,1.5,25.59a42.58,42.58,0,0,1-9.64.05c2.55-11.52,1-23.36,1.51-35a37.88,37.88,0,0,0-2.23-15.72,83.19,83.19,0,0,1,10.11,0c-1.71,6.63-2.67,13.58-1,20.32,8.32.19,16.73,1.14,25,.21,3.56-.15,3-4.4,3.15-6.88A21.25,21.25,0,0,0,1315.5,5.57Z"/>
        <path class="cls-333" d="M1358.65,5.45l2.87,0c5.91,13.26,10.28,27.16,15.83,40.58,1.68,4.08,4.89,7.21,7.5,10.7a64,64,0,0,1-11.91.06c-2.41-6.12-3-13.22-7.29-18.42-3.87-1.66-8.43-1.44-12.43-.41-4.49,5.12-5.74,12.32-5.11,18.94a98.09,98.09,0,0,1-11.63-.13c2.88-3.32,5.9-6.7,7.19-11,2.28-7.08,5.51-13.81,7.74-20.91C1353.57,18.28,1355.33,11.54,1358.65,5.45Zm-.83,12.93a70.11,70.11,0,0,0-3.81,15,42.7,42.7,0,0,0,10.94-.47c-1.47-4.59-2.63-9.34-4.82-13.65C1359.36,18.93,1358.59,18.64,1357.82,18.38Z"/>
        <path class="cls-333" d="M1074.52,88.49c6.61-5,15.25-4.41,23.08-4a42.93,42.93,0,0,1,11.57,2.32c.4,4.58,1.41,9.61-1,13.79-3-3.66-4.4-9.63-9.77-10.48a38.1,38.1,0,0,0-18.65.55c-7.09,3.18-9.83,11.64-9.6,18.9A24.4,24.4,0,0,0,1083.49,132c5,2.11,10.77,2.1,16.11,1.24,4.7-.64,5.79-6.24,9.76-8.17.21,3.44.51,7.18-1.37,10.25-1.56,2.47-4.71,3-7.38,3.39-9.87.89-20.88.31-28.78-6.43C1058.05,121.72,1059.24,97.18,1074.52,88.49Z"/>
        <path class="cls-333" d="M1136.07,85.57a32.07,32.07,0,0,1,24,3.77c7,4.53,10.5,13.09,10.15,21.25a27.61,27.61,0,0,1-10.58,22.91c-5.21,3.57-11.51,5.85-17.88,5.47-8.73-.35-17.43-5-21.78-12.68-4-6.33-4.18-14.24-3.1-21.42C1119,95.55,1126.59,87.5,1136.07,85.57Zm4.08,2.79c-6.27,1.14-12.3,5.19-14.58,11.32a30.5,30.5,0,0,0,2,25,19.62,19.62,0,0,0,21,9.49,17,17,0,0,0,12.2-10.82c3.64-9.58,2.44-21.44-4.7-29.12C1152,90.08,1146,87.56,1140.15,88.36Z"/>
        <path class="cls-333" d="M1220.61,85.77a52.85,52.85,0,0,1,10.37-.35c-2,3.33-2,6.69-1.89,10.74-.09,8.56.08,17.13-.14,25.7.18,3.61,1.09,7.81,3.54,10.79,6.24,2.74,13.08.48,18.19-3.51.37,3.07.32,5.62-3,7.28-4.43,1.61-8.74,1.51-13.33,1.2-4.8-.65-7.91-1.29-12.73-.92,1.1-4.5,2.35-7.47,2.14-12.22-.23-9.94,0-19.4-.15-29.34C1223.91,91.15,1223,88.45,1220.61,85.77Z"/>
        <path class="cls-333" d="M1316,85.89c9-2.34,18.54-1.14,27.29,1.72a36.08,36.08,0,0,1-.34,8.75c-3.06-2.64-5.93-5.82-10-6.9-9.38-3.56-21.53-.63-26.6,8.45-4.64,9.62-2.79,22.18,5,29.68a22.5,22.5,0,0,0,24.62,5.08c1.55-6.94.58-14-1-20.87a60.34,60.34,0,0,1,10.15-.17,50.09,50.09,0,0,0-1.77,16.44c-.14,2.75.51,6.77-2.7,8-8.76,3.75-18.91,3.11-27.76,0a24.14,24.14,0,0,1-15.26-17.15c-1.78-8.45-.87-18.12,5-24.91A23.66,23.66,0,0,1,1316,85.89Z"/>
        <path class="cls-333" d="M1262.75,86.23c7.75.11,15.51-.37,23.26.13,0,1.6,1.33,3.84-.73,4.65-5-.39-10-2-15.1-.82a69.47,69.47,0,0,0-.07,17.23c4.86,1.14,9.86.43,14.8.55,0,1.8,0,3.59,0,5.39-4.83-.59-9.64-2.73-14.54-1.36a64.22,64.22,0,0,0,.13,20.66c5.6,1.89,11.44.35,17.12-.21-.2,1.45-.39,2.9-.55,4.35-8.24,1.52-16.7.83-25,0,3.43-8.33,1.84-17.43,2.11-26.17C1264.28,102.45,1264.7,94.22,1262.75,86.23Z"/>
        <path class="cls-333" d="M1361.39,86.19c8,.14,16.09-.06,24.14.16a11.38,11.38,0,0,1-1.22,5.54c-4.67-1.56-9.7-3.25-14.55-1.49-.92,5.74-1.49,11.78.53,17.36,4.71.15,9.43.12,14.16.24,0,1.79-.06,3.57-.07,5.36-4.06-.41-8-1.84-12-2.22-2.1-.47-2.73,2-2.94,3.6a62.71,62.71,0,0,0,.43,18c3.79.83,7.8,1.58,11.64.49a33.84,33.84,0,0,0,5.77-3.94c-.18,2.37.54,5.27-1.41,7.06-2.46,1.58-5.56,1.19-8.33,1.31-5.41-.2-11,.37-16.21-1.3a79.7,79.7,0,0,0,1.55-17.56C1362.48,107.91,1363.79,96.91,1361.39,86.19Z"/>
        <path class="cls-333" d="M1190.19,89.05c.2,12.64-.29,25.3,0,38,.22,2,.14,4.7,2.14,5.84,3.14,1.15,6.62,1,9.92.76,3-.23,5.22-2.67,7.57-4.36,0,2,.37,4.08-.22,6-.7,2.26-3.48,2-5.33,2.28a155.16,155.16,0,0,1-22.2-.79c3.91-9.65,1.54-20.18,2.18-30.27.43-5-.21-10.75-.26-15.76,0-1.67-.55-2.7-.19-4.35.92.08,3.22,0,4.44.2a11.94,11.94,0,0,1,2.21.24"/>
        <path class="cls-333" d="M1159.44,167.24c2.85-2.35,6.62-1.07,10-1,6,.64,12.08-.65,18.12-.13a84.07,84.07,0,0,1-.37,8.69c-3.34-1.48-5.9-4.71-9.71-5a29.28,29.28,0,0,0-5.7.39,45.27,45.27,0,0,0-.07,17.09c4.89.84,9.87.56,14.81.55,0,3.1,0,6.22-.18,9.33-3.2-2.26-6.49-5.27-10.69-4.93-2,0-4.81.87-4.43,3.37-.28,5.33-.71,10.82.5,16.06,1.81,2.83,5.89,3.09,8.94,2.74,3.39-1.06,6-3.66,8.92-5.55-.29,3.11.9,7.62-2.23,9.55-11.78,1.44-23.66-1-35.46.15a10.18,10.18,0,0,1-8.51-3c-5.73-5.34-9.15-12.63-14.65-18.16-2.06-2.27-5.32-1.42-8-1.38-1.81,7.11-.81,14.5,1.16,21.46a48.64,48.64,0,0,1-9.42.28,115.69,115.69,0,0,0,1.29-22.15c-.39-9.38,1.17-19-1.65-28.13,4.27-1.49,8.84-1,13.27-1s9.14.25,12.63,3.21a12.88,12.88,0,0,1,3.54,14.56c-1.56,3.75-4.14,7-6.18,10.45,2.82,4.93,6.61,9.21,10.46,13.36,3.5,3.62,7.5,7.16,12.52,8.38,2.33.81,4.8-1.17,5.06-3.52.87-5.37.28-10.83.38-16.25-.15-7.53.26-15.08,0-22.61C1163.81,171.11,1161.16,169.28,1159.44,167.24Zm-39.13,2.82c-.66,7-1,14.23,0,21.25,3.16,2.8,8.71,2.41,12.11.13,5.62-5.89,4.1-17.33-3.4-21C1126.28,169,1123.17,169.7,1120.31,170.06Z"/>
        <path class="cls-333" d="M1201.51,165.79c7.36.87,14.81-1,22.11.58,4.79,1,9.64,4.65,10,9.83.26,4,.45,8.55-2.06,12-3.8,5.17-10.82,9-17.16,6.19,3.61-2.1,8-3.21,10.81-6.49,5.43-7-1-18.7-9.66-18.35a2.62,2.62,0,0,0-3.29,2.66c-.76,8.42-.12,16.89.52,25.31.31,4.53-.16,9.08.28,13.62.17,2.94,3.59,4.49,3.82,7.36-5.07.64-10.34.89-15.25-.68,1.62-3.39,3.35-6.92,3.19-10.79-.07-9.58-.15-19.18,0-28.76C1205.11,173.8,1203,169.8,1201.51,165.79Z"/>
        <path class="cls-333" d="M1288.71,167.21c2.84-2.2,6.59-.81,9.87-1,6.35.59,13.83-1.49,19,3.27,3.36,2.42,4.52,6.71,4.2,10.69.07,5.57-3.79,9.93-6.41,14.5,2.74,5.65,7.09,10.28,11.21,14.92a23.63,23.63,0,0,0,7.81,5.72,20.65,20.65,0,0,0,4.12-6.61q7.2-19.91,14.54-39.77c.34-1.85,1.94-2.56,3.58-3,3.69,5.17,4.95,11.5,7.44,17.25,3.27,7.84,6.05,15.87,9.09,23.8,1.61,4.39,5.2,7.54,8.35,10.85-3.75.69-7.7,1.58-11.44.48-1.24-.3-1.56-1.74-2.07-2.69-2.3-5.41-2.83-11.67-6.46-16.45a18.06,18.06,0,0,0-13.16.08c-3.48,5.5-5.8,12.38-3.48,18.8-6.34.79-13.08,1.68-19.2-.54-7.91-3.9-10.85-13-17-18.77-2.19-2.25-5.53-1.47-8.29-1.43-.41,4.86-1,9.8,0,14.64.76,2.27,2.46,4.07,3.88,6a59.72,59.72,0,0,1-14.38.63c1.39-4.82,3.25-9.65,2.9-14.75-.55-9.59.4-19.18,0-28.77C1292.89,171.9,1290.42,169.61,1288.71,167.21Zm11.78,2.61a156.63,156.63,0,0,0-.19,21.88c4.22,2.29,10.83,2.25,13.33-2.49,2.94-5.86,2-14.36-3.79-18.13C1307.07,169.21,1303.6,169.65,1300.49,169.82Zm49.28,24.82a34.26,34.26,0,0,0,10.26,0,37.72,37.72,0,0,0-5.09-16.72A44.93,44.93,0,0,0,1349.77,194.64Z"/>
        <path class="cls-333" d="M1446.67,165.54c8.73-.92,18.76,1.06,24.76,8,10.72,11.85,7.6,33-6,41.39-6,4.62-13.93,4.6-21.08,3.76-8.28-1.09-15.36-7.13-18.67-14.67a28.4,28.4,0,0,1,4.73-30.2C1434.21,168.57,1440.56,166.37,1446.67,165.54Zm2,3.67c-7.87-.22-15,5.81-16.7,13.36a39.75,39.75,0,0,0-.4,13.15,23.4,23.4,0,0,0,16.92,19.45c4,1,8.22-.37,11.8-2.24,5.65-2.94,8.56-9.26,9.57-15.27,1.23-8.6-.88-18.31-7.58-24.25C1458.62,170.08,1453.49,168.94,1448.67,169.21Z"/>
        <path class="cls-333" d="M1065.89,166.5c7.42-.13,14.88-.47,22.29.08,5.7.42,10.13,5.5,10.93,11,.74,10.27-9.63,20.38-20,17.11,3.67-2.09,8-3.42,10.83-6.72,4.81-6.17.52-16.21-6.7-18.2-2-.34-4.89-.55-6,1.58-1,5-.37,10.1-.46,15.14.19,7.53-.32,15.07.11,22.6,0,3.69,3,6.19,5.18,8.76-5.19.91-10.47.45-15.69,0,1.84-3,4-6.1,4-9.76.29-7.53-.15-15.08.05-22.61-.06-4.05.45-8.16-.37-12.16C1069.08,170.78,1067.38,168.67,1065.89,166.5Z"/>
        <path class="cls-333" d="M1256.11,166.4l2.89,0c5.68,13.92,11,28,16.45,42,1.54,3.81,4.74,6.53,7.65,9.29-3.91.91-8.19,2-12,.4-3.76-5.77-3.41-13.49-7.85-18.92-4.3-1.75-9.12-.94-13.6-.47-3.18,5.88-5.27,12.74-3.15,19.35a28.3,28.3,0,0,1-13.35-.31c3-2.79,6.1-5.71,7.34-9.74,3.09-8.74,6.49-17.38,9.63-26.1C1252,176.7,1253.54,171.34,1256.11,166.4Zm-4.65,28.92a43.8,43.8,0,0,0,11-.73,109.56,109.56,0,0,0-5.47-16.4C1253.2,183,1251.62,189.25,1251.46,195.32Z"/>
        <path class="cls-333" d="M1378.67,167.05c3.25-1.07,6.74-.49,10.1-.53,9.9.37,19.8-.34,29.69.24l1.53,2.31c-.52.91-1,1.81-1.53,2.71-5.48-1.23-11.14-2.59-16.73-1.17-.63,9.71,0,19.45-.26,29.17A78.1,78.1,0,0,0,1403,217.5a78.28,78.28,0,0,1-8.25,0c1.34-12.35.59-24.78.88-37.17.05-3.23-.08-6.46-.28-9.69-6.1-1.67-12.28,0-18.27,1.22C1377.42,170.21,1377.11,168.14,1378.67,167.05Z"/>
        <path class="cls-333" d="M1528.11,167a27.07,27.07,0,0,1,11.3-.29c2.54,8.61,7.6,16.15,12.59,23.5,3.08-2.79,4.71-6.68,6.85-10.16a110.89,110.89,0,0,0,6.55-13.36,15.4,15.4,0,0,1,6.48.81c-5.17,7.29-10.72,14.38-14.53,22.53-3.24,5.77-3.33,12.6-2.83,19,.1,3.42,2.29,6.17,4.18,8.84-4.48.08-9,.12-13.43,0,2.28-7.85,3.47-16.64.66-24.49C1540.94,184,1535.34,174.87,1528.11,167Z"/>
        <path class="cls-333" d="M1490.57,168c1.94-2.15,5.33-1.2,7.94-1.56,5.85.24,12.77-.81,17.46,3.53,4.18,3.46,4.54,9.66,3,14.5-1.61,3.66-4.2,6.75-6.18,10.19,2.87,5.15,7,9.39,10.67,14,3.17,4,7.77,6.42,12,9.08-4.53.86-9.65,1.55-13.59-1.43-6.71-5-10.31-12.84-15.81-18.94-2.27-2.5-6-1.19-8.93-1.14-.79,7.1,0,14.21.59,21.27q-3.78.09-7.5,0C1491.51,201,1491,184.5,1490.57,168Zm8.12,1.92c-1.36,1.36-1.4,3.39-1.53,5.17a78.34,78.34,0,0,0,.69,17.11c3.62.77,7.81,1.79,11.19-.35,6-5.28,5.28-16.3-1.39-20.75A11.29,11.29,0,0,0,1498.69,170Z"/>
        <path class="cls-333" d="M1126.38,247.2c9.71-2.92,20.24-1.86,29.91.68.8,4.53-.07,9.07-1.53,13.38-1.64-3.22-2.7-7.25-6.16-9-8.15-4.46-19.52-3.74-26.23,3-7.32,8.91-6.78,23.16.75,31.79,6.1,6.76,16.61,10.6,25.27,6.72,3.2-1.3,4.52-4.73,6.27-7.43.65.36,1.32.73,2,1.09-.24,4-.16,10-5,11.19a45.24,45.24,0,0,1-25.64-1.24c-13.43-4.83-20.47-21.89-14.81-34.9C1113.76,255.52,1119.12,249.37,1126.38,247.2Z"/>
        <path class="cls-333" d="M1078.62,251.27a19.82,19.82,0,0,1,3.63-5.66c3.07,4.57,4.68,9.85,6.76,14.91,3.85,9.56,7.33,19.28,11.16,28.87,1.24,3.6,4.52,5.7,7.45,7.83a13.78,13.78,0,0,1-12.48.53c-2.94-5.61-3.05-12.59-7.29-17.52-4.18-2-9.12-1.08-13.53-.44-3.36,5.63-5.38,12.35-3.1,18.77-4.8.35-9.89,1-14.32-1.33,3.22-1.82,6.55-4,7.57-7.8C1069.07,276.67,1074,264,1078.62,251.27Zm1.93,8.51a55.41,55.41,0,0,0-4.35,15,47.48,47.48,0,0,0,9.61.08A27.39,27.39,0,0,0,1080.55,259.78Z"/>
        <path class="cls-333" d="M1182.36,246a7,7,0,0,1,4.57,4.81q7.08,19.77,15.14,39.19c1.47,3.51,5,5.44,7.2,8.43a42.53,42.53,0,0,1-12.29,0c-2.79-6-3.6-12.88-7.65-18.19-4.27-1.88-9.11-1.05-13.58-.61a32.91,32.91,0,0,0-4,19,32.73,32.73,0,0,1-12.47-.79c2.85-2.57,5.87-5.22,7.15-9C1171.67,274.54,1176.35,260,1182.36,246Zm-4.81,28.71a39.16,39.16,0,0,0,10.26,0,57.06,57.06,0,0,0-5.22-15.12A39.58,39.58,0,0,0,1177.55,274.71Z"/>
        <path class="cls-333" d="M1320.78,262.47c.61-5.71,1.13-11.53,3.3-16.91,5.19,5.79,7.28,13.45,10.92,20.18s6.23,14.07,10.58,20.43c9.1-11.9,12.6-26.86,19.37-40,1.09.45,2.72.37,3.2,1.72,1.5,3.93,1.41,8.24,1.68,12.38.21,7.58,1.94,15,2.2,22.58.32,3.53.27,7.33,2,10.55a30.25,30.25,0,0,0,5.94,3.58c0,.39-.07,1.17-.09,1.56-4.67.45-9.46.77-14-.59-1.08-10.72-1.81-21.46-2.75-32.18-2.64,1-3.85,3.6-4.88,6q-5.51,13.23-12.18,25.92l-2.89.12c-6.61-10-10.13-21.68-16.75-31.65-1.42,7.9-2.73,15.89-2.82,23.94-.25,3,1.74,5.45,3.28,7.85a34.36,34.36,0,0,1-12.37.66,8.58,8.58,0,0,1-.81-1.48c1.58-1.74,3.57-3.44,3.82-5.94Q1319.51,276.88,1320.78,262.47Z"/>
        <path class="cls-333" d="M1378.49,247.15c3.53-.71,7.23-1.36,10.82-.55a1.76,1.76,0,0,1,1.55,1.47c2.45,8.4,7.42,15.77,12.27,23,4.73-7.44,9.7-14.89,12.53-23.28,2.21-2.05,5.51-.61,8.14-.35-6.24,7.31-11.13,15.59-15.81,23.94-3.18,5.7-2.32,12.48-2.27,18.73-.14,3.42,2.58,5.8,4.34,8.42a83.13,83.13,0,0,1-14.63.06,30.53,30.53,0,0,0,1.87-23.11c-2.16-5.11-5.35-9.7-8.08-14.49C1386.29,255.85,1381.94,251.85,1378.49,247.15Z"/>
        <path class="cls-333" d="M1217.94,247.62c6-1.35,12.09-1.12,18.15-1,7.67.14,15.63,2.36,21.52,7.45,7.15,6.53,8.34,17.38,6,26.33-2.62,10-11.89,18.05-22.39,18.18a200.23,200.23,0,0,1-23.37-.52c2.42-11.09,1.05-22.46,1.46-33.7A66.75,66.75,0,0,0,1217.94,247.62Zm8.21,2.59c-1.35,8.06-.52,16.27-.71,24.41.15,5.66-.59,11.46.79,17,.9,3.29,4.81,3.8,7.69,4,7.69.66,16.41-1.74,20.84-8.48,5.13-8.62,4.53-20.46-1.94-28.24C1246.52,251.32,1235.69,248,1226.15,250.21Z"/>
        <path class="cls-333" d="M1279.33,247.13c7.34-.45,14.79-1,22.11-.08,2.43,1.19,1.18,3.84.66,5.78a26.16,26.16,0,0,0-14.62-2.6c-1.41,6.26-.87,12.73-.71,19.08,4.52,1.22,9.18.16,13.76-.07.44.6,1.33,1.79,1.78,2.38l-1.88,1.82c-4.56-.31-9.11-.7-13.67-.61-.07,6.57-.57,13.21.27,19.75.15,2.34,2.76,2.83,4.65,3.08,4.4.6,8.59-1.23,12.76-2.35-.69,2-.8,5.59-3.8,5.16-7.14.27-14.43.64-21.46-.94a69.47,69.47,0,0,0,1.6-15.74C1280.4,270.23,1281.61,258.56,1279.33,247.13Z"/>
      </g>
    </g>
  </g>
</svg>
