<svg xmlns="http://www.w3.org/2000/svg" viewBox="0 0 1582 306">
  <defs>
    <style>
      .cls-1 {
        fill: #fec233;
      }

      .cls-2 {
        fill: #a21418;
      }

      .cls-3 {
        fill: #6d6f71;
      }
    </style>
  </defs>
  <title>Asset 1</title>
  <g id="Layer_2" data-name="Layer 2">
    <g id="Layer_1-2" data-name="Layer 1">
      <g>
        <path class="cls-1" d="M408.81,0h10.78a96.58,96.58,0,0,1,30.86,6.5c12.4,4.79,23.58,12.09,34.66,19.32Q491.56,15.41,498,5h6V81.63h-7.61c-5.18-20.81-15.53-41-32.41-54.76-15.39-12.23-35.5-17.78-55-16.64-14.72.83-29.56,5.29-41.3,14.42A64.1,64.1,0,0,0,349,48.81c-4.7,10-6.22,21.09-7.62,31.94-2.67,23.66-3.1,47.49-3.33,71.27.16,24.3-.62,48.67,1.55,72.91C341,240.83,344.73,257.3,355,270c9.77,12.68,24.52,20.88,40.08,24.07,17.75,3.73,36.84,1.54,53-6.91,17.5-9.16,31.44-24.55,39.78-42.37,4.22-8.86,8-17.94,12.26-26.76h7.3c-.88,27.5-1.66,55-2.54,82.51l-6.42,0q-7.26-11.25-14.56-22.47c-13.76,10.91-29.43,19.75-46.53,24.14-7.27,1.94-14.77,2.71-22.2,3.84h-9.24c-14.56-1.72-29.09-4.93-42.24-11.61-29.38-14.41-52.07-40.59-64.74-70.52-13.8-32.23-16.24-68.55-10.34-102.88,5.65-32.73,21-64.23,45.4-87C354.26,14.84,380.83,2,408.81,0Z"/>
        <path class="cls-1" d="M538.62,5H628c23.62.33,47.39-1.11,70.86,2.16a88.59,88.59,0,0,1,38,14.05,72.68,72.68,0,0,1,28.84,38c6.11,19.13,4.54,41.12-6.23,58.32-9.15,14.57-23.42,25.63-39.33,32-16.52,6.59-34.47,8.25-52.1,8.64-15.87.32-31.76.07-47.64.15q0,67.13,0,134.25H660q0,4,0,8H538.62v-8h39.75V13H538.62Zm81.75,8.88q0,67.5,0,135c17.89-.16,35.79.44,53.66-.55,11.38-.56,23.39-3.29,31.8-11.48,8.56-7.47,12.54-18.7,13.82-29.71,1.58-13,1.57-26.11,1.05-39.15-.66-11.1-1.8-22.61-7.13-32.57C709,26.83,700.69,20.73,691.63,17.6c-7.9-2.67-16.31-3.1-24.58-3.45C651.5,13.67,635.93,14,620.37,13.88Z"/>
        <path class="cls-1" d="M742.56,292.5q50.18-144,100.39-288h12.24q48.07,144,96.2,288h33.48q0,4,0,8H865.12v-8h40.94q-14.38-43.06-28.83-86.12H782.85Q768.42,249.45,754,292.5H792.5q0,4,0,8H714.12q0-4,0-8Zm43.24-95h88.05q-21.65-64.33-43.37-128.65Q808.12,133.16,785.8,197.5Z"/>
      </g>
      <path class="cls-2" d="M.25,5Q46.78,5,93.33,5q51.45,78.9,102.83,157.86c11.53,18.54,23.32,36.93,35.07,55.33q.06-102.59,0-205.18H193.62V5h81.63v8H241.37q0,143.75,0,287.49l-7.25,0q-83.3-127-166.53-254.14c-6.41-9.79-12.84-19.58-19-29.56q0,137.85,0,275.69H88.75q0,4,0,8H.24c0-2.58.77-5.29-.24-7.76v-.47c12.66.48,25.33.12,38,.23V13H.25Z"/>
      <g>
        <path class="cls-3" d="M1019.75,4.5h8.5V300.62h-8.5Z"/>
        <path class="cls-3" d="M1072.93,4.3c7.2,6.71,13.45,14.37,20.3,21.44,6.84,7.26,13.5,14.69,20.28,22-.35-12.56-.23-25.15-1-37.68-.32-3.54-4.76-2.88-7.15-4,5.73-.4,11.49-.13,17.23-.14-2,1.1-5.52,1-5.49,4-.68,16,.23,32.15-.61,48.2-14.55-13.09-27.35-28-40.56-42.45.45,12.14.33,24.31,1.2,36.42-.11,3.88,4.42,3.75,7,4.81-5.92.33-11.87.17-17.8.07a47.17,47.17,0,0,0,5.43-2.1c1.39-4.81.64-9.89.82-14.82C1072.79,28.13,1072.26,16.2,1072.93,4.3Z"/>
        <path class="cls-3" d="M1150.14,4.17c7.17,15.5,12,32.05,19.13,47.57,1.35,3.52,5.24,4.14,8.39,5.2a150.15,150.15,0,0,1-15.3,0l1.44-1.85q-3.36-9-6.77-17.91c-5.06.06-10.12-.2-15.16.1C1139.7,43,1137,48.8,1136.51,55q2.22,1.08,4.53,2c-5.62,0-11.23.21-16.83-.08,2.87-1.08,6.78-1.29,8-4.71C1138.52,36.35,1143.67,20,1150.14,4.17Zm-7.56,30.45q6.76,0,13.53,0c-2.34-6.59-4.57-13.22-7-19.77C1146.81,21.4,1144.76,28,1142.58,34.62Z"/>
        <path class="cls-3" d="M1184.43,4.35c6,5.42,11.06,11.76,16.69,17.55,8,8.57,16,17.25,23.9,25.92-.39-12.35-.37-24.72-.94-37,.24-4-4.54-3.61-7.12-4.69,5.64-.4,11.3-.14,17-.13-1.93,1.16-5.6,1.16-5.39,4.18-.53,16,.25,32-.67,48-14.42-13.24-27.33-28-40.48-42.49.53,12.29.27,24.64,1.29,36.9.2,3.69,4.56,3.24,7.07,4.34-5.91.38-11.84.17-17.75.08,1.83-1.17,5.64-.81,5.73-3.77C1184.82,36.94,1183.5,20.6,1184.43,4.35Z"/>
        <path class="cls-3" d="M1251.39,7.48c5.48-3.86,12.58-2.64,18.74-1.47-.18,3.29-.25,6.58-.41,9.87-1.24-2.27-1.42-5.35-3.7-6.89-4.43-2.7-11.74-2.41-14.16,2.81-1.69,3.7-.08,8,2.86,10.49,4.65,4.71,10.83,7.94,14.4,13.68,4.05,6.37,2.17,15.92-4.46,19.78-6,3.38-13.41,2.79-19.56.23a45.18,45.18,0,0,1,.77-11.49c.89,3.06.89,6.91,3.82,8.89,3.87,2.71,9.71,2.89,13.48-.13,3.91-3.19,4-9.49,1-13.32-4.52-5.83-11.74-9.08-15.58-15.52C1245.35,19.11,1246,11.16,1251.39,7.48Z"/>
        <path class="cls-3" d="M1282.3,6.05c6-.34,12.11-.08,18.17-.11-1.69.8-3.64,1.14-5.07,2.37-1.24,6.21-.43,12.63-.64,18.93h29.36c-.13-5.77.3-11.55-.24-17.3-.18-3.27-4.35-2.76-6.49-3.93,6-.27,12.1-.1,18.16,0-1.8,1.16-5.39,1-5.32,3.9-.56,11.34-.06,22.73-.24,34.09.15,3.64-.35,7.51,1.13,10.94,1.93,1.09,4.24,1.15,6.35,1.84-6.29.67-12.66.15-19,.25,1.91-1.08,5.2-1.16,5.15-4,.92-7.61.3-15.32.47-23h-29.36c.13,7.7-.41,15.45.53,23.11.23,3.39,4.64,2.54,6.9,3.8-6.27.31-12.55.07-18.81.1a44,44,0,0,0,4.52-2.11c1.49-4.46.84-9.3,1.1-13.92-.16-10.31.35-20.64-.32-30.93C1288.63,6.74,1284.44,7.19,1282.3,6.05Z"/>
        <path class="cls-3" d="M1347.16,52.24c6.42-15.84,11.37-32.29,18.08-48,4.62,9.9,7.93,20.36,12.06,30.48,2.59,6.11,4.33,12.64,7.78,18.34,1.54,2.7,5,2.78,7.57,3.82a120,120,0,0,1-15.29,0l1.44-1.84q-3.36-9-6.77-17.91c-5.12,0-10.23,0-15.33,0-1.71,5.93-4.8,11.59-5.19,17.81,1.48.74,3,1.42,4.55,2-5.62,0-11.25.25-16.85-.1C1342.07,55.87,1346,55.65,1347.16,52.24Zm10.42-17.63c4.51,0,9,0,13.53,0-2.34-6.59-4.57-13.22-7-19.78C1361.82,21.4,1359.76,28,1357.58,34.61Z"/>
        <path class="cls-3" d="M1075,92.92c5.22-5.19,12.85-7,20-7,6.08-.22,12,1.21,18,2-.47,4.57-.14,9.22-1.06,13.74-1-3.47-1-8-4.64-10-6.12-3.57-13.73-3.73-20.49-2.17a17.29,17.29,0,0,0-12.27,11.82c-2.48,8.59-1.5,18.58,4.34,25.64,6.34,8.13,18.12,11,27.67,7.49,4-1.5,4.68-6.16,6.47-9.52a36.52,36.52,0,0,1-1.46,10.85c-.48,2.08-3.08,2.09-4.75,2.61-10.32,1.49-22.09,1.19-30.53-5.73C1064.41,123.26,1064.12,103.28,1075,92.92Z"/>
        <path class="cls-3" d="M1141.39,86.56c9.3-1.79,19.95.22,26.59,7.39,8.89,9.77,8.17,26,0,36-9.74,12-30.55,12.61-40.62.76-8.39-9.84-8.45-25.59-.12-35.5A24.63,24.63,0,0,1,1141.39,86.56Zm-.26,2.62a17.48,17.48,0,0,0-11.33,9.73c-2.79,6.24-2.86,13.43-1.32,20,1.6,6.79,6.07,13.16,12.62,15.93,6.67,3,15.13,1.85,20.38-3.36,4.64-4.52,6.13-11.27,6.24-17.54.14-7.53-2-15.6-7.86-20.73A19.82,19.82,0,0,0,1141.13,89.18Z"/>
        <path class="cls-3" d="M1309,94c5.23-5.88,13.38-8.07,21-8.06,6.18-.3,12.19,1.36,18.31,2-.37,4.1-.43,8.22-.71,12.33-1.32-2.87-1.64-6.55-4.58-8.33-5.3-3.35-11.91-3.72-18-3.13-6.52.69-12.8,4.89-15,11.21a28.59,28.59,0,0,0,4.23,27.58,24.71,24.71,0,0,0,20.7,8.45c2.36-.24,5-.49,6.83-2.21.61-4.26.19-8.59.32-12.87-.17-2,.19-4.36-1.05-6.13a57.83,57.83,0,0,0-5.67-1.87c6-.35,12-.22,18.07,0-1.65,1.1-5,.82-5.19,3.28-.84,6.53-.2,13.14-.54,19.7-7.76,3.61-16.7,4-25,2.2-6.42-1.5-12.73-5-16.27-10.69C1300.09,117.34,1300.88,103,1309,94Z"/>
        <path class="cls-3" d="M1181.9,87.07c6.27-.19,12.56-.1,18.85,0a48.55,48.55,0,0,0-5.62,2.13c-1.41,5.15-.52,10.58-.75,15.86.23,9-.59,18.09.64,27,.15,3,3.57,3.41,5.9,3.51,3.45,0,7.32.62,10.43-1.27,1.74-1.81,2.4-4.35,3.68-6.48-.21,3.32-.3,6.74-1.52,9.87-1.23,1-3,.52-4.44.71-8.68-.08-17.35-.49-26-.33,1.41-.89,3.51-1,4.57-2.39,1.21-3.79.78-7.85.91-11.77.23-10,0-19.93,0-29.89-.09-1.56,0-3.22-.72-4.65C1186.12,88,1183.76,88,1181.9,87.07Z"/>
        <path class="cls-3" d="M1222,87.05c6-.23,12,.13,18-.17v.75a25,25,0,0,0-4.27,1.13c-1.19,1-1.06,2.72-1.19,4.1-.17,12-.35,24.07.13,36.1.2,2.3.23,5.71,3.19,6.16a31.15,31.15,0,0,0,11.39.12c3.59-.65,4.16-4.8,5.84-7.43a35.63,35.63,0,0,1-1.24,9.08c-.33,1.89-2.5,1.31-3.83,1.5-9,0-17.92-.46-26.89-.33,1.79-1.07,5.12-1.22,5-4.06.94-7.63.31-15.35.49-23-.17-6.64.37-13.32-.28-19.93C1228.15,87.87,1224.08,88.26,1222,87.05Z"/>
        <path class="cls-3" d="M1262,87.07c9.75-.42,19.57.75,29.29-.54-.47,3.21-.74,6.45-1.26,9.65-1-2-.74-5.28-3.41-5.84-4-.94-8.09-.52-12.11-.72q0,10,0,20c5.25-.39,11,.93,15.74-1.86-.56,3.51-.78,7.06-1.2,10.59-1-2-.75-5.3-3.49-5.67-3.65-.63-7.37-.43-11-.58.12,6.72-.38,13.49.23,20.19.27,3,3.86,3.21,6.21,3.3,3,0,6.47.33,9-1.57,1.19-1.82,1.91-3.91,3-5.77-.3,3.19-.38,6.47-1.45,9.52-1.67,1-3.76.47-5.59.63-7.61-.18-15.21-.38-22.81-.35,2.11-1,5.3-1.52,5.08-4.55.77-12.81.38-25.68.35-38.51-.1-1.94.1-4-.83-5.8C1266,88.18,1263.89,87.84,1262,87.07Z"/>
        <path class="cls-3" d="M1361.58,87.06c9.78-.39,19.62.76,29.37-.54-.5,3.19-.8,6.41-1.16,9.62-1.14-2-1-5.47-3.81-5.87-3.89-.83-7.9-.48-11.84-.64q0,10,0,20c5.24-.42,11,1,15.77-1.92a77.59,77.59,0,0,0-1,10.76c-1.11-2-1.06-5.57-3.94-5.84a100.17,100.17,0,0,0-10.81-.52c0,6.34-.18,12.68.06,19,0,1.78.86,3.81,2.87,4.06a26.4,26.4,0,0,0,10.84-.19c2.72-.63,3-3.78,3.88-5.94l.86.16c-.38,3-.5,6.08-1.58,8.92-9.53.66-19.09-.29-28.63-.12,1.59-.6,3.19-1.13,4.84-1.65,1.61-7,.74-14.29,1-21.44-.17-8,.32-16.06-.24-24.06C1367.72,87.74,1363.53,88.29,1361.58,87.06Z"/>
        <path class="cls-3" d="M1262.23,166.35c5.64,12.17,9.73,25,14.82,37.44,1.65,4,2.84,8.27,5.39,11.82,1.59,2.37,4.72,2.41,7.15,3.37a109,109,0,0,1-15.12.07l1.41-1.88c-2.28-5.92-4.48-11.86-6.73-17.78-5.14,0-10.28,0-15.4,0-1.74,5.9-4.68,11.53-5.22,17.71a39.68,39.68,0,0,0,4.62,2c-5.59.11-11.21.33-16.79-.1,2.93-.88,6.76-1.24,7.91-4.64C1250.61,198.49,1255.74,182.14,1262.23,166.35Zm-7.55,30.4h13.49c-2.34-6.57-4.54-13.19-7-19.7C1258.88,183.58,1256.84,190.18,1254.68,196.75Z"/>
        <path class="cls-3" d="M1360.16,168c.22-1.92,2-.49,2.07.61,4.82,12.29,9.42,24.67,14.25,37,1.39,3.44,2.5,7.09,4.77,10.1,1.59,2.27,4.64,2.32,7,3.31a129.9,129.9,0,0,1-14.5.11c1-2.61-.37-5.13-1.25-7.54-1.58-4.05-3.11-8.12-4.64-12.19q-7.71,0-15.41,0c-1.71,5.83-4.56,11.38-5.25,17.46,1.29,1.14,3,1.49,4.54,2.26-6,0-12,.3-17.91,0-4.91-.3-8-4.57-10.76-8.11-3.39-4.39-6.61-8.92-9.9-13.38-3.11,0-6.2-.13-9.29-.16.07,6-.28,12.13.6,18.13.54,3.07,4.63,2.16,6.75,3.35-6.12.46-12.28.22-18.4.11a48.14,48.14,0,0,0,4.45-1.92c1.36-3.88.93-8.11,1.09-12.16-.14-10.66.24-21.34-.18-32,.4-3.84-4.11-3.74-6.54-5,4.78-.08,9.57.25,14.36,0,4.94-.1,10.24-.29,14.68,2.26a12,12,0,0,1,5.48,12.66c-.76,5.22-4.32,9.37-7.86,13,4.37,5.56,8.61,11.25,13.33,16.53,2.22,2.38,4.85,4.76,8.19,5.31,2.25-1.16,3.3-3.6,4.19-5.84C1349.43,197.34,1354.63,182.62,1360.16,168Zm-56.26,2.64q-.06,11.85,0,23.7c3.59.78,7.41,1.63,11,.51,3.62-1.32,5.15-5.41,5.52-8.95.49-4.9-.53-10.63-4.79-13.65C1312.28,169.75,1307.83,170.17,1303.9,170.67Zm55.81,7c-2.33,6.27-4.17,12.7-6.3,19,4.49,0,9,0,13.48,0C1364.37,190.45,1363,183.64,1359.71,177.71Z"/>
        <path class="cls-3" d="M1383.83,167.13c6.6,1.6,13.44.83,20.17,1,7-.13,14.06.43,21-.57q-.06,4.92-.2,9.86c-1.18-1.89-1.47-4.84-3.91-5.49-4.56-1.29-9.38-.62-14.05-.93.06,13-.13,26,.12,39,.13,2.33,0,4.8,1,7,1.81,1.26,4.22,1.18,6.28,2-6.22.46-12.48.22-18.7.1,2.46-.71,5.54-1.69,5.19-4.88.78-14.38.17-28.81.37-43.21-4.41.21-8.83-.07-13.2.4-3.09.09-4.28,3.41-6.14,5.32C1382.29,173.47,1383,170.29,1383.83,167.13Z"/>
        <path class="cls-3" d="M1449.52,167.73c9.27-2,19.94.05,26.69,7.06,8.88,9.41,8.49,25.21.9,35.28-8.94,12.16-28.74,13.72-39.66,3.46-9.32-9-10.65-24.73-3.25-35.31A24.7,24.7,0,0,1,1449.52,167.73Zm-1.11,2.9a18.28,18.28,0,0,0-11.49,13.18,32.66,32.66,0,0,0,2.25,22.14A20.6,20.6,0,0,0,1454,217.24c6.52,1.23,13.74-1.25,17.68-6.69,4.1-5.57,4.8-12.84,4.3-19.54-.57-7-3.7-14.28-9.73-18.3C1461.13,169.12,1454.26,168.63,1448.41,170.63Z"/>
        <path class="cls-3" d="M1068.18,168c5.26-.1,10.53.24,15.81,0s11.09.09,15,3.93c4.9,5,3.91,13.56-.39,18.63-3.91,4.69-10.49,6.28-16.34,5.27,3.57-1.25,7.78-1.09,10.75-3.74,6.81-5.64,4.17-18.21-4-21.23-2.72-1.05-5.69-.71-8.5-.45,0,14.52-.43,29.07.25,43.58-.52,4.22,4.21,4.05,7,4.92-6.13.56-12.32.26-18.47.15,1.39-.54,2.77-1.12,4.15-1.74,1.09-1.59,1-3.7,1.19-5.56.34-10.91.1-21.83.18-32.74-.13-2.73.16-5.58-.67-8.21C1072.75,169.08,1070.11,169,1068.18,168Z"/>
        <path class="cls-3" d="M1111.55,168c7.83.36,15.71-.44,23.52.38,5.87.62,11.27,5.5,11.21,11.64.31,6.36-3.76,11.71-8.07,15.92,5,6.24,9.61,12.86,15.32,18.5,2.76,2.9,6.78,3.63,10.57,4.23,1.37-.38,2.76-.76,4.17-1.13,1.36-5.42.87-11,1.07-16.57.11-8.64,0-17.28-.09-25.92a12.57,12.57,0,0,0-.76-4.72c-1.84-1.07-4-1.5-5.9-2.32,9.77-.18,19.59.68,29.34-.39-.49,3.18-.77,6.38-1,9.59-1.14-2-1.14-5.38-3.89-5.86-3.9-.82-7.91-.52-11.86-.62,0,6.62,0,13.25,0,19.87,5.26-.25,11,1,15.8-1.77-.64,3.55-.85,7.15-1.16,10.74-1.07-1.89-.78-5.34-3.45-5.77-3.69-.69-7.46-.46-11.17-.58,0,6-.1,11.92,0,17.88,0,1.92.28,4.61,2.62,5.06a26.3,26.3,0,0,0,11.17-.1c2.71-.66,3-3.8,3.88-6l.83.15c-.36,3-.46,6.12-1.57,9-4.65.61-9.36.15-14,.07-8-.42-16,.19-24-.15-4.5-.12-7.65-3.74-10.17-7-3.68-4.74-7.17-9.62-10.73-14.45-3.08,0-6.15-.13-9.21-.18.29,6.51-.84,13.28,1,19.62,2,1,4.23,1.2,6.34,1.89-6.16.41-12.35.21-18.51.1a42.45,42.45,0,0,0,4.49-2c1.25-3.55.92-7.41,1-11.12-.12-11,.18-22-.14-33C1118.52,169.2,1114,169.3,1111.55,168Zm12.33,2.61q0,11.9,0,23.79c3.8.75,8,1.75,11.7.17,3.45-1.82,4.62-6,4.88-9.66.28-4.8-1.07-10.38-5.46-13C1131.69,169.77,1127.6,170.25,1123.88,170.62Z"/>
        <path class="cls-3" d="M1204,168c5.68,0,11.37.21,17.06,0,5-.08,10.88.49,14.36,4.61,4.41,5.31,3,13.63-1.42,18.48-3.94,4.29-10.16,5.7-15.76,4.79,3.58-1.36,7.88-1.13,10.81-3.93,6.66-5.84,3.8-18.45-4.52-21.21-2.62-.87-5.41-.54-8.09-.36-.31,11.53-.07,23.07-.14,34.61.16,3.93-.23,8,1,11.81,1.71,1.52,4.32,1.35,6.41,2.19-6.18.44-12.38.18-18.55.13,1.55-1,4.49-.88,4.83-3.16.8-3.58.58-7.27.71-10.91,0-9.36,0-18.72,0-28.07-.14-2.22.09-4.57-.87-6.64C1207.93,169.27,1205.84,168.84,1204,168Z"/>
        <path class="cls-3" d="M1490.26,168c5.57-.07,11.15.21,16.73,0,5.12-.1,11,.3,14.78,4.2,3.6,3.56,4,9.22,2.29,13.79-1.4,3.92-4.28,7-7.11,10,5.07,6.28,9.7,13,15.5,18.64,2.81,2.92,7,3.39,10.7,4.32-5.94.4-13.25,1.68-17.66-3.38-5-5.6-9.13-11.86-13.61-17.85-3.09-.08-6.17-.17-9.24-.22.1,5.87-.37,11.79.41,17.63.07,3.55,4.53,2.71,6.83,3.82-6.12.58-12.28.24-18.41.17,1.47-.7,3.13-1.15,4.57-2,1.2-3.89.87-8,1-12.06-.13-10.71.2-21.43-.15-32.14C1497.11,169.18,1492.67,169.24,1490.26,168Zm12.4,2.56q-.09,11.92,0,23.84c3.65.71,7.53,1.61,11.18.38,3.45-1.43,4.89-5.38,5.28-8.83.57-5-.62-11-5.13-13.95C1510.64,169.75,1506.44,170.25,1502.66,170.59Z"/>
        <path class="cls-3" d="M1532,168c5.12.15,10.24.16,15.37,0-.94.76-1.85,1.51-2.75,2.27,4,8.26,9,16,13.55,23.94,4-8.08,9.49-15.37,12.73-23.79l-3-2.42c4.68.17,9.36.14,14,0v.37c-3.43,1.06-6.76,2.78-8.64,6-4.1,6-7.82,12.36-11.35,18.75-2.65,4.54-2,10-2,15,.13,3-.1,6.11,1,8.95,2,1,4.3,1.34,6.49,2.07-6.28.31-12.57.1-18.85.12,1.92-1.12,5.34-1.26,5.28-4.16a96.73,96.73,0,0,0,.32-14c-.11-5.86-4.13-10.46-6.86-15.31C1543,179.17,1539.88,170.93,1532,168Z"/>
        <path class="cls-3" d="M1068.18,295.29c6.35-15.81,11.31-32.18,18-47.85,6.78,15.39,11.85,31.5,18.62,46.89,1.31,3.71,5.08,5,8.57,5.74-4.75.56-9.55.24-14.31.15.74-2.72-.62-5.27-1.52-7.75-1.56-4-3.06-8.06-4.61-12.08-5.1,0-10.2,0-15.3,0-1.68,5.93-4.87,11.6-5.2,17.83,1.43.73,2.89,1.4,4.4,2-5.52,0-11.06.35-16.56-.17C1063.23,299.16,1067.1,298.77,1068.18,295.29Zm10.33-17.42c4.49,0,9,0,13.5,0-2.32-6.53-4.5-13.12-7-19.59C1082.64,264.73,1080.68,271.34,1078.51,277.87Z"/>
        <path class="cls-3" d="M1123.27,254.25c5.37-4.72,12.76-6.21,19.73-6.14,5.88-.09,11.63,1.27,17.42,2-.35,4.26-.44,8.53-.62,12.8h-.91c-.42-3-.71-6.43-3.28-8.41-4.15-3.05-9.52-3.8-14.53-3.7-5.33.11-11.08,1.38-14.83,5.44-5,5.14-6,12.81-5.38,19.66.87,10.28,8.83,19.6,19,21.61,4.78.84,10,1,14.53-1.09,3.66-1.66,4.25-6,6-9.22a33,33,0,0,1-1.7,11.54c-2,1.87-5.1,1.86-7.68,2.27-9.51.91-20.09.06-27.65-6.41C1111.42,284.8,1111.65,264.28,1123.27,254.25Z"/>
        <path class="cls-3" d="M1187.76,247.83a11.26,11.26,0,0,1,2.38,4.21q6.93,18.36,14.07,36.63a34.53,34.53,0,0,0,4,8.07c1.62,2.33,4.71,2.38,7.15,3.33a106,106,0,0,1-14.59.13c1-2.92-.6-5.66-1.56-8.33-1.49-3.82-2.91-7.66-4.39-11.48-5.1,0-10.2,0-15.3,0-1.75,5.88-4.64,11.5-5.28,17.65a32.87,32.87,0,0,0,4.46,2.17c-5.5,0-11,.35-16.48-.15,3-.88,6.9-1.44,8-5C1176.29,279.45,1181.4,263.39,1187.76,247.83Zm-.9,10.31c-2.29,6.54-4.35,13.15-6.5,19.73,4.5,0,9,0,13.5,0C1191.53,271.28,1189.31,264.67,1186.86,258.14Z"/>
        <path class="cls-3" d="M1324.65,283c1.56-11.85,2.12-23.86,4.36-35.6,7.88,14.4,14.43,29.51,21.87,44.15,7.23-14.63,13.44-29.78,21.13-44.17,2,10.42,2.46,21.07,3.83,31.59.85,5.64.71,11.49,2.32,17,1.13,3.58,5.55,3,8.42,4.09-5,.74-10,.05-15.06,0,.48-4-.12-8-.48-11.93-.85-8.91-1.65-17.82-2.5-26.72-6.35,13.12-12.15,26.52-18.86,39.47-7.34-12.47-13.1-25.8-19.21-38.89-.87,11.38-2.17,22.74-2.79,34.14-.74,3.27,3.57,2.9,5.56,4a136.88,136.88,0,0,1-15.82,0c1.61-.63,3.36-1.06,4.94-1.86C1324.17,293.4,1323.82,288,1324.65,283Z"/>
        <path class="cls-3" d="M1217.36,249.1c9.21.28,18.44-.23,27.66.18,8,.45,16.41,3.69,20.85,10.72,6.61,10.17,4.85,24.73-3.49,33.4-6,6.23-15.07,8.11-23.39,7.56-6.81-.44-13.6-.78-20.41-.76,1.79-1,5.17-1.22,5-4.05.87-10,.18-20.13.4-30.18-.22-4.77.57-9.66-.6-14.33C1221.58,250.38,1219.35,250,1217.36,249.1Zm12.74,2.81c-.45,12.68-.22,25.39-.12,38.08.27,2.53-.44,6.34,2.7,7.3,9.33,2.93,21.41,1.27,27.35-7.24,6-10.1,4.65-24.7-4.54-32.51C1248.63,251.47,1238.78,250.9,1230.1,251.91Z"/>
        <path class="cls-3" d="M1278.84,249.23c9.73-.42,19.53.73,29.22-.56-.47,3.25-.75,6.51-1.2,9.76-.71-1.75-1-3.67-2-5.26-4.21-2-9.08-1.07-13.57-1.29q0,9.92,0,19.85c5.28-.24,11,1,15.83-1.85-.64,3.53-.87,7.12-1.18,10.7-1-2-.86-5.46-3.71-5.73-3.62-.62-7.3-.42-10.93-.49,0,5.91-.1,11.82,0,17.73.07,1.88.23,4.54,2.47,5.12a26.3,26.3,0,0,0,10.75.12c3.37-.57,3.69-4.45,5.18-6.9-.16,3.3-.19,6.73-1.43,9.85-9.36.8-18.81-.3-28.2-.08,1.44-.58,2.87-1.23,4.29-1.93,1.49-3.91.9-8.22,1.15-12.32-.08-10.64.26-21.29-.2-31.92C1285.66,250.3,1281.19,250.35,1278.84,249.23Z"/>
        <path class="cls-3" d="M1382.29,249c5.07.21,10.14.25,15.22,0l-2.59,2.28c3.94,8.29,9,16,13.51,23.95,2.32-4.27,4.68-8.51,7.12-12.71,2-3.63,4.55-7.1,5.56-11.23l-2.84-2.25c4.76.2,9.53.09,14.31,0-2.77,1.29-5.95,2.17-7.78,4.81-4.64,6.19-8.36,13-12.23,19.71-3.28,5.24-2.17,11.64-2.25,17.49.23,2.41-.33,5.27,1.31,7.31,1.93.74,4,1,6,1.63-6.19.61-12.44.25-18.63.17,1.51-1.13,4.63-.86,5-3.21.71-3.93.43-8,.52-11.93.09-3.55-.23-7.26-2.16-10.34-3.85-6.5-7.71-13-11.91-19.27C1388.56,252.37,1385.38,250.63,1382.29,249Z"/>
      </g>
    </g>
  </g>
</svg>
