<svg xmlns="http://www.w3.org/2000/svg" viewBox="0 0 959.28 246.24">
  <defs>
    <style>
      .cls-1 {
        fill: #60a6e0;
      }

      .cls-2 {
        fill: #96c8f0;
      }

      .cls-3 {
        fill: #95c8f0;
      }

      .cls-4 {
        fill: #f1cfaa;
      }

      .cls-5, .cls-52 {
        fill: #e5a567;
      }

      .cls-19, .cls-6 {
        fill: #60a6e1;
      }

      .cls-53, .cls-7 {
        fill: #ebbb8d;
      }

      .cls-8 {
        fill: #97c8f0;
      }

      .cls-9 {
        fill: #79bbef;
      }

      .cls-10, .cls-21 {
        fill: #a2d0f4;
      }

      .cls-11 {
        fill: #f5cda5;
      }

      .cls-12 {
        fill: #e4a567;
      }

      .cls-13 {
        fill: #78baef;
      }

      .cls-14 {
        fill: #ecbc8c;
      }

      .cls-15 {
        fill: #96c9f1;
      }

      .cls-16 {
        fill: #788792;
      }

      .cls-17 {
        fill: #8193a3;
      }

      .cls-18 {
        fill: #ebbc8e;
      }

      .cls-19 {
        font-size: 152.51px;
        font-family: HelveticaNeue-Bold, Helvetica Neue;
        font-weight: 700;
      }

      .cls-20 {
        fill: #288ec1;
      }

      .cls-21 {
        letter-spacing: 0em;
      }

      .cls-22 {
        font-size: 45.09px;
        fill: #ffbc6f;
        letter-spacing: -0.01em;
      }

      .cls-22, .cls-52 {
        font-family: HelveticaNeue-Medium, Helvetica Neue;
        font-weight: 500;
      }

      .cls-23 {
        fill: #00a1c3;
      }

      .cls-23, .cls-24, .cls-25, .cls-26, .cls-27, .cls-29, .cls-30, .cls-31, .cls-32, .cls-34, .cls-35, .cls-36, .cls-37, .cls-39, .cls-40, .cls-41, .cls-42, .cls-43, .cls-44, .cls-46, .cls-47, .cls-48, .cls-49, .cls-50, .cls-51 {
        font-family: HelveticaNeue, Helvetica Neue;
        font-weight: 400;
      }

      .cls-24 {
        fill: #0069b5;
      }

      .cls-25 {
        fill: #0088bd;
      }

      .cls-26 {
        fill: #008ec6;
      }

      .cls-27, .cls-44 {
        fill: #000;
      }

      .cls-28 {
        fill: #ffb454;
      }

      .cls-28, .cls-35, .cls-39, .cls-40, .cls-42, .cls-44, .cls-45, .cls-47, .cls-49, .cls-50 {
        letter-spacing: -0.01em;
      }

      .cls-29 {
        fill: #0070c0;
      }

      .cls-30 {
        fill: #008fc0;
      }

      .cls-31 {
        fill: #007ba5;
      }

      .cls-32 {
        fill: #006cc3;
      }

      .cls-32, .cls-36, .cls-38, .cls-41, .cls-43, .cls-46, .cls-48, .cls-51 {
        letter-spacing: -0.01em;
      }

      .cls-33 {
        fill: #ff9f46;
      }

      .cls-34 {
        fill: #00acbd;
      }

      .cls-35 {
        fill: #00a2cb;
      }

      .cls-36 {
        fill: #007aaa;
      }

      .cls-37 {
        fill: #0083ce;
      }

      .cls-38 {
        fill: #ffaf5c;
      }

      .cls-39, .cls-46 {
        fill: #0097d3;
      }

      .cls-40 {
        fill: #009fce;
      }

      .cls-41 {
        fill: #007cd6;
      }

      .cls-42 {
        fill: #006db3;
      }

      .cls-43 {
        fill: #00a5c8;
      }

      .cls-45 {
        fill: #ffa161;
      }

      .cls-47 {
        fill: #008ac8;
      }

      .cls-48 {
        fill: #0090c8;
      }

      .cls-49 {
        fill: #00a7cb;
      }

      .cls-50 {
        fill: #0076b3;
      }

      .cls-51 {
        fill: #0097bd;
      }

      .cls-52 {
        font-size: 215.25px;
        letter-spacing: -0.01em;
      }

      .cls-53, .cls-54 {
        letter-spacing: -0.01em;
      }
    </style>
  </defs>
  <title>Asset 1</title>
  <g id="Layer_2" data-name="Layer 2">
    <g id="Layer_1-2" data-name="Layer 1">
      <g>
        <path class="cls-1" d="M121.72,12.87c1.9-.8,3.71-1.77,5.59-2.58a41.19,41.19,0,0,1,4.07,1.19c3,1,6.16,1.91,8.86,3.72a5,5,0,0,0,.8.49c1.19.85,2.5,1.5,3.72,2.31.66.42,1.27.92,2,1.3-.18-.31-.38-.62-.59-.92-1-1.53-2.54-2.59-3.73-4s-2.48-2.22-3.55-3.51l.6.1c1.53.75,3,1.59,4.51,2.42a2.74,2.74,0,0,1,1.12.93,26.15,26.15,0,0,0,2.53,5.21c1.86,1,3.75,2,5.67,2.93l-.05-.21c-.9-2.62-2.37-5-3.24-7.62a17.71,17.71,0,0,1,2.73,3c.79,1,.54,2.3.81,3.45a3.29,3.29,0,0,0,1.17,2.23c1.73,1.16,3.52,2.23,5.31,3.28a5.17,5.17,0,0,1-.28-.64A19.09,19.09,0,0,0,158,22.33c-.77-1.29-1.4-2.67-2.11-4a27.33,27.33,0,0,1,3.78,3.75c.24,1.38,0,2.9.79,4.16.82,1.52,2.3,2.45,3.53,3.57,1,.78,1.88,1.63,2.91,2.31a11.56,11.56,0,0,0-.48-2.19,24.63,24.63,0,0,0-3.11-4.07c-.63-.79-1.36-1.49-2.06-2.21a0,0,0,0,1,0,0l-.16-.22a2.32,2.32,0,0,1,1.2.53c1.13.74,2.29,1.45,3.37,2.27a2.07,2.07,0,0,1,.59,1.25,48.68,48.68,0,0,0,1.61,5.28,5.6,5.6,0,0,0,1.49,2.13c2.11,2.22,4.16,4.51,6.34,6.64-.1-.33-.2-.66-.29-1a9.47,9.47,0,0,0-.54-1.66c-1.21-2.84-2.53-5.61-3.71-8.46A20.1,20.1,0,0,1,169.77,27c1.71,1.78,3.21,3.78,4.74,5.72.41.61,1,1.14,1.05,1.94a44.4,44.4,0,0,0,.5,6,10.49,10.49,0,0,0,1.59,3.89c1,1.44,2,3,3.18,4.28l-.18-1.07c.13-3-.1-6-.22-9a16.39,16.39,0,0,1,0-3.5c1.07,2.43,1.94,5,2.81,7.47-.38,1.32-1.17,2.49-1.51,3.84a7,7,0,0,0,.21,3.24,33.62,33.62,0,0,0,2.79,5.52,5.13,5.13,0,0,0,.94,1.4l.28,0a35.08,35.08,0,0,0,2.36-7.62,24.44,24.44,0,0,0,.86-3.86v-.06l.4-.33c.2,2.29.22,4.59.24,6.88a3.61,3.61,0,0,1-.37,2,19.42,19.42,0,0,0-2.76,4.67,9.67,9.67,0,0,0,.8,1.57c1.61,2.83,2.4,6.07,3.82,9,.16-.53.29-1.08.4-1.62a28.42,28.42,0,0,0,.71-4.37c0-2.7.36-5.38.46-8.07.92,2.36,1.46,4.87,2.35,7.24a47.12,47.12,0,0,0-2.83,5.35,11.22,11.22,0,0,0-.33,3.92c.42,1.6.95,3.16,1.41,4.75a4.56,4.56,0,0,0,.79,1.83,25.54,25.54,0,0,0,1.32-3.51c.67-2.35,1.67-4.58,2.31-6.94.62-2.18,1.56-4.25,2.16-6.43a45.71,45.71,0,0,1,0,6.62,5.71,5.71,0,0,1-.49,2.47c-.88,1.43-2,2.66-2.88,4.11-.41.82-.69,1.7-1,2.55a11.38,11.38,0,0,0-.89,3.24c.24,1.54.84,3,1.18,4.51a6.39,6.39,0,0,0,.55,1.93c.87-3.15,1.18-6.44,1.86-9.64a11.35,11.35,0,0,1,2-1.83c1.21-1,2.31-2.05,3.57-2.94,0,.11-.05.33-.06.43-2.38,4.07-4,8.56-6.17,12.75a7.65,7.65,0,0,0-.84,2.89l0,0a8.12,8.12,0,0,0,.19,3c.39,2.25.56,4.53.89,6.78.56-1.79,1-3.64,1.35-5.48a2.24,2.24,0,0,1,.58-1.35,45,45,0,0,1,5.24-4.43c0,.1-.05.29-.07.39-2.15,3.78-3.78,7.85-5.74,11.74-.37.88-1.07,1.76-.84,2.79a97,97,0,0,1,0,10.37,6.18,6.18,0,0,0,0,1c.9-2.43,1.18-5,2-7.52a18.8,18.8,0,0,1,2.91-2.8,8.69,8.69,0,0,1,1.75-1.31,1.89,1.89,0,0,1-.33,1.29c-2,3.44-3.63,7.07-5.71,10.45a3.34,3.34,0,0,0-.64,1.86c-.38,2.83-.78,5.68-1.36,8.48l-.21.31a2.32,2.32,0,0,0,1.38-.37c2.13-1.67,4-3.67,6-5.51,2-2,4.15-3.94,6.11-6l.33-.07a9.64,9.64,0,0,1-1.2,2.32c-1.44,2.46-2.75,5-4.28,7.4-.37.54-.64,1.23-1.29,1.46-2.41,1-5,1.66-7.35,2.7-.56,1-.62,2.15-1.15,3.12-1.11,1.4-2.11,2.89-3.26,4.24a6.43,6.43,0,0,0-1.28,1.56,8.76,8.76,0,0,0,3.08-.79c3.59-1.15,7.06-2.68,10.67-3.78,1.85-.54,3.64-1.28,5.46-1.91a9.27,9.27,0,0,1-1.65,1.35c-2.16,1.63-4.32,3.27-6.51,4.87a13.91,13.91,0,0,1-2.81,1.79c-2.93-.08-5.84-.42-8.75-.66-1.29,1.67-2.57,3.35-3.73,5.11s-2.23,3.51-3.51,5.12a7.54,7.54,0,0,0-.77,1.08c2.53-.54,5-1.43,7.48-2.18,4.31-1.22,8.55-2.7,12.86-3.9l.49,0a18,18,0,0,1-3.08,2.18c-3.1,1.77-6,3.93-9.05,5.75-2.74-.45-5.5-.68-8.25-1-.65-.17-1.08.42-1.42.9-1.64,2.29-3.56,4.34-5.27,6.56-.81,1-1.57,2-2.4,3a7.11,7.11,0,0,0-1.49,1.82c4.72-1,9.41-2.21,14.09-3.39,2.75-.79,5.55-1.33,8.29-2.19a37.53,37.53,0,0,1-4.39,2.81c-2.53,1.53-5,3.13-7.55,4.65a2.51,2.51,0,0,1-1.72.39c-2.55-.32-5-1-7.56-1.43a2.52,2.52,0,0,0-2.23.4c-3.07,2.93-6.2,5.78-9.28,8.69a40.51,40.51,0,0,1-3.17,2.54l.17,0c3,.5,6.07-.29,9.09-.61,1.84-.2,3.63-.7,5.47-.92,4.72-.93,9.49-1.54,14.22-2.39a4.54,4.54,0,0,1,2.1-.18c-1.53.85-3.21,1.37-4.77,2.15-3.89,1.67-7.64,3.68-11.51,5.38a21,21,0,0,1-3.58-.58c-2.77-.66-5.58-1.05-8.37-1.6a8.76,8.76,0,0,0-4.31.27,7.13,7.13,0,0,0-2.95,2.2c1.82,1.29,3.71,2.46,5.62,3.59a8.81,8.81,0,0,1-3-.38c-1.23-.3-2.47-.56-3.69-.86-3.62-1.09-7.31-1.85-10.88-3.1,2.54-1.12,4.94-2.54,7.45-3.74l.54.42a25.39,25.39,0,0,0,3.43,3.29c1.07-.93,2.14-1.85,3.16-2.84,0-.1,0-.29,0-.39a29.2,29.2,0,0,0,1.71-6.2c1.37-6.09,2.52-12.22,3.83-18.32.25-1.24.37-2.51.69-3.73l.22-.4a2.46,2.46,0,0,1,.22,1.08c.27,5.56.7,11.13,1.1,16.69-2.17,3.62-4.82,6.92-6.83,10.66a11.89,11.89,0,0,0,1.76-1.24l0,0a27.12,27.12,0,0,0,2.79-2.46,7.32,7.32,0,0,0,1.27-2.79,53.22,53.22,0,0,0,1.84-6.41c2.41-4.77,4.33-9.78,6.6-14.62,1-2,1.88-4.11,2.68-6.23l.17-.19a68.11,68.11,0,0,1-1.12,9.44,23.09,23.09,0,0,1-1.29,5.08c-1.4,1.48-2.94,2.8-4.34,4.28a6.2,6.2,0,0,0-1.79,2.47,72.39,72.39,0,0,0-2.1,7.06c1.64-1.26,3.1-2.77,4.63-4.19a62.7,62.7,0,0,0,5.65-6.41c.66-.83,1.37-1.6,2-2.47a9.86,9.86,0,0,0,1.11-5.22c.73-2.88,1.57-5.73,2.2-8.64s1.33-5.68,2-8.51a13.1,13.1,0,0,0,.31-1.77l0-.22c.37.29.32.8.36,1.22.14,3.46.08,6.93.21,10.39,0,.33.07.7-.14,1-1.09,1.66-2.32,3.21-3.36,4.9-1,1.35-.7,3.16-1.08,4.74a50.79,50.79,0,0,0,4.73-6.51q1.81-2.76,3.61-5.52a3,3,0,0,0,.37-.73c.23-1.47.13-3,.26-4.46a5.55,5.55,0,0,0,.54-3A21.52,21.52,0,0,0,188,134c.08,1,0,2,0,2.93,1-1.11,1.84-2.43,2.78-3.64a4.35,4.35,0,0,0,1-2c.22-1.52.13-3.06.23-4.58a21.45,21.45,0,0,0,.13-3.49,9.59,9.59,0,0,0-1.43-3.37c-1-1.72-2-3.45-2.86-5.26.71-2.41,1.23-4.87,1.79-7.32.57,2.43.87,4.91,1.46,7.34.45,1.89.81,3.79,1.21,5.69a9.92,9.92,0,0,0,.91,3c-.09,1.09-.33,2.17-.43,3.26a11.85,11.85,0,0,0,.19,3.71,10.69,10.69,0,0,0,1.79-2.22c.56-1.77,1.09-3.57,1.54-5.39.51-2,.66-4,1-6.05a5.45,5.45,0,0,0,.06-2.66,17.41,17.41,0,0,0-2.81-4.83c-1.59-1.86-3.06-3.83-4.65-5.7.14-2.43,0-4.88.22-7.31a3.07,3.07,0,0,0,.26.25c.45,1.47,1.17,2.83,1.72,4.26s1.15,2.63,1.8,3.91c1.13,2.23,1.84,4.68,3.11,6.84a2.64,2.64,0,0,0,.59.74c.05-2.12.1-4.24.08-6.36a12,12,0,0,0-.45-4c-.61-2.21-2.25-3.82-3.62-5.53s-2.74-3.22-4.17-4.77a2.78,2.78,0,0,1-.91-1.7c-.17-2.31-.24-4.63-.29-6.93l.16.16a40.75,40.75,0,0,1,2,4c1.38,3.18,2.91,6.27,4.4,9.39.17.29.37.89.81.55h0a4.09,4.09,0,0,0,1.36,1.91c-.08-2.32-.52-4.62-.81-6.92a52.23,52.23,0,0,0-.95-5.43c-.73-1-1.68-1.89-2.4-2.93A31.31,31.31,0,0,0,191,80c-1.14-1.87-2.13-3.82-3.33-5.64-.79-1.31-1.62-2.62-2.29-4l0-.33c2.43,2.21,4.82,4.5,7.11,6.88a42.49,42.49,0,0,0,.67,5,5.87,5.87,0,0,0,2,3.07c-.22-1.12-.58-2.2-.89-3.29-.77-2.6-1.41-5.23-2.24-7.81a11.09,11.09,0,0,0-3.41-5.52c-1.31-1.78-3-3.14-4.48-4.78-1.18-1.39-2.52-2.62-3.67-4.05,2.22,1.1,4.29,2.53,6.5,3.65.88.32,1,1.43,1.29,2.21.4,1,.69,2.33,1.74,2.88-.75-2.19-1.61-4.34-2.49-6.48-.74-1.46-1.6-2.86-2.47-4.23-.39-.11-.79-.21-1.17-.34-.76-.38-1.38-1-2.15-1.36-2.38-1.17-4.95-1.84-7.26-3.15,2,0,3.93.25,5.89.4.36.06.82,0,1.09.29.73.84,1.25,1.86,2,2.63a1.27,1.27,0,0,0,.85.41,33.28,33.28,0,0,0-1.71-3.17c-1-1.84-2.86-2.85-4.54-3.87a5.55,5.55,0,0,0-1-.94c-2-1.33-3.89-2.72-5.84-4a13.38,13.38,0,0,1-1.31-1.05c1.51.3,3,.75,4.47,1.19a7.6,7.6,0,0,1,1.66.64,12.62,12.62,0,0,0,2.28,3.24,11.07,11.07,0,0,0,2.36,1.61c-2.11-2.77-4-5.68-6.18-8.44a12.31,12.31,0,0,0-4-1.93l-.17-.3-.17.06a1.57,1.57,0,0,0-.88-.64c-3.23-1.16-6.51-2.18-9.72-3.4,2.64-.2,5.3.08,8,.11,1,1.07,2,2.17,3.13,3.18a3.55,3.55,0,0,0,1.63.76c-1.6-2-3.44-3.82-5.16-5.72a4.58,4.58,0,0,0-.74-.72,12,12,0,0,0-4.11-1.23c-2.18-.35-4.4-.25-6.6-.44h-.15A32.71,32.71,0,0,1,160,29.86a17.56,17.56,0,0,0,4.84,1.88,60.35,60.35,0,0,0-4.78-4,3,3,0,0,0-2.36-.52c-2.9-.11-5.72.87-8.61,1A8.91,8.91,0,0,1,151.38,27a16.28,16.28,0,0,1,3.54-1.33c1,.12,1.94.53,2.93.71a40.93,40.93,0,0,0-4.37-2.68,6.23,6.23,0,0,0-2.06-.2c-3.16.25-6.31.68-9.47.84h-.11c1.79-.91,3.69-1.57,5.49-2.47a1.66,1.66,0,0,1,1.44-.09c1,.39,2.08.81,3.16,1.12a36.07,36.07,0,0,0-3.44-1.9,9.5,9.5,0,0,0-3-1,11.06,11.06,0,0,1-2.23-.69c-2.13-.27-4.29.27-6.42,0,1.38-.63,2.85-1,4.27-1.53,1.54.53,3,1.28,4.57,1.75-2.44-1.69-5-3.1-7.54-4.71a5.77,5.77,0,0,0-2.8-.91c-2.34-.2-4.69-.11-7-.42-1.84-.24-3.64-.2-5.49-.37A3.41,3.41,0,0,1,121.72,12.87Z"/>
        <path class="cls-1" d="M169.86,43.36h0Z"/>
        <path class="cls-1" d="M77.29,200.45H76c2.76-1,6.58-2.1,9.48-2.93,4-1.2,8.09-2.4,12.11-3.69a2.88,2.88,0,0,0,1.21-.74l0,0a21.33,21.33,0,0,0,3.87-1.41c-5.27-.44-10.54-.75-15.82-.9a8,8,0,0,0-3.05.28c-.86.41-1.54,1.14-2.37,1.6-.5.21-1,.32-1.52.54l-6.77,4.38c-.78.59-2.78.25-2.78.25l-2.74-.47L66,197.05l-1-.15-1.14-.22s-3.59-.5-5.85-1c6.83-1.11,14.86-2.11,21.69-3.21a3.26,3.26,0,0,0,1.54-.66,11.65,11.65,0,0,0,1.43-1.2c-4.08-.31-8-1.68-12-2.27a7.41,7.41,0,0,1-2.46.39,27.37,27.37,0,0,1-5-.09c-1.7.43-3.4.89-5.11,1.33-.52.11-1.13.37-1.62,0-3-1.52-6-3-8.91-4.56a3.23,3.23,0,0,1,.93-.05l13.09,2.44c.77.11,1.59.47,2.34.1,1.57.06,3.14.08,4.71,0-3.07-1.41-6.36-2.27-9.47-3.6s-6.4-3-9.61-4.4a15,15,0,0,0-3.28,0c-2,.5-3.94,1-5.94,1.4-.76.2-1.4-.35-2.07-.61-2.31-1-4.51-2.22-6.78-3.29a15.51,15.51,0,0,1-2.05-1.1,33.18,33.18,0,0,1,4,.59c3.47.6,6.93,1.32,10.42,1.79a9.58,9.58,0,0,0,2.77.21h.62a35.32,35.32,0,0,0-3.24-2.05c-2.83-1.62-5.52-3.59-8.61-4.65a10.94,10.94,0,0,0-3.48-.92c-1.39-.07-2.76.2-4.14.24a2.49,2.49,0,0,1-1.54-.68C24.07,169.43,22,168,20,166.44a8.63,8.63,0,0,1,1.42.34c2.78,1,5.58,1.95,8.36,2.94a18.34,18.34,0,0,0,3.82,1.11c.57.17,1.11.47,1.69.6-2.31-1.82-4.69-3.55-7-5.35a47.36,47.36,0,0,1-3.78-3.59,22.76,22.76,0,0,1-3.58-4.07,54.8,54.8,0,0,1-5.73-.26c-1.55-1.21-2.88-2.72-4.33-4.06a17.07,17.07,0,0,1-1.33-1.36c2.51.94,4.89,2.24,7.38,3.23,1.2.45,2.31,1.11,3.51,1.58a10.72,10.72,0,0,0-1-1.51c-1-1.46-1.87-3-2.79-4.59-.56-.9-.92-2-1.93-2.51-.83-.41-1.33-1.27-2.14-1.7-1.58-.6-3.25-1-4.81-1.64-1.24-2.2-2.79-4.19-4-6.38a5.39,5.39,0,0,1,1.34,1c2.59,2.14,4.85,4,7.41,6.17.18,0,.74.36.92.33A13.05,13.05,0,0,1,14.66,148a11.44,11.44,0,0,0-.91-1.94c-.94-1.78-1.94-3.53-2.8-5.35-.74-1.31-.71-3-1.56-4.21-.83-.87-1.43-2-2.51-2.59a23.22,23.22,0,0,0-2.56-1c-1.12-2-2.4-4-3.51-6l.39.15c1.6,1.8,3.42,3.37,5,5.19a5.37,5.37,0,0,0,2,1.66l.32.06c-.39-1.24-.93-2.43-1.22-3.7a8.3,8.3,0,0,0-1.23-3.37c-1.14-1.69-2.89-2.73-4.42-4-.55-2-1-4-1.47-6,2,2.64,3.17,5.86,5.43,8.27a6.67,6.67,0,0,0,.71.79c-.58-2.51-.71-5.1-1.07-7.64a8.4,8.4,0,0,0-.72-2.19c-1-2.67-2.13-5.31-3.36-7.89.45-2.14.83-4.3,1.25-6.45a22.44,22.44,0,0,0,.19,2.32c.26,2.33.21,4.69.57,7a4,4,0,0,0,.52,1.24c.42.81.67,1.71,1.11,2.51.08-2.69-.08-5.38,0-8.07,0-1.24.16-2.48.12-3.72-.2-.87-.49-1.72-.74-2.58-.53-1.74-1.79-3.09-2.44-4.77.15-2.3.65-4.55,1-6.82a2.51,2.51,0,0,1,.32.46c.3,2.79.74,5.55,1.07,8.34A12.66,12.66,0,0,0,5,100.59a5.4,5.4,0,0,0,.33.74c.9-2.24,1.69-4.52,2.54-6.78,1.4-3.52,1.73-7.38,2.65-11a24.62,24.62,0,0,1,3.07-2.61c1.53-1.28,3.18-2.38,4.65-3.73a14.06,14.06,0,0,1,1.71-1.48l-.05.2A12.72,12.72,0,0,1,18.14,79c-1.95,2.92-4,5.76-5.94,8.72a21.93,21.93,0,0,0-2.89,5.1,63.55,63.55,0,0,0-3.13,9.27,27.17,27.17,0,0,0-.53,6.67c1-1.53.54-3.47.61-5.2-.06-.41.32-.64.53-.92,1.35-1.43,2.55-3,4-4.37a10.56,10.56,0,0,1-.76,1.91c-.74,1.39-1.17,2.92-1.88,4.32a18.58,18.58,0,0,0-1.52,3.37c-.26,1-.77,2-1,3-.17,3.14.4,6.25.66,9.38A25.76,25.76,0,0,0,7,124.85a13.81,13.81,0,0,0,.36-3.26c-.18-1.5-.49-3-.78-4.45a1.43,1.43,0,0,1,.06-1c1.44-2.5,2.92-5,4.41-7.44a16.69,16.69,0,0,1-.54,2.62C9.7,114.68,8.82,118,8,121.38a2.93,2.93,0,0,0,.13,1.55c-.09,1.71-.73,3.43-.37,5.16a20.74,20.74,0,0,0,1.33,4.77c.62,1.5,1.08,3.07,1.72,4.57.26-1,.36-2.06.53-3.09a2.33,2.33,0,0,0,0-1.31c-.48-1.24-1-2.48-1.5-3.7.51-2.36,1-4.73,1.76-7,.28,3.43.07,6.89.18,10.34a2.61,2.61,0,0,0,.36,1.08c0,1.88-.54,3.76-.68,5.65a16.58,16.58,0,0,0,1.71,3.7,26,26,0,0,0-.14-4.41,13.8,13.8,0,0,1-.22-1.91c.41-1.27,1.08-2.42,1.6-3.64a28.38,28.38,0,0,1,1.23-2.75c-.17,3.27-1.11,6.42-1.61,9.65a1.52,1.52,0,0,0,.11.89c.24,1.44-.33,3,.3,4.41.76,1.74,1.7,3.39,2.55,5.09a15.1,15.1,0,0,0,1.37,2.42c0-2.25-1.52-4-2.07-6.12.49-2.62,1-5.27,1.71-7.84,0,2,.26,4.07.28,6.1,0,1.63.07,3.27.25,4.88a3.71,3.71,0,0,0,.43,1.25,9.06,9.06,0,0,0,.63,3.54,27,27,0,0,0,2.09,3.46,29.78,29.78,0,0,0,3.6,4A12.81,12.81,0,0,0,27,163.72a2,2,0,0,0-.36-.9c-.79-.92-1.7-1.69-2.56-2.53a1.66,1.66,0,0,1-.52-.82c-.39-1.45-.57-2.94-.87-4.41-.17-.94-.42-1.87-.52-2.83,1,1.56,1.57,3.31,2.37,5a48.88,48.88,0,0,0,3.11,6.28c.17.45.27.93.4,1.4,2.17,1.68,4.36,3.33,6.54,5a30.08,30.08,0,0,0,3.9,2.78,6.92,6.92,0,0,0-1.94-3.34c-.88-.75-1.82-1.41-2.73-2.12-.38-.32-.93-.54-1-1.1-.83-2.86-1.35-5.79-1.95-8.71l.44.34a34.71,34.71,0,0,0,2,3.77c1.38,2.44,2.76,4.9,4.13,7.35a12.58,12.58,0,0,0,1,1.49A17.53,17.53,0,0,0,40,173.43l0,0a68.74,68.74,0,0,0,12.5,6.84c-1.25-1.47-3-2.32-4.5-3.39a37.12,37.12,0,0,1-3.34-2.49c-.82-2.88-1.59-5.78-2.38-8.67l-.16-.76c2.09,3,4,6.76,6.11,9.78.45.61.87,1.38,1.67,1.49h0a8.16,8.16,0,0,0,1.84,2.12c1.16.93,2.18,2.05,3.36,3a19.34,19.34,0,0,0,4.17,2.14,20.06,20.06,0,0,0,3.08,1.07c-1.81-1.51-4.12-2.18-5.92-3.69a3.64,3.64,0,0,1-.91-1.64c-.76-2.26-1.65-4.47-2.46-6.72a2.75,2.75,0,0,1-.32-1.45l.15.16c1.15,1.51,2.27,3,3.44,4.53,1.55,2.45,3.34,4.71,5,7a2.29,2.29,0,0,0,1.36.9c.64.7,1.15,1.69,2.13,1.89,1.62.54,3.21,1.17,4.85,1.63,2.84.61,5.66,1.29,8.51,1.87a6.28,6.28,0,0,0-1.93-1.17c-1.85-.89-3.66-1.83-5.49-2.74Q68.36,180,66,174.73a15,15,0,0,1-.61-1.57l.46.2a32.4,32.4,0,0,0,3,4c1.08,1.31,2.08,2.69,3.23,3.94,1.53,1.8,2.94,3.71,4.46,5.52.25.39.69.37,1.09.34h.06c.91,1.17,2,2.48,3.59,2.52q5.43.26,10.86.34a7.69,7.69,0,0,0-1.79-1.72c-1.94-.79-4-1.36-5.9-2.2a74.33,74.33,0,0,1-4.09-6.78,26.22,26.22,0,0,1-1.44-2.85c.16,0,.61.18.61.18l.06,0a4.3,4.3,0,0,0,.66,1c1.19,1.28,2.35,2.6,3.65,3.76s2.53,2.69,3.91,3.91c1,.93,1.91,2.15,3.24,2.63a6.89,6.89,0,0,0,3.23,2.16q5.37.4,10.74.74a17.26,17.26,0,0,0,4,0,14.79,14.79,0,0,0-3.62-1.65c-2.44-.44-4.94-.13-7.39-.51a35,35,0,0,1-2.73-2.3c-1.79-1.61-3.45-3.14-5.21-4.78a8.25,8.25,0,0,1,2.64,1.16q5.49,2.58,11,5.21a3.35,3.35,0,0,0,1.67.37,16.2,16.2,0,0,1,2.56,1c1.34.53,2.61,1.46,4.1,1.41,2.61-.11,5.22-.34,7.83-.35a9.43,9.43,0,0,0,1.59-.09c-.19-.31-.36-.76-.76-.78-2.94-.28-5.9,0-8.84-.28a6.21,6.21,0,0,1-2.54-1.76c-2-2-4.14-3.76-6.14-5.72a30.09,30.09,0,0,1-2.5-2.42H101c6.23,3.31,12.56,6.44,19.06,9.15a4.29,4.29,0,0,0,1.54.5h.08c.2.31.38.63.55,1-.14.35-.29.7-.42,1.06-.7-.15-1.28.34-1.89.61s-1.45.45-2.15.76c-.48.14-.52.74-.79,1.11-1.9,2.7-3.67,5.52-5.57,8.22-.24.28-.46.69-.86.72q-8.91,1.5-17.75,3.39c0-.09.05-.27.07-.37,1.34-.56,2.55-1.4,3.89-2,2.33-1.23,4.71-2.37,7-3.76,3.36-1.95,6.89-3.55,10.28-5.45a20.83,20.83,0,0,0,3.53-2.13c0-.1-.13-.3-.18-.4l0-.17c.28-.13.57-.24.86-.36-4.75.21-9.5.79-14.25.46-1.6,1.51-3.91,1.6-5.82,2.44-1.85,1.52-3.65,3.13-5.46,4.7a23.36,23.36,0,0,1-1.84,1.48c-2.59.06-5.19.09-7.78.12"/>
        <path class="cls-1" d="M116.37,163.58a3.76,3.76,0,0,1,2-1.53,20.13,20.13,0,0,1,3.46,1.17c-.38.49-.76,1-1.1,1.5a6.74,6.74,0,0,0-.81,1.84,5.79,5.79,0,0,0,.07,1.38,4.79,4.79,0,0,0,1.5,1.75,14.67,14.67,0,0,0-3,.24,10.08,10.08,0,0,1-1.82-.34,10.05,10.05,0,0,1-1.24-4.77C115.78,164.39,116.07,164,116.37,163.58Zm.87,2.21a4.39,4.39,0,0,0-.12,1.73,3,3,0,0,0,2.6,2.13,5.61,5.61,0,0,1-1.64-2.39,14.42,14.42,0,0,1,.17-2.62A3.1,3.1,0,0,0,117.24,165.79Z"/>
        <path class="cls-1" d="M122.39,163.49a2.08,2.08,0,0,1,1.87,1.87,7.48,7.48,0,0,1-.58,2.18c-.31-.45-.55-.95-.88-1.39a3.19,3.19,0,0,0-1.51-.89A2.39,2.39,0,0,1,122.39,163.49Z"/>
      </g>
      <g>
        <path class="cls-2" d="M138.47,10.52l1,.49-.6-.1c1.07,1.29,2.46,2.23,3.55,3.51s2.71,2.43,3.73,4a26.77,26.77,0,0,0-3.87-2.26,5.46,5.46,0,0,0-1.21-.43,5,5,0,0,1-.8-.49,1.93,1.93,0,0,0-.15-.75C139.51,13.16,138.94,11.86,138.47,10.52Z"/>
        <path class="cls-2" d="M121.19,13.15l.53-.28a3.41,3.41,0,0,0,1.09.31c1.85.17,3.65.13,5.49.37,2.33.31,4.68.22,7,.42a5.77,5.77,0,0,1,2.8.91,2.78,2.78,0,0,0-2,.3c-1.57.65-3.11,1.36-4.67,2-.23.13-.47-.05-.69-.12C127.64,15.67,124.39,14.48,121.19,13.15Z"/>
        <path class="cls-2" d="M155.8,18.2a.83.83,0,0,0,.07.13c.71,1.33,1.34,2.71,2.11,4A19.09,19.09,0,0,1,159.72,26c-.86-.93-1.73-1.85-2.61-2.75A3.43,3.43,0,0,1,156,21.42,24.72,24.72,0,0,1,155.8,18.2Z"/>
        <path class="cls-2" d="M136.82,19.37c2.13.29,4.29-.25,6.42,0a11.06,11.06,0,0,0,2.23.69c-2.05-.46-4.05.31-6,.77a21.79,21.79,0,0,1-3.07-1.31Z"/>
        <path class="cls-2" d="M142,24.37c3.16-.16,6.31-.59,9.47-.84a6.23,6.23,0,0,1,2.06.2,2.67,2.67,0,0,0-1.63.1,44.52,44.52,0,0,1-5.21,2.29C145.11,25.46,143.48,25,142,24.37Z"/>
        <path class="cls-2" d="M169.5,32.68c-.1-2-.08-4.07,0-6.1.08.1.22.3.3.39a20.1,20.1,0,0,0,1.35,3.42c1.18,2.85,2.5,5.62,3.71,8.46a9.47,9.47,0,0,1,.54,1.66c-1.64-2-3.29-4.09-5-6.11A2.57,2.57,0,0,1,169.5,32.68Z"/>
        <path class="cls-2" d="M149.1,28.24c2.89-.13,5.71-1.11,8.61-1a48.08,48.08,0,0,1-4.26,2.24c-1.47-.38-2.94-.81-4.4-1.24Z"/>
        <path class="cls-2" d="M179.85,36.16a2.82,2.82,0,0,1,.58-1.16,1.9,1.9,0,0,1,0,.25,16.39,16.39,0,0,0,0,3.5c.12,3,.35,6,.22,9-.76-2.43-1.64-4.82-2.52-7.2C178.75,39.08,179.35,37.64,179.85,36.16Z"/>
        <path class="cls-2" d="M159.24,35.3l.33.1c3.21,1.22,6.49,2.24,9.72,3.4a1.57,1.57,0,0,1,.88.64c-2.22.1-4.47-.07-6.7-.18a12.77,12.77,0,0,1-1.9-1.64C160.8,36.84,160,36.13,159.24,35.3Z"/>
        <path class="cls-2" d="M170.17,39.44l.17-.06.17.3Z"/>
        <path class="cls-2" d="M169.28,43.24l.58.12h0a13.38,13.38,0,0,0,1.31,1.05c1.95,1.33,3.88,2.72,5.84,4a5.55,5.55,0,0,1,1,.94c-2-.91-4.09-1.38-6.12-2.1-.29-.09-.4-.42-.57-.66C170.69,45.49,170,44.37,169.28,43.24Z"/>
        <path class="cls-2" d="M185.77,49.39c1.12-1.37,2.23-2.76,3.37-4.11a24.44,24.44,0,0,1-.86,3.86,35.08,35.08,0,0,1-2.36,7.62l-.28,0C185.87,54.29,185.72,51.83,185.77,49.39Z"/>
        <path class="cls-2" d="M173.89,52.68l.51,0c2.31,1.31,4.88,2,7.26,3.15.77.35,1.39,1,2.15,1.36a34.1,34.1,0,0,0-6.2-.83c-.56-.06-.91-.55-1.28-.93C175.5,54.56,174.64,53.67,173.89,52.68Z"/>
        <path class="cls-2" d="M190.27,59.47c.89-1.47,1.79-2.94,2.57-4.49-.1,2.69-.43,5.37-.46,8.07a28.42,28.42,0,0,1-.71,4.37,8.45,8.45,0,0,0-.26-2.65C191.06,63,190.67,61.23,190.27,59.47Z"/>
        <path class="cls-2" d="M180.27,59.38l.14.16c1.15,1.43,2.49,2.66,3.67,4.05,1.44,1.64,3.17,3,4.48,4.78A45.62,45.62,0,0,0,182.09,65C181.55,63.11,180.76,61.29,180.27,59.38Z"/>
        <path class="cls-2" d="M198.39,62.6a7.17,7.17,0,0,1,1.7-1.73c0,.08-.05.24-.07.32-.6,2.18-1.54,4.25-2.16,6.43-.64,2.36-1.64,4.59-2.31,6.94-.11-2.83,0-5.67-.05-8.5C196.47,64.91,197.43,63.75,198.39,62.6Z"/>
        <path class="cls-2" d="M185.35,70.34c-.34-.08-.35-.19,0-.33Z"/>
        <path class="cls-2" d="M185.35,70.34c.67,1.39,1.5,2.7,2.29,4,1.2,1.82,2.19,3.77,3.33,5.64a31.31,31.31,0,0,1,1.93,3.56c-2.16-2.27-4.38-4.49-6.66-6.63-.16-.18-.42-.34-.38-.63-.11-1.59-.32-3.17-.54-4.75C185.32,71.15,185.09,70.69,185.35,70.34Z"/>
        <path class="cls-2" d="M197.61,85.39c2.17-4.19,3.79-8.68,6.17-12.75a50.89,50.89,0,0,1-1.23,8.61c-.18.7-.19,1.53-.75,2-1.72,1.58-3.65,3-5,5l0,0A7.65,7.65,0,0,1,197.61,85.39Z"/>
        <path class="cls-2" d="M18.14,79a12.72,12.72,0,0,0,1.74-3.12c-.1,2.05-.51,4.08-.79,6.12-.18.86-.16,1.9-.86,2.52-2.3,2.22-4.63,4.4-7.08,6.45a12.38,12.38,0,0,0-1.84,1.85,21.93,21.93,0,0,1,2.89-5.1C14.12,84.76,16.19,81.92,18.14,79Z"/>
        <path class="cls-2" d="M199.24,98.88c2-3.89,3.59-8,5.74-11.74a25.32,25.32,0,0,1-.41,2.75,61.76,61.76,0,0,1-1.38,7.42c-.63,1-1.7,1.54-2.47,2.39s-1.69,1.26-2.29,2.14l0-.17C198.17,100.64,198.87,99.76,199.24,98.88Z"/>
        <path class="cls-2" d="M3.13,89.4c.89,1.29,1.71,2.64,2.48,4,0,2.41-1.06,4.76-.63,7.18a12.66,12.66,0,0,1-.78-2.85C3.87,95,3.43,92.19,3.13,89.4Z"/>
        <path class="cls-2" d="M190.45,96.35a51.9,51.9,0,0,1,4.19,4.91c.75.95,1.52,1.89,2.25,2.85a2.45,2.45,0,0,1,.29,1.42c0,1.94-.1,3.89-.1,5.83-1.27-2.16-2-4.61-3.11-6.84-.65-1.28-1.26-2.58-1.8-3.91S190.9,97.82,190.45,96.35Z"/>
        <path class="cls-2" d="M10.8,98.27c0-.06.1-.19.14-.25.15,1.34-.07,2.69,0,4,0,.68.06,1.51-.46,2a40,40,0,0,0-3.8,3.79,18.58,18.58,0,0,1,1.52-3.37c.71-1.4,1.14-2.93,1.88-4.32A10.56,10.56,0,0,0,10.8,98.27Z"/>
        <path class="cls-2" d="M205.09,101.37l.26-.29a38.14,38.14,0,0,1-1,5.71,31.58,31.58,0,0,1-1.17,4.18c-1.57,1.35-3.31,2.5-4.76,4a3.34,3.34,0,0,1,.64-1.86c2.08-3.38,3.73-7,5.71-10.45A1.89,1.89,0,0,0,205.09,101.37Z"/>
        <path class="cls-2" d="M2.45,101.82l.13-.39c.55.88,1,1.8,1.5,2.7a2.62,2.62,0,0,1,.46,1.39c-.11,2-.53,3.92-.83,5.88a3,3,0,0,0,0,1,4,4,0,0,1-.52-1.24c-.36-2.32-.31-4.68-.57-7A22.44,22.44,0,0,1,2.45,101.82Z"/>
        <path class="cls-2" d="M189.69,107c1.08,1.9,2,3.93,3,5.85.64,1.17,1.3,2.35,1.88,3.56a64.31,64.31,0,0,1-1.33,6.91,9.92,9.92,0,0,1-.91-3c-.4-1.9-.76-3.8-1.21-5.69-.59-2.43-.89-4.91-1.46-7.34Z"/>
        <path class="cls-2" d="M11.33,108.05a6,6,0,0,1,.4,1.79,32.31,32.31,0,0,1,.58,4.13,45.18,45.18,0,0,1-3.54,7,9.14,9.14,0,0,0-.67,2A2.93,2.93,0,0,1,8,121.38c.85-3.36,1.73-6.7,2.54-10.08a16.69,16.69,0,0,0,.54-2.62A4.46,4.46,0,0,1,11.33,108.05Z"/>
        <path class="cls-2" d="M202.4,114.48c2.63-.91,5.22-1.94,7.91-2.65-2,2.11-4.09,4-6.11,6-2,1.84-3.85,3.84-6,5.51a2.32,2.32,0,0,1-1.38.37l.21-.31c1-1.47,1.79-3.07,2.75-4.56S201.43,115.88,202.4,114.48Z"/>
        <path class="cls-2" d="M186.35,115.83l.17.44a12.38,12.38,0,0,0,0,2.11c.18,1.66.21,3.34.42,5,.31,2.47.33,5,.73,7.43a5.55,5.55,0,0,1-.54,3,11.59,11.59,0,0,0-1-2.92,43.09,43.09,0,0,1-2.47-7.34C184.51,121,185.32,118.35,186.35,115.83Z"/>
        <path class="cls-2" d="M0,116.29a26.81,26.81,0,0,1,3.73,2.52c.74,2.09,1.14,4.31,1.91,6.39-2.26-2.41-3.46-5.63-5.43-8.27C.13,116.72.06,116.5,0,116.29Z"/>
        <path class="cls-2" d="M11.63,121.93c.89,1.59,1.54,3.33,2.35,5-.72,2.25-1.21,4.57-1.89,6.83a2.61,2.61,0,0,1-.36-1.08c-.11-3.45.1-6.91-.18-10.34Z"/>
        <path class="cls-2" d="M200.58,127.3a2.14,2.14,0,0,1,1.55-.23c2.67.36,5.37.41,8,.81l-.13.2c-1.82.63-3.61,1.37-5.46,1.91-3.61,1.1-7.08,2.63-10.67,3.78a8.76,8.76,0,0,1-3.08.79,6.43,6.43,0,0,1,1.28-1.56,1.11,1.11,0,0,0,.63-.27C195.26,130.77,198.05,129.24,200.58,127.3Z"/>
        <path class="cls-2" d="M1.2,127.05c1,.31,2,.57,3,1a1.67,1.67,0,0,1,.8.71c1.19,1.65,2,3.58,3.21,5.19a5.37,5.37,0,0,1-2-1.66C4.62,130.42,2.8,128.85,1.2,127.05Z"/>
        <path class="cls-2" d="M177.49,135.56c1.49-2.23,3-4.41,4.69-6.51a13.1,13.1,0,0,1-.31,1.77c-.71,2.83-1.44,5.66-2,8.51s-1.47,5.76-2.2,8.64c-.09-3.82-.6-7.62-.55-11.44A1.69,1.69,0,0,1,177.49,135.56Z"/>
        <path class="cls-2" d="M15.8,130.11c.34,1.85.8,3.68,1.05,5.54-.62,1.95-2,3.51-2.71,5.45l-.05-.19A1.52,1.52,0,0,1,14,140c.5-3.23,1.44-6.38,1.61-9.65"/>
        <path class="cls-2" d="M168.87,143.41c2-1.75,3.83-3.63,5.86-5.29-.8,2.12-1.71,4.19-2.68,6.23-2.27,4.84-4.19,9.85-6.6,14.62.52-3.51.87-7,1.66-10.49.27-1.23.47-2.47.7-3.71C167.89,144.14,168.47,143.81,168.87,143.41Z"/>
        <path class="cls-2" d="M3.33,138.63c1.72.51,3.43,1.06,5.14,1.6.91,1,1.51,2.33,2.35,3.43.46.74,1,1.42,1.42,2.2.22.45.71.61,1.1.86a3.33,3.33,0,0,1-.88-.29S7.6,142.36,5,140.22a5.39,5.39,0,0,0-1.34-1l-.07,0Z"/>
        <path class="cls-2" d="M18,138.87c.93,1.35,1.67,2.83,2.46,4.26a2.68,2.68,0,0,1-.05,2,56.7,56.7,0,0,0-1.45,6,3.71,3.71,0,0,1-.43-1.25c-.18-1.61-.22-3.25-.25-4.88C18.21,142.94,18,140.91,18,138.87Z"/>
        <path class="cls-2" d="M187.62,142.74c1.69-1.05,3.43-2,5.18-3a49.18,49.18,0,0,1,7.66.56,20.3,20.3,0,0,1,2.19.33c-4.31,1.2-8.55,2.68-12.86,3.9-2.49.75-4.95,1.64-7.48,2.18a7.54,7.54,0,0,1,.77-1.08C184.66,144.82,186.07,143.66,187.62,142.74Z"/>
        <path class="cls-2" d="M61.49,143.23c1.09-.47,2.15-1,3.25-1.43a15.45,15.45,0,0,1-2.51,2.41c-2.4,2-4.94,3.88-7.2,6.1a14.61,14.61,0,0,1-2.11,1.9l-.2.13c-1.72-.19-3.43-.31-5.15-.5.91-.67,1.75-1.43,2.66-2.09l-1,0c-2-.33-3.94-.42-5.91-.64,2.66-.66,5.27-1.52,7.93-2.17A83.18,83.18,0,0,0,61.49,143.23Z"/>
        <path class="cls-2" d="M60.21,149.39c.45,1.24.27,2.62.64,3.88s1.25,2.61,1.68,4c-1.77,1.84-3.66,3.55-5.36,5.47.14-2.94.38-5.88.45-8.83C58.58,152.47,59.21,150.81,60.21,149.39Z"/>
        <path class="cls-2" d="M22,151.63a27.48,27.48,0,0,1,2.64,2.2,3.72,3.72,0,0,1,1.47,1.89c.51,2.58.93,5.18,1.53,7.74a48.88,48.88,0,0,1-3.11-6.28c-.8-1.64-1.41-3.39-2.37-5Z"/>
        <path class="cls-2" d="M184.43,151.91c3.46.65,6.89,1.47,10.34,2.17l-.21.24c-2.74.86-5.54,1.4-8.29,2.19-4.68,1.18-9.37,2.36-14.09,3.39a7.11,7.11,0,0,1,1.49-1.82L174,158C177.46,155.94,180.79,153.62,184.43,151.91Z"/>
        <path class="cls-2" d="M9.07,152.45a54.35,54.35,0,0,1,5.85,0c1.41,1.05,2.66,2.33,4,3.42l.43.15a10.72,10.72,0,0,1,1,1.51c-1.2-.47-2.31-1.13-3.51-1.58-2.49-1-4.87-2.29-7.38-3.23Z"/>
        <path class="cls-2" d="M130.34,156.42c.3.39.56.8.88,1.16.94.27,2,0,2.9.34.53.23.54.85.58,1.36a3.49,3.49,0,0,0-2.88-.91,4,4,0,0,0,.41,1.78c.3.45.63.88.9,1.35a2.54,2.54,0,0,1-1.69-1A7.35,7.35,0,0,1,130.34,156.42Z"/>
        <path class="cls-2" d="M31.28,157.69c1.51,1.12,3.08,2.14,4.63,3.18,1,3.09,1.61,6.31,2.5,9.43a12.58,12.58,0,0,1-1-1.49c-1.37-2.45-2.75-4.91-4.13-7.35A34.71,34.71,0,0,1,31.28,157.69Z"/>
        <path class="cls-2" d="M117.24,165.79a3.1,3.1,0,0,1,1-1.15,14.42,14.42,0,0,0-.17,2.62,5.61,5.61,0,0,0,1.64,2.39,3,3,0,0,1-2.6-2.13A4.39,4.39,0,0,1,117.24,165.79Z"/>
        <path class="cls-2" d="M42.13,165c1.79,1.17,3.52,2.44,5.25,3.71.6.34.6,1.11.8,1.71a37.83,37.83,0,0,0,1.73,5.85c-.8-.11-1.22-.88-1.67-1.49-2.07-3-3.73-6.32-5.82-9.33"/>
        <path class="cls-2" d="M173.24,166.24c1.12-.46,2.25-1.27,3.51-.92,3.94.75,7.9,1.44,11.81,2.37.44.17,1.06.13,1.3.63l-.15,0a4.54,4.54,0,0,0-2.1.18c-4.73.85-9.5,1.46-14.22,2.39-1.84.22-3.63.72-5.47.92-3,.32-6,1.11-9.09.61,1.58,0,2.91-1,4.31-1.67C166.5,169.24,169.87,167.72,173.24,166.24Z"/>
        <path class="cls-2" d="M19.59,166.15c2.09-.2,4.18-.5,6.28-.58.25,0,.45.23.67.35,1.46,1,2.9,2,4.3,3.06a17.77,17.77,0,0,0,2.71,1.85,18.34,18.34,0,0,1-3.82-1.11c-2.78-1-5.58-1.93-8.36-2.94a8.63,8.63,0,0,0-1.42-.34A1.12,1.12,0,0,1,19.59,166.15Z"/>
        <path class="cls-2" d="M52.92,171.24c1.52.55,2.92,1.37,4.42,2,.5.31,1.25.4,1.46,1,1,2.49,2,5,3,7.44a6.72,6.72,0,0,0,.94,2,2.29,2.29,0,0,1-1.36-.9c-1.71-2.33-3.5-4.59-5-7C55.19,174.28,54.07,172.75,52.92,171.24Z"/>
        <path class="cls-2" d="M65.87,173.36c2.47,1.17,4.86,2.52,7.3,3.77,1.11,2.22,2,4.56,3,6.81.52,1.06.85,2.21,1.42,3.24-.4,0-.84,0-1.09-.34-1.52-1.81-2.93-3.72-4.46-5.52-1.15-1.25-2.15-2.63-3.23-3.94A32.4,32.4,0,0,1,65.87,173.36Z"/>
        <path class="cls-2" d="M36.59,174.28c.39-.13.75.15,1.1.28,3,1.43,6,3,9,4.38l-.16,0a9.58,9.58,0,0,1-2.77-.21c-3.49-.47-6.95-1.19-10.42-1.79a33.18,33.18,0,0,0-4-.59l-.15,0a4.7,4.7,0,0,1,.93-.39C32.28,175.32,34.43,174.78,36.59,174.28Z"/>
        <path class="cls-2" d="M49.91,176.28h0Z"/>
        <path class="cls-2" d="M79.59,176.69c1.93.79,3.91,1.46,5.82,2.31.35.12.51.49.71.79,1.33,2.23,2.58,4.51,3.89,6.76.31.52.7,1,1,1.47-1.33-.48-2.21-1.7-3.24-2.63-1.38-1.22-2.53-2.69-3.91-3.91s-2.46-2.48-3.65-3.76A4.3,4.3,0,0,1,79.59,176.69Z"/>
        <path class="cls-2" d="M101,179.39c3.15-.14,6.32-.11,9.49-.15,1.81,1.65,3.59,3.34,5.46,4.92s3.72,3.31,5.65,4.88a4.29,4.29,0,0,1-1.54-.5C113.58,185.83,107.25,182.7,101,179.39Z"/>
        <path class="cls-2" d="M89.53,181.18a27.36,27.36,0,0,1,4.15,0,35.47,35.47,0,0,1,3.72.12c2.69,2.32,5.26,4.81,8,7.12a3.35,3.35,0,0,1-1.67-.37q-5.49-2.62-11-5.21a8.25,8.25,0,0,0-2.64-1.16l-.2-.12A2,2,0,0,1,89.53,181.18Z"/>
        <path class="cls-2" d="M46.77,185.11c2.46-.88,5-1.31,7.54-2.05,1.06.75,2.32,1.14,3.41,1.84,2.1.91,4.09,2.06,6.15,3-.75.37-1.57,0-2.34-.1l-13.09-2.44a3.23,3.23,0,0,0-.93.05Z"/>
        <path class="cls-2" d="M116.17,192.27c.42,0,.67-.44,1-.52l.16.05c0,.1.13.3.18.4a20.83,20.83,0,0,1-3.53,2.13c-3.39,1.9-6.92,3.5-10.28,5.45-2.25,1.39-4.63,2.53-7,3.76-1.34.57-2.55,1.41-3.89,2,2.14-3.53,4.92-6.57,7.38-9.84C105.58,194.56,110.82,193.12,116.17,192.27Z"/>
        <path class="cls-2" d="M76,200.44a15.83,15.83,0,0,1,1.48-1.76l.72-.63q1.65-1.49,3.53-3c.68-.54,1.36-1.07,2-1.56,1.93-.21,3.75-.18,5.62-.21,1.34,0,2.71-.06,4.06,0,1.85,0,3.55,0,5.36-.18a2.88,2.88,0,0,1-1.21.74c-4,1.29-8.07,2.49-12.11,3.69-2.9.83-5.76,1.92-8.68,2.66"/>
      </g>
      <g>
        <path class="cls-3" d="M149.62,14.18l.09.14a3.55,3.55,0,0,0,.26.34l0,.05c.87,2.61,2.33,5,3.22,7.58l0,.14c-1.09-1.27-2.28-2.43-3.46-3.61a.09.09,0,0,1,0-.07C149.68,17.23,149.58,15.7,149.62,14.18Z"/>
        <path class="cls-3" d="M161.22,23.63a0,0,0,0,0,0,0A0,0,0,0,1,161.22,23.63Z"/>
        <path class="cls-3" d="M161.23,23.65c.7.72,1.43,1.42,2.06,2.21a24.63,24.63,0,0,1,3.11,4.07c-1.22-.82-2.42-1.68-3.66-2.47-.22-.18-.55-.31-.62-.63C161.79,25.79,161.49,24.72,161.23,23.65Z"/>
        <path class="cls-3" d="M155.67,31.34c2.2.19,4.42.09,6.6.44-.93.34-1.88.61-2.82.92a2.25,2.25,0,0,1-1.67.09A11.29,11.29,0,0,1,155.67,31.34Z"/>
        <path class="cls-3" d="M188.47,83a48.91,48.91,0,0,1,3.72,3.76c1.07,1.21,2.26,2.33,3.22,3.64,0,2.19,0,4.39.26,6.57-.44.34-.64-.26-.81-.55-1.49-3.12-3-6.21-4.4-9.39A40.75,40.75,0,0,0,188.47,83Z"/>
        <path class="cls-3" d="M68.19,141.67c2.83-.06,5.68.13,8.51-.12l-.94.21c-.92.09-2-.2-2.75.56-1.4,1.43-2.78,2.87-4.16,4.32-.93,1.11-2.08,2-2.92,3.19-1.24,2.22-1.9,4.76-3.3,6.89,0-1.17.09-2.33.11-3.5a17.75,17.75,0,0,1,.5-4.48c.45-1.52,1.2-2.92,1.61-4.45C65.91,143.33,67.1,142.58,68.19,141.67Z"/>
        <path class="cls-3" d="M128.4,158.62a8.53,8.53,0,0,0,1.18,2.16c.35.37.71.72,1,1.09-.81-.09-1.85-.29-2.16-1.22A2.15,2.15,0,0,1,128.4,158.62Z"/>
      </g>
      <g>
        <path class="cls-4" d="M149.88,66.44c4.42-6.57,9.1-13,12.83-20a55.63,55.63,0,0,1,.28,7c-3.1,3-5.81,6.46-9,9.42-1,1-2,2.07-3.07,3A3,3,0,0,1,149.88,66.44Z"/>
        <path class="cls-4" d="M159.54,63.57a13.6,13.6,0,0,0,2.81-5.06c.68,3.07,1.13,6.19,1.9,9.24a32.23,32.23,0,0,1-6.41,2.72c-1.47.45-2.91,1-4.4,1.39a18.64,18.64,0,0,1-3,.81C153.24,69.37,156.58,66.68,159.54,63.57Z"/>
        <path class="cls-4" d="M156.28,72.05c3.64-.52,7.23-1.33,10.88-1.73-1.36,1.76-2.91,3.33-4.25,5.1,1.83.39,3.76.3,5.52,1-1.59,1.34-2.94,3-4.55,4.29-1.79,1.73-3.69,3.32-5.59,4.92q3.22.61,6.46,1.06a24.92,24.92,0,0,1,1.4,3.43c-3.6,2.68-7.06,5.59-10.87,7.94.45-2.56,1.37-5,1.86-7.54a31.5,31.5,0,0,0,1-4.89c-.67-1.72-1.79-3.21-2.44-5,2.12-1.71,4.29-3.35,6.54-4.87l.57-.48c-4.14-.63-8.25-1.43-12.37-2.17A52.57,52.57,0,0,1,156.28,72.05Z"/>
        <path class="cls-4" d="M156.86,100.54c3.15.51,6.22,1.48,9.4,1.7a5.7,5.7,0,0,1-1.24,3.67L165,106c-1.51-.73-3-1.55-4.57-2.16Q158.58,102.25,156.86,100.54Z"/>
        <path class="cls-4" d="M163.12,112.4l.21,0A4.57,4.57,0,0,1,165,115a11.53,11.53,0,0,1-.15,1.94c-3.07-.19-6.13-.48-9.2-.68l-.09-.12a21.81,21.81,0,0,0,2.56-1.16C159.77,114.07,161.49,113.34,163.12,112.4Z"/>
        <path class="cls-4" d="M151.11,138.11l.2-.05a58.41,58.41,0,0,0,6.28,3.82,5.6,5.6,0,0,1,.13,2,6,6,0,0,1-.65,1.4,4.47,4.47,0,0,1,.13,3.53c-.27.65-.91,1-1.43,1.37l-.36-.35c-2-2-3.64-4.27-5.59-6.28a.43.43,0,0,1,.09-.1c2.18.49,4.35,1.1,6.56,1.53-1.79-2.26-3.52-4.56-5.39-6.74Z"/>
        <path class="cls-4" d="M26.76,148.4a79.58,79.58,0,0,1,8.17.19c2.8.11,5.58.49,8.38.55,2,.22,3.95.31,5.91.64a30.17,30.17,0,0,1-3,.53c-5.29.46-10.59.8-15.86,1.48A30.44,30.44,0,0,1,26.76,148.4Z"/>
        <path class="cls-4" d="M41.77,156.26a52.53,52.53,0,0,1,5.8-4.42c1.72.19,3.43.31,5.15.5-1.59,1.75-3.18,3.5-4.68,5.34C45.94,157.26,43.85,156.77,41.77,156.26Z"/>
        <path class="cls-4" d="M53.82,155.81a30.41,30.41,0,0,0,3.3-1.47c-.53,1.23-1.32,2.3-1.93,3.49-1,1.66-1.83,3.42-2.83,5.07l0,0a6.68,6.68,0,0,1-3.3-2.66,8.8,8.8,0,0,1-.84-2.63C50,156.9,52,156.45,53.82,155.81Z"/>
        <path class="cls-4" d="M57.17,162.74c1.7-1.92,3.59-3.63,5.36-5.47.44,2.23.87,4.45,1.37,6.66.72-.45,1.43-.93,2.13-1.42.93-.64,2-1.11,2.88-1.77.74.39,1.45.82,2.18,1.23,0,2-.19,4-.18,6a8.51,8.51,0,0,1-4.28-.28,3,3,0,0,1-1.34-1.15,10.09,10.09,0,0,1-1.52-2.44,8.14,8.14,0,0,1-4.94,1.24c-1.15-.17-1.63-1.46-1.7-2.54Z"/>
        <path class="cls-4" d="M160.93,180.29H161c1.42,1.32,3,2.45,4.46,3.69a50.27,50.27,0,0,1-5.49-.19A25,25,0,0,1,160.93,180.29Z"/>
        <path class="cls-4" d="M154.71,186.74a41.26,41.26,0,0,1,3.77,2.39c1.67,1,3.34,1.9,5.05,2.76.82,1.05,1,2.51,1.92,3.49h0a8.21,8.21,0,0,1-4.17,3.22,3.86,3.86,0,0,1-2.71-.26C157.35,194.45,156.12,190.56,154.71,186.74Z"/>
        <path class="cls-4" d="M128.16,190c.69,1.23,1.25,2.53,2,3.74.8-.85,1.62-1.7,2.36-2.62,1.51,1,2.87,2.14,4.35,3.16l-.08.12c-1.35,2.79-2.39,5.74-4,8.4a27.84,27.84,0,0,1-1.44-4.42c-.5-1.51-.84-3.08-1.28-4.62-.39,2.43-1,4.81-1.39,7.24-.68-.95-1.41-1.85-2.11-2.78A78.89,78.89,0,0,1,128.16,190Z"/>
        <path class="cls-4" d="M119.65,195.56c2.71-1.72,5.24-3.74,8-5.46a5.5,5.5,0,0,1-.76,1.25c-1.75,2.1-3.23,4.43-4.95,6.55-1.35-.25-2.74-.1-4.1-.22C118.44,197,119,196.27,119.65,195.56Z"/>
        <path class="cls-4" d="M141.92,193.49l0-.06c1,2.28,2.34,4.37,3.51,6.56,1.06,1.68,1.84,3.54,2.95,5.2a6.87,6.87,0,0,1-8.06.53c.14-1.46.24-2.93.49-4.37C141.31,198.75,141.57,196.11,141.92,193.49Z"/>
      </g>
      <g>
        <path class="cls-5" d="M154,62.77c3.15-3,5.86-6.39,9-9.42a29.83,29.83,0,0,1-.64,5.16,13.6,13.6,0,0,1-2.81,5.06c-3,3.11-6.3,5.8-9.09,9.1l-.23,0c-.09-2.08-.25-4.16-.3-6.24l0,0a3,3,0,0,0,1.08-.63C152,64.84,153,63.81,154,62.77Z"/>
        <path class="cls-5" d="M168.43,76.4l.35-.14c-.33,2.67-.29,5.53-1.59,7.93a6.26,6.26,0,0,1-2.44,2.48q-3.24-.45-6.46-1.06c1.9-1.6,3.8-3.19,5.59-4.92C165.49,79.37,166.84,77.74,168.43,76.4Z"/>
        <path class="cls-5" d="M161.3,97.68c1.23,0,2.44-.24,3.66-.36.44.09.71.59.95,1a4.55,4.55,0,0,1,.35,3.95c-3.18-.22-6.25-1.19-9.4-1.7l-.35-.2a22.47,22.47,0,0,0-1.29-2C157.25,98.08,159.26,97.73,161.3,97.68Z"/>
        <path class="cls-5" d="M160.39,103.81c1.57.61,3.06,1.43,4.57,2.16-.93.52-2,.78-2.92,1.22-2.59,1.19-5.23,2.27-7.82,3.45a4.17,4.17,0,0,1-1.71.44c1.92-1.75,3.68-3.7,5.75-5.27A20.09,20.09,0,0,0,160.39,103.81Z"/>
        <path class="cls-5" d="M152.34,111.44c2,0,4.07.4,6.11.52,1.55.19,3.13.11,4.67.44-1.63.94-3.35,1.67-5,2.61a21.81,21.81,0,0,1-2.56,1.16C154.5,114.59,153.47,113,152.34,111.44Z"/>
        <path class="cls-5" d="M155.66,116.29c3.07.2,6.13.49,9.2.68a8.14,8.14,0,0,1-1.4,4.73c-3.39,1.34-6.87,2.46-10.26,3.81,2.27,1.31,4.76,2.29,6.75,4.08-2.31.25-4.64.22-6.95.45h-.12c0-1.81-.42-3.74.34-5.45s1-3.82,1.63-5.69C155.13,118,155.41,117.16,155.66,116.29Z"/>
        <path class="cls-5" d="M149.82,143.59c2,2,3.61,4.3,5.59,6.28a76.36,76.36,0,0,1-7.71.35c-.89,0-1.77-.09-2.65-.13C146,147.44,148.16,145.69,149.82,143.59Z"/>
        <path class="cls-5" d="M49.22,149.78l1,0c-.91.66-1.75,1.42-2.66,2.09a52.53,52.53,0,0,0-5.8,4.42A51.44,51.44,0,0,1,34,153.89a12.11,12.11,0,0,1-3.67-2.1c5.27-.68,10.57-1,15.86-1.48A30.17,30.17,0,0,0,49.22,149.78Z"/>
        <path class="cls-5" d="M139.9,150.28l1-.12c1.32-.1,2.65.06,4,0,1.22.92,2.6,1.59,3.83,2.5.88.66,1.88,1.1,2.78,1.71.14,1.34-.1,3.14-1.54,3.56a6.46,6.46,0,0,1-1.88-1.77c-.84-.94-1.7-1.85-2.56-2.75s-1.61-2-2.53-2.84c.37,3.49,1.21,6.91,1.57,10.4-.87-1.56-1.43-3.27-2.19-4.87C141.44,154.16,140.9,152.11,139.9,150.28Z"/>
        <path class="cls-5" d="M72.81,160.88a31.58,31.58,0,0,1,2.65-2c1,.94,1.84,2,2.76,3-.39,1-.77,2.09-1.23,3.1-.54,1.22-.9,2.52-1.48,3.72C74.48,166.12,73.68,163.48,72.81,160.88Z"/>
        <path class="cls-5" d="M88.35,162.1l.16-.08a28.17,28.17,0,0,0,2.59,3.88,57.18,57.18,0,0,0,3.85,5,73,73,0,0,0,1.23-8.31l1.06-.45c1.35.89,2.62,1.89,3.94,2.83.76.6,1.59,1.11,2.37,1.68,1.13,2.51,2.14,5.09,3.21,7.63a26.46,26.46,0,0,1-4.41-.78,6.12,6.12,0,0,1-5.5-.45c-.67-.28-1.21-.9-1.91-1.07-1.06.54-2.1,1.3-3.33,1.16-1.55-.1-2.66-1.36-3.71-2.41a11.22,11.22,0,0,1-7.47.57c.89-1.84,2.33-3.29,3.33-5.06-.5-.63-1-1.25-1.49-1.89.67-.59,1.31-1.21,2-1.8l1.48.82a21.28,21.28,0,0,1-1.68,2.79c1.13,1.41,2.37,2.72,3.6,4C87.72,167.49,88.07,164.8,88.35,162.1Z"/>
        <path class="cls-5" d="M110.41,164.78c1.57-.69,3.17-1.31,4.76-1.95.39.27.8.5,1.2.75-.3.4-.59.81-.86,1.24a3.77,3.77,0,0,0-.52,3,28.7,28.7,0,0,1-4.79-2.78c1.16,3.4,3,6.47,4.56,9.67a72.56,72.56,0,0,1-11.07-8c1.06-.67,2.15-1.32,3.22-2C108.07,164.6,109.26,165.06,110.41,164.78Z"/>
        <path class="cls-5" d="M154.41,186.58c1.81-1.05,3.71-1.93,5.6-2.79a50.27,50.27,0,0,0,5.49.19c.87.65,1.71,1.36,2.62,1.94A26.63,26.63,0,0,0,168,189l-.5.16c-2.52-1.5-4.79-3.41-7.22-5.06.67,1.69,1.56,3.26,2.24,4.94a11.5,11.5,0,0,1,1,2.84c-1.71-.86-3.38-1.81-5.05-2.76a41.26,41.26,0,0,0-3.77-2.39c1.41,3.82,2.64,7.71,3.87,11.61a2.71,2.71,0,0,1-1.28,1.57,4.57,4.57,0,0,1-2.35.1c-1.54-.85-2.53-2.44-3.67-3.76s-1.82-2.72-2.94-3.89c0,2.63.36,5.25.36,7.88,0,1.31.18,2.61.14,3.91a1.48,1.48,0,0,1-.24.74l-.19.29c-1.11-1.66-1.89-3.52-2.95-5.2-1.17-2.19-2.52-4.28-3.51-6.56,1.36-1.55,2.65-3.17,4-4.74a12.1,12.1,0,0,0,2.61,2.86c2.5,1.74,5,3.46,7.59,5.07-.62-1.55-1.49-3-2.13-4.53a22,22,0,0,1-1.46-3.47C153.18,188,153.78,187.25,154.41,186.58Z"/>
        <path class="cls-5" d="M127.61,190.1l.47-.31.08.16a78.89,78.89,0,0,0-1.57,8.22,4,4,0,0,1-3.82.83,1.63,1.63,0,0,1-.87-1.1c1.72-2.12,3.2-4.45,4.95-6.55A5.5,5.5,0,0,0,127.61,190.1Z"/>
        <path class="cls-5" d="M136.85,194.23a12.36,12.36,0,0,1,2-1.62c1,.29,2,.6,3.08.88-.35,2.62-.61,5.26-1.08,7.86-.25,1.44-.35,2.91-.49,4.37a15.62,15.62,0,0,1-2.64-1c-.48-3.43-.51-6.92-.94-10.36Z"/>
      </g>
      <g>
        <path class="cls-6" d="M143.5,73.59c2.16-2.36,4.38-4.65,6.42-7.13.05,2.08.21,4.16.3,6.24,0,.11,0,.32,0,.43-.71,1-1.35,2-2.07,3-.94,1.27-1.69,2.68-2.65,3.94a121.58,121.58,0,0,0-6.73,10.26c-2.15,4.08-4.82,7.87-6.68,12.12a22.86,22.86,0,0,0,2.82-2.75q3.59-3.37,7.07-6.88c1.45-1.21,2.64-2.72,4.06-4,2.46-2.12,4.73-4.47,7.33-6.39.78-.61,1.58-1.17,2.35-1.8.65,1.74,1.77,3.23,2.44,5a31.5,31.5,0,0,1-1,4.89c-.49,2.55-1.41,5-1.86,7.54,0,.06,0,.2-.06.27a22.47,22.47,0,0,1,1.29,2c-.9.38-1.76.86-2.64,1.28-3.44,1.46-7,2.71-10.37,4.3-2.57,1-5.09,2.21-7.57,3.45,2.3.37,4.64.4,6.94.79a28.12,28.12,0,0,0,3.18.36c2,.07,4,.65,6,.9l.24,0c1.13,1.53,2.16,3.15,3.23,4.73l.09.12c-.25.87-.53,1.74-.81,2.6-.63,1.87-.92,3.85-1.63,5.69s-.37,3.64-.34,5.45a46.66,46.66,0,0,1-6.09-2.3,59.27,59.27,0,0,1-6.52-2.92,24,24,0,0,0-3.73-1.77,28.32,28.32,0,0,0,1.93,2.16c1.92,2.31,4,4.44,6.06,6.62,1.87,2.44,4.46,4.12,6.58,6.29l0,.17c-.33,1.75-.81,3.46-1.17,5.21a.43.43,0,0,0-.09.1c-1.66,2.1-3.87,3.85-4.77,6.5l-.2,0c-1.32.11-2.65-.05-4,0-.82-1.63-1.48-3.35-2.18-5-.22-.46-.36-1-.83-1.28a13.27,13.27,0,0,0-2.82-1.29,30.87,30.87,0,0,0,1.85,2.94c1,1.57,2.07,3.15,3,4.79,1,1.83,1.54,3.88,2.43,5.77.76,1.6,1.32,3.31,2.19,4.87.07.16.15.32.23.49l.25.55c-.48,1.85-1,3.7-1.45,5.56-.53,2.55-1.13,5.07-1.76,7.59a86.61,86.61,0,0,1-4.88-7.44,56.86,56.86,0,0,0-3.62-6,20.81,20.81,0,0,1-3.3.69,3.44,3.44,0,0,1-3.71-3.24,6.19,6.19,0,0,1,0-1.55,8.84,8.84,0,0,1,1.57-1.83c.37-.41.95-.24,1.43-.27,1.23.06,2.52-.65,3.7,0a8,8,0,0,1,1.86,2.6,3.13,3.13,0,0,0-.72-2.71c-.62-.87-1.93-.34-2.55-1.2-1.15-1.63-1.93-3.54-3.26-5-2.4-3.17-5.14-6-7.46-9.29-.84-1.08-1.53-2.27-2.38-3.33a23.37,23.37,0,0,1-2-3.09,24.11,24.11,0,0,1-1.72-4.71c-.47-1.73-1.11-3.41-1.44-5.17-.24-1.37-.93-2.59-1.28-3.92,1.73.83,3.64,1.09,5.42,1.78.44,2.4-.09,5,1,7.25.65,1.27.94,2.8,2,3.82,1.82,1.32,3.83,2.3,5.7,3.53,1.07.69,2.16,1.38,3.26,2a43.33,43.33,0,0,0,6.42,3.55c-1.09-1.36-2.65-2.2-3.7-3.59-.86-1.29-1.62-2.65-2.4-4a12,12,0,0,0-2.59-2.49c-.8-.75-1.49-1.61-2.32-2.33a6.41,6.41,0,0,1-2.25-2.82,80.32,80.32,0,0,1-2.12-8.52,9.44,9.44,0,0,0,1.29-2.07,7.42,7.42,0,0,0-.49-2.45l.83.23a23.73,23.73,0,0,0,4,2.86c.89.62,1.86,1.09,2.8,1.62,1.57.93,3.1,1.93,4.66,2.88a23.51,23.51,0,0,0,2.8,1.6c.5-1,.94-1.94,1.5-2.85.15-.31.42-.64.32-1-.28-1.44-.74-2.82-1.07-4.24l0-.12a13.71,13.71,0,0,0,0-1.57c-.4-1.21-1.47-2-1.88-3.24a21.7,21.7,0,0,1,.52-5c-1.45-.39-2.94-.63-4.4-1-1.26-2.93-2.83-5.69-4.09-8.62A21.59,21.59,0,0,0,126,92.53a37.86,37.86,0,0,1,2.91-3.31C133.85,84.11,138.64,78.81,143.5,73.59Zm-13.16,82.83a7.35,7.35,0,0,0,1.1,4.12,2.54,2.54,0,0,0,1.69,1c-.27-.47-.6-.9-.9-1.35a4,4,0,0,1-.41-1.78,3.49,3.49,0,0,1,2.88.91c0-.51,0-1.13-.58-1.36-.93-.38-2-.07-2.9-.34C130.9,157.22,130.64,156.81,130.34,156.42Zm-1.94,2.2a2.15,2.15,0,0,0,.07,2c.31.93,1.35,1.13,2.16,1.22-.34-.37-.7-.72-1-1.09A8.53,8.53,0,0,1,128.4,158.62Z"/>
        <path class="cls-6" d="M97.75,111.42A5.88,5.88,0,0,1,99.61,110a7.32,7.32,0,0,1,.94.12l-.51.35-.58.39c.42.5,1,1,1.63.51l.6-.27.08.26a2.37,2.37,0,0,1-2.44,1A7.12,7.12,0,0,1,97.75,111.42Z"/>
        <path class="cls-6" d="M186.52,116.27c1.59,3.6,3,7.31,4.27,11A47.45,47.45,0,0,1,188,134a21.52,21.52,0,0,1-.29-3.21c-.4-2.46-.42-5-.73-7.43-.21-1.65-.24-3.33-.42-5A12.38,12.38,0,0,1,186.52,116.27Z"/>
        <path class="cls-6" d="M95.94,135.44c1.35-.59,2.74-1.11,4.06-1.79l.06.11c1.09,1.57,2.35,3,3.42,4.57.79,1.67,1.25,3.48,1.88,5.21.79,2.37,1.43,4.8,2,7.23a3,3,0,0,1-1.56-1c-1.44-1.38-2.79-2.84-4.18-4.26a11.84,11.84,0,0,1-1.62-2.64c-1.46-2.4-2.79-4.88-4.07-7.39Z"/>
        <path class="cls-6" d="M86.52,139.69a24,24,0,0,0,3.62,3.37c2.3,1.67,4.29,3.78,6.69,5.3a39.34,39.34,0,0,0,4.88,1.39,34.87,34.87,0,0,1,5.6,1.53c-1,2.82-2.6,5.31-3.71,8.07a36.34,36.34,0,0,0-2.42,5.62c-1.32-.94-2.59-1.94-3.94-2.83-1.6-2.9-2.95-5.94-4.43-8.9-.85-2.4-2.72-4.18-3.68-6.52S87.16,142.12,86.52,139.69Z"/>
        <path class="cls-6" d="M76.7,141.55c.54-.11,1.08-.18,1.62-.26a22.44,22.44,0,0,1-1.26,3.76,24.72,24.72,0,0,0-1.31,3.41c-.23,3.47-.39,6.95-.29,10.43a31.58,31.58,0,0,0-2.65,2c-.57.36-1.16.7-1.72,1.09-.73-.41-1.44-.84-2.18-1.23a24.36,24.36,0,0,1,.49-2.94c.4-2.39.82-4.78,1.45-7.11a16.27,16.27,0,0,1,1.79-3.56c1-1.82,2.15-3.53,3.12-5.37Z"/>
        <path class="cls-6" d="M64.74,141.8c1.15-.07,2.3-.12,3.45-.13-1.09.91-2.28,1.66-3.34,2.62a32.06,32.06,0,0,0-2.79,2.8,15.28,15.28,0,0,0-1.85,2.3c-1,1.42-1.63,3.08-2.59,4.52l-.5.43a30.41,30.41,0,0,1-3.3,1.47c-.24-1.22-.67-2.38-.9-3.6a14.61,14.61,0,0,0,2.11-1.9c2.26-2.22,4.8-4.06,7.2-6.1A15.45,15.45,0,0,0,64.74,141.8Z"/>
        <path class="cls-6" d="M107.55,151.63a14.35,14.35,0,0,1,1.15,1.62c2.11,3.23,4.2,6.47,6.47,9.58-1.59.64-3.19,1.26-4.76,1.95-1.15.28-2.34-.18-3.5,0C107.05,160.37,107.48,156,107.55,151.63Z"/>
        <path class="cls-6" d="M126.26,171.35a36.18,36.18,0,0,0,8,2.05c0,.95,0,1.9,0,2.85,0,.72,0,1.44-.05,2.16l-.17.07a37.57,37.57,0,0,1-3.11-2.95,14.29,14.29,0,0,0-2.21-1.91l-.46-.27-2.15-1.61Z"/>
        <path class="cls-6" d="M138.8,176.79a22.73,22.73,0,0,1,3.23-1.35c4,3.89,8.31,7.35,12.38,11.14-.63.67-1.23,1.37-1.87,2l-.16.15a39.39,39.39,0,0,1-4.86-.12,16.15,16.15,0,0,0-1.7-.1c-1.24-1.76-2.23-3.7-3.42-5.5C141.08,181,140,178.88,138.8,176.79Z"/>
      </g>
      <g>
        <path class="cls-7" d="M164.25,67.75a4.7,4.7,0,0,1,3.15.33c.77.42.67,1.42.61,2.18a4.51,4.51,0,0,1,1.6,3.6,6.42,6.42,0,0,1-.83,2.4l-.35.14c-1.76-.68-3.69-.59-5.52-1,1.34-1.77,2.89-3.34,4.25-5.1-3.65.4-7.24,1.21-10.88,1.73a52.57,52.57,0,0,0-5.81,1.09h-.24c0-.11,0-.32,0-.43l.23,0a18.64,18.64,0,0,0,3-.81c1.49-.38,2.93-.94,4.4-1.39A32.23,32.23,0,0,0,164.25,67.75Z"/>
        <path class="cls-7" d="M155.28,98c3.81-2.35,7.27-5.26,10.87-7.94a8.4,8.4,0,0,1,.55,4.36A5.68,5.68,0,0,1,165,97.32c-1.22.12-2.43.33-3.66.36-2,0-4.05.4-6.08.63C155.24,98.24,155.27,98.1,155.28,98Z"/>
        <path class="cls-7" d="M165,106l.06-.06a4.51,4.51,0,0,1,.37,2,12.1,12.1,0,0,1-.12,2.48,3,3,0,0,1-1.94,2l-.21,0c-1.54-.33-3.12-.25-4.67-.44-2-.12-4.06-.52-6.11-.52l-.24,0,.41-.34a4.17,4.17,0,0,0,1.71-.44c2.59-1.18,5.23-2.26,7.82-3.45C163,106.75,164,106.49,165,106Z"/>
        <path class="cls-7" d="M90.21,113.18c.69-.47,1.4-.9,2.12-1.33a6,6,0,0,1,3.07,1.39,3,3,0,0,1,.22,2.8c-1.69.27-3.15-.78-4.68-1.32,1.3-.63,2.85-.41,4.06-1.27a1.46,1.46,0,0,0-.92-.1,10.53,10.53,0,0,0-5.37,2.31c-.36.31-.7.63-1,.93C87.82,115,89.09,114,90.21,113.18Zm1,.55c.63-.13,1.24-.3,1.86-.47,0-.15,0-.44,0-.59A3,3,0,0,0,91.18,113.73Z"/>
        <path class="cls-7" d="M153.2,125.51c3.39-1.35,6.87-2.47,10.26-3.81a12.49,12.49,0,0,1-.17,2.67,21.15,21.15,0,0,1-1.06,2.71,11.26,11.26,0,0,1-2.28,2.68,20.11,20.11,0,0,1,.38,2.43,10.93,10.93,0,0,1-1.07,3.67c-.35.66.31,1.29.28,2a5.35,5.35,0,0,1-1.95,4,58.41,58.41,0,0,1-6.28-3.82c2.49-.55,5-.94,7.5-1.59A73.91,73.91,0,0,1,153,130c2.31-.23,4.64-.2,6.95-.45C158,127.8,155.47,126.82,153.2,125.51Z"/>
        <path class="cls-7" d="M52.72,152.34l.2-.13c.23,1.22.66,2.38.9,3.6-1.86.64-3.78,1.09-5.62,1.82l-.16.05C49.54,155.84,51.13,154.09,52.72,152.34Z"/>
        <path class="cls-7" d="M71.09,162c.56-.39,1.15-.73,1.72-1.09.87,2.6,1.67,5.24,2.7,7.78.58-1.2.94-2.5,1.48-3.72.46-1,.84-2.06,1.23-3.1.46.46.93.91,1.42,1.34a8.28,8.28,0,0,0,2.63,1.17c.48.64,1,1.26,1.49,1.89-1,1.77-2.44,3.22-3.33,5.06a14.59,14.59,0,0,1-4.3-1.84c-.57-.46-1.21.12-1.82.08a6.34,6.34,0,0,1-3.4-1.54C70.9,166,71,164,71.09,162Z"/>
        <path class="cls-7" d="M85.73,163.37c.86-.45,1.75-.85,2.62-1.27-.28,2.7-.63,5.39-.7,8.1-1.23-1.32-2.47-2.63-3.6-4A21.28,21.28,0,0,0,85.73,163.37Z"/>
        <path class="cls-7" d="M88.51,162c1.39.63,2.73,1.38,4.1,2,1.19-.51,2.39-1,3.57-1.48A73,73,0,0,1,95,170.9a57.18,57.18,0,0,1-3.85-5A28.17,28.17,0,0,1,88.51,162Z"/>
        <path class="cls-7" d="M110.2,165.08a28.7,28.7,0,0,0,4.79,2.78c.47.68.9,1.53,1.76,1.73a10.08,10.08,0,0,0,1.82.34,31.28,31.28,0,0,1,3.18,2.11c.89.64,1.88,1.13,2.76,1.81-2.06.36-3.71,2.26-5.89,2a15.91,15.91,0,0,0-3.9-.13,12.66,12.66,0,0,1-5.2-.15,14.26,14.26,0,0,1-2.75-1.27v0c-1.07-2.54-2.08-5.12-3.21-7.63l.14.1a72.56,72.56,0,0,0,11.07,8C113.2,171.55,111.36,168.48,110.2,165.08Z"/>
        <path class="cls-7" d="M145.82,188.55a16.15,16.15,0,0,1,1.7.1,39.39,39.39,0,0,0,4.86.12l.16-.15a22,22,0,0,0,1.46,3.47c.64,1.55,1.51,3,2.13,4.53-2.58-1.61-5.09-3.33-7.59-5.07a12.1,12.1,0,0,1-2.61-2.86Z"/>
        <path class="cls-7" d="M148.34,192.37c1.12,1.17,1.87,2.67,2.94,3.89s2.13,2.91,3.67,3.76c-.32,0-.89-.45-1,0a8.7,8.7,0,0,1-3.43,5.06c-.64.47-1.29,0-1.9-.23a1.48,1.48,0,0,0,.24-.74c0-1.3-.12-2.6-.14-3.91C148.7,197.62,148.34,195,148.34,192.37Z"/>
        <path class="cls-7" d="M128.7,201c.36-2.43,1-4.81,1.39-7.24.44,1.54.78,3.11,1.28,4.62a27.84,27.84,0,0,0,1.44,4.42c1.57-2.66,2.61-5.61,4-8.4.43,3.44.46,6.93.94,10.36-1.35,1.13-3.27.56-4.41-.6-.6-.69-1.55-.32-2.28-.66A3.47,3.47,0,0,1,128.7,201Z"/>
      </g>
      <g>
        <path class="cls-8" d="M148.16,76.11c.72-1,1.36-2,2.07-3h.24c4.12.74,8.23,1.54,12.37,2.17l-.57.48c-2.25,1.52-4.42,3.16-6.54,4.87-.77.63-1.57,1.19-2.35,1.8-2.6,1.92-4.87,4.27-7.33,6.39-1.42,1.23-2.61,2.74-4.06,4q-3.48,3.49-7.07,6.88a22.86,22.86,0,0,1-2.82,2.75c1.86-4.25,4.53-8,6.68-12.12a121.58,121.58,0,0,1,6.73-10.26C146.47,78.79,147.22,77.38,148.16,76.11Z"/>
        <path class="cls-8" d="M123.15,96.42c.92-1.31,1.8-2.65,2.82-3.89a21.59,21.59,0,0,1,1.19,2.29c1.26,2.93,2.83,5.69,4.09,8.62a108,108,0,0,0-11.07,4.9,70.6,70.6,0,0,0,8.61,4.09c2.65,1,5.49,1.22,8.23,1.82l0,.12c-2.09,0-4.18,0-6.27,0-2.92-.08-5.8-.74-8.72-.83l-.83-.23a64.87,64.87,0,0,0-2.15-7.12,5.9,5.9,0,0,1-.54-2.69A61.87,61.87,0,0,1,123.15,96.42Z"/>
        <path class="cls-8" d="M94.36,109.93a7,7,0,0,1,7.77-2.56,15.83,15.83,0,0,1-1.3,2.4c-.41.07-.82.14-1.22.24a5.88,5.88,0,0,0-1.86,1.41,7.12,7.12,0,0,0,1.58.91,2.37,2.37,0,0,0,2.44-1,2.38,2.38,0,0,1,1.18-.47c1.24-.16,2.5-.2,3.75-.28.54.66,1,1.36,1.52,2.06-.44,1.24-1,2.43-1.31,3.71s-.49,2.33-.85,3.47c-.59,1.72-1.77,3.15-2.37,4.87-.28.78-.54,1.57-.89,2.32-1,2.18-1.77,4.49-2.74,6.71l-.06-.11c-.31-2.63-.67-5.24-1-7.87a20.34,20.34,0,0,1-.33-4.34c.48-2.14.21-4.35.5-6.51a10.94,10.94,0,0,0,0-2.06c-.63,2.35-1.25,4.7-2,7a7.34,7.34,0,0,1-2.65-2.25A10.84,10.84,0,0,0,95.62,116a3,3,0,0,0-.22-2.8,6,6,0,0,0-3.07-1.39A5.82,5.82,0,0,0,94.36,109.93Z"/>
        <path class="cls-8" d="M99.46,110.87l.58-.39,1,.9C100.47,111.83,99.88,111.37,99.46,110.87Z"/>
        <path class="cls-8" d="M106.7,120.72a5.84,5.84,0,0,1,2-1.77c.19,4.13.62,8.24.84,12.36a16.61,16.61,0,0,0,.5,4.93,50.18,50.18,0,0,0,3.38,5.11c3.11,5,6.67,9.62,10,14.44a11.41,11.41,0,0,0,2.88,3.33,3.44,3.44,0,0,0,3.71,3.24,26,26,0,0,1,1.94,4.38,52.24,52.24,0,0,1,2.38,6.66,36.18,36.18,0,0,1-8-2.05,14.21,14.21,0,0,1-5.49-6.63c.34-.53.72-1,1.1-1.5a20.13,20.13,0,0,0-3.46-1.17,2.78,2.78,0,0,1-1.19-.65c-.82-.8-1.58-1.66-2.37-2.48s-1.86-1.66-2.62-2.67c-1-1.24-2.12-2.25-3.18-3.39a8.68,8.68,0,0,1-1.67-2.09c-.59-2.43-1.23-4.86-2-7.23-.63-1.73-1.09-3.54-1.88-5.21.28-4.57,1.82-8.91,2.46-13.43A34.89,34.89,0,0,1,106.7,120.72Zm15.69,42.77a2.39,2.39,0,0,0-1.1,1.77,3.19,3.19,0,0,1,1.51.89c.33.44.57.94.88,1.39a7.48,7.48,0,0,0,.58-2.18A2.08,2.08,0,0,0,122.39,163.49Z"/>
        <path class="cls-8" d="M84.58,140c.61-.2,1.21-.41,1.82-.63a17.42,17.42,0,0,0-.58,3.44c-.23,1.8-.36,3.61-.41,5.42a11.6,11.6,0,0,0,.07,3.81c1,3.34,1.92,6.69,3,10l-.16.08c-.93-1.3-1.62-2.77-2.51-4.12-1.59-2.76-3.18-5.52-4.63-8.37a21.28,21.28,0,0,1-1.16-3.31,52.37,52.37,0,0,1-1.49-5.06A51.38,51.38,0,0,0,84.58,140Z"/>
        <path class="cls-8" d="M156.51,152.46c2.11-2.92,4.16-5.9,6.53-8.6-.32,1.22-.44,2.49-.69,3.73-1.31,6.1-2.46,12.23-3.83,18.32a29.2,29.2,0,0,1-1.71,6.2c-.48-5.86-.92-11.72-1.18-17.59A3.19,3.19,0,0,1,156.51,152.46Z"/>
        <path class="cls-8" d="M143.55,167.52c.45-1.86,1-3.71,1.45-5.56a34.2,34.2,0,0,0,2.13,5.5,48.09,48.09,0,0,0,3.12,4.59l-.54-.42c-2.51,1.2-4.91,2.62-7.45,3.74l-.23.07a22.73,22.73,0,0,0-3.23,1.35,40.55,40.55,0,0,0-4.52,1.62c0-.72,0-1.44.05-2.16a11.14,11.14,0,0,1,.53-3.6c.74-1.64,1.25-3.37,2-5a86.61,86.61,0,0,0,4.88,7.44C142.42,172.59,143,170.07,143.55,167.52Z"/>
        <path class="cls-8" d="M127,178.27c.62-1.45,1.13-2.94,1.85-4.33a78.17,78.17,0,0,1-.3,10.71,37.17,37.17,0,0,0-.41,4.82c.59-.89.93-1.92,1.48-2.83,1.48-2.47,2.78-5.07,4.43-7.43-.4,4-1,7.92-1.52,11.86-.74.92-1.56,1.77-2.36,2.62-.73-1.21-1.29-2.51-2-3.74l-.08-.16-.47.31c-2.72,1.72-5.25,3.74-8,5.46a21.67,21.67,0,0,0,2.18-4.49c.13-.36.28-.71.42-1.06C123.72,186.05,125.28,182.13,127,178.27Z"/>
        <path class="cls-8" d="M59.12,195.67s-.48,0-1.17.05c2.9-1.9,5.79-3.81,8.72-5.67l3.34.44s3.9.55,5.85.8a28.19,28.19,0,0,0,5.32.56,3.26,3.26,0,0,1-1.54.66c-6.83,1.1-13.69,2-20.52,3.16"/>
      </g>
      <g>
        <path class="cls-9" d="M156.51,100.34l.35.2q1.71,1.71,3.53,3.27a20.09,20.09,0,0,1-2.13,2c-2.07,1.57-3.83,3.52-5.75,5.27l-.41.34c-2-.25-4-.83-6-.9a28.12,28.12,0,0,1-3.18-.36c-2.3-.39-4.64-.42-6.94-.79,2.48-1.24,5-2.42,7.57-3.45,3.4-1.59,6.93-2.84,10.37-4.3C154.75,101.2,155.61,100.72,156.51,100.34Z"/>
        <path class="cls-9" d="M131.25,103.44c1.46.36,2.95.6,4.4,1a21.7,21.7,0,0,0-.52,5c.41,1.2,1.48,2,1.88,3.24a13.71,13.71,0,0,1,0,1.57c-2.74-.6-5.58-.82-8.23-1.82a70.6,70.6,0,0,1-8.61-4.09A108,108,0,0,1,131.25,103.44Z"/>
        <path class="cls-9" d="M102.13,107.37a11.39,11.39,0,0,1,2.26,1.19,12.14,12.14,0,0,1,2.31,2.06c-1.25.08-2.51.12-3.75.28a2.38,2.38,0,0,0-1.18.47l-.08-.26a1.55,1.55,0,0,0-1.14-1,7.32,7.32,0,0,0-.94-.12c.4-.1.81-.17,1.22-.24A15.83,15.83,0,0,0,102.13,107.37Z"/>
        <path class="cls-9" d="M108.22,112.68c1.48,2.17,1.85,5.08,3.79,6.92.35,1.33,1,2.55,1.28,3.92.33,1.76,1,3.44,1.44,5.17a24.11,24.11,0,0,0,1.72,4.71,23.37,23.37,0,0,0,2,3.09c.85,1.06,1.54,2.25,2.38,3.33,2.32,3.25,5.06,6.12,7.46,9.29,1.33,1.5,2.11,3.41,3.26,5,.62.86,1.93.33,2.55,1.2a3.13,3.13,0,0,1,.72,2.71,8,8,0,0,0-1.86-2.6c-1.18-.64-2.47.07-3.7,0-.48,0-1.06-.14-1.43.27a8.84,8.84,0,0,0-1.57,1.83,6.19,6.19,0,0,0,0,1.55,11.41,11.41,0,0,1-2.88-3.33c-3.32-4.82-6.88-9.46-10-14.44a50.18,50.18,0,0,1-3.38-5.11,16.61,16.61,0,0,1-.5-4.93c-.22-4.12-.65-8.23-.84-12.36a5.84,5.84,0,0,0-2,1.77,34.89,34.89,0,0,0-.76,4.18c-.64,4.52-2.18,8.86-2.46,13.43-1.07-1.57-2.33-3-3.42-4.57,1-2.22,1.72-4.53,2.74-6.71.35-.75.61-1.54.89-2.32.6-1.72,1.78-3.15,2.37-4.87.36-1.14.54-2.32.85-3.47S107.78,113.92,108.22,112.68Z"/>
        <path class="cls-9" d="M99.19,112.87a10.94,10.94,0,0,1,0,2.06c-.29,2.16,0,4.37-.5,6.51a2.72,2.72,0,0,0-1.45-1.56C97.94,117.57,98.56,115.22,99.19,112.87Z"/>
        <path class="cls-9" d="M122.06,113.51c2.92.09,5.8.75,8.72.83,2.09,0,4.18.08,6.27,0,.33,1.42.79,2.8,1.07,4.24.1.37-.17.7-.32,1-.56.91-1,1.9-1.5,2.85a23.51,23.51,0,0,1-2.8-1.6c-1.56-1-3.09-2-4.66-2.88-.94-.53-1.91-1-2.8-1.62A23.73,23.73,0,0,1,122.06,113.51Z"/>
        <path class="cls-9" d="M117.43,121.38a27.09,27.09,0,0,0,3-3.58,80.32,80.32,0,0,0,2.12,8.52,6.41,6.41,0,0,0,2.25,2.82c.83.72,1.52,1.58,2.32,2.33a12,12,0,0,1,2.59,2.49c.78,1.34,1.54,2.7,2.4,4,1,1.39,2.61,2.23,3.7,3.59a43.33,43.33,0,0,1-6.42-3.55c-1.1-.63-2.19-1.32-3.26-2-1.87-1.23-3.88-2.21-5.7-3.53-1-1-1.3-2.55-2-3.82C117.34,126.39,117.87,123.78,117.43,121.38Z"/>
        <path class="cls-9" d="M136.54,123a24,24,0,0,1,3.73,1.77,59.27,59.27,0,0,0,6.52,2.92,46.66,46.66,0,0,0,6.09,2.3H153a73.91,73.91,0,0,0,5.81,6.43c-2.48.65-5,1-7.5,1.59l-.2.05c-2.12-2.17-4.71-3.85-6.58-6.29-2.05-2.18-4.14-4.31-6.06-6.62A28.32,28.32,0,0,1,136.54,123Z"/>
        <path class="cls-9" d="M86.4,139.38c3.22-1.2,6.36-2.63,9.55-3.91,1.28,2.51,2.61,5,4.07,7.39a11.84,11.84,0,0,0,1.62,2.64c1.39,1.42,2.74,2.88,4.18,4.26a3,3,0,0,0,1.56,1,8.68,8.68,0,0,0,1.67,2.09c1.06,1.14,2.23,2.15,3.18,3.39.76,1,1.78,1.75,2.62,2.67s1.55,1.68,2.37,2.48a2.78,2.78,0,0,0,1.19.65,3.76,3.76,0,0,0-2,1.53c-.4-.25-.81-.48-1.2-.75-2.27-3.11-4.36-6.35-6.47-9.58a14.35,14.35,0,0,0-1.15-1.62c-.07,4.38-.5,8.74-.64,13.12-1.07.68-2.16,1.33-3.22,2l-.14-.1c-.78-.57-1.61-1.08-2.37-1.68a36.34,36.34,0,0,1,2.42-5.62c1.11-2.76,2.74-5.25,3.71-8.07a34.87,34.87,0,0,0-5.6-1.53,39.34,39.34,0,0,1-4.88-1.39c-2.4-1.52-4.39-3.63-6.69-5.3a24,24,0,0,1-3.62-3.37c.64,2.43,1.76,4.68,2.61,7s2.83,4.12,3.68,6.52c1.48,3,2.83,6,4.43,8.9l-1.06.45c-1.18.52-2.38,1-3.57,1.48-1.37-.67-2.71-1.42-4.1-2-1.11-3.28-2.07-6.63-3-10a11.6,11.6,0,0,1-.07-3.81c0-1.81.18-3.62.41-5.42A17.42,17.42,0,0,1,86.4,139.38Z"/>
        <path class="cls-9" d="M78.32,141.29l.24,0a52.37,52.37,0,0,0,1.49,5.06,21.28,21.28,0,0,0,1.16,3.31c1.45,2.85,3,5.61,4.63,8.37.89,1.35,1.58,2.82,2.51,4.12-.87.42-1.76.82-2.62,1.27l-1.48-.82c-.67.59-1.31,1.21-2,1.8a8.28,8.28,0,0,1-2.63-1.17c-.49-.43-1-.88-1.42-1.34-.92-1-1.8-2-2.76-3-.1-3.48.06-7,.29-10.43a24.72,24.72,0,0,1,1.31-3.41A22.44,22.44,0,0,0,78.32,141.29Z"/>
        <path class="cls-9" d="M73,142.32c.73-.76,1.83-.47,2.75-.56-1,1.84-2.13,3.55-3.12,5.37a16.27,16.27,0,0,0-1.79,3.56c-.63,2.33-1,4.72-1.45,7.11a24.36,24.36,0,0,0-.49,2.94c-.92.66-2,1.13-2.88,1.77-.7.49-1.41,1-2.13,1.42-.5-2.21-.93-4.43-1.37-6.66-.43-1.39-1.25-2.61-1.68-4s-.19-2.64-.64-3.88a15.28,15.28,0,0,1,1.85-2.3,32.06,32.06,0,0,1,2.79-2.8c-.41,1.53-1.16,2.93-1.61,4.45a17.75,17.75,0,0,0-.5,4.48c0,1.17-.11,2.33-.11,3.5,1.4-2.13,2.06-4.67,3.3-6.89.84-1.18,2-2.08,2.92-3.19C70.23,145.19,71.61,143.75,73,142.32Z"/>
        <path class="cls-9" d="M130,162.36a20.81,20.81,0,0,0,3.3-.69,56.86,56.86,0,0,1,3.62,6c-.8,1.61-1.31,3.34-2,5a11.14,11.14,0,0,0-.53,3.6c0-.95,0-1.9,0-2.85a52.24,52.24,0,0,0-2.38-6.66A26,26,0,0,0,130,162.36Z"/>
        <path class="cls-9" d="M128.79,173.62a14.29,14.29,0,0,1,2.21,1.91,37.57,37.57,0,0,0,3.11,2.95l.17-.07a40.55,40.55,0,0,1,4.52-1.62c1.18,2.09,2.28,4.25,3.6,6.26,1.19,1.8,2.18,3.74,3.42,5.5l.11.14c-1.33,1.57-2.62,3.19-4,4.74l0,.06c-1-.28-2-.59-3.08-.88a12.36,12.36,0,0,0-2,1.62c-1.48-1-2.84-2.19-4.35-3.16.57-3.94,1.12-7.89,1.52-11.86-1.65,2.36-3,5-4.43,7.43-.55.91-.89,1.94-1.48,2.83a37.17,37.17,0,0,1,.41-4.82,78.17,78.17,0,0,0,.3-10.71C128.81,173.86,128.8,173.7,128.79,173.62Z"/>
        <path class="cls-9" d="M142,175.44l.23-.07c3.57,1.25,7.26,2,10.88,3.1,1.22.3,2.46.56,3.69.86a8.81,8.81,0,0,0,3,.38,7.37,7.37,0,0,1,1,.45l0,.13a25,25,0,0,0-.92,3.5c-1.89.86-3.79,1.74-5.6,2.79C150.34,182.79,146,179.33,142,175.44Z"/>
      </g>
      <path class="cls-10" d="M100,110.48l.51-.35a1.55,1.55,0,0,1,1.14,1l-.6.27Z"/>
      <path class="cls-11" d="M91.18,113.73A3,3,0,0,1,93,112.67c0,.15,0,.44,0,.59C92.42,113.43,91.81,113.6,91.18,113.73Z"/>
      <g>
        <path class="cls-12" d="M88.71,115.66a10.53,10.53,0,0,1,5.37-2.31,1.46,1.46,0,0,1,.92.1c-1.21.86-2.76.64-4.06,1.27,1.53.54,3,1.59,4.68,1.32a10.84,10.84,0,0,1-1.08,1.59,10.27,10.27,0,0,1-2.47-.89C91,116.16,89.79,116.17,88.71,115.66Z"/>
        <path class="cls-12" d="M151.08,138.28c1.87,2.18,3.6,4.48,5.39,6.74-2.21-.43-4.38-1-6.56-1.53C150.27,141.74,150.75,140,151.08,138.28Z"/>
        <path class="cls-12" d="M57.12,154.34l.5-.43c-.07,3-.31,5.89-.45,8.83l0,.09,0,.06a6.14,6.14,0,0,1-4.74,0c1-1.65,1.83-3.41,2.83-5.07C55.8,156.64,56.59,155.57,57.12,154.34Z"/>
        <path class="cls-12" d="M120,166.56c2.05,1.75,4,3.62,6.22,5.18l2.15,1.61c-1.28.11-2.55.3-3.82.5-.88-.68-1.87-1.17-2.76-1.81a31.28,31.28,0,0,0-3.18-2.11,14.67,14.67,0,0,1,3-.24,4.79,4.79,0,0,1-1.5-1.75A5.79,5.79,0,0,1,120,166.56Z"/>
      </g>
      <g>
        <path class="cls-13" d="M135.05,142.55a13.27,13.27,0,0,1,2.82,1.29c.47.24.61.82.83,1.28.7,1.69,1.36,3.41,2.18,5l-1,.12c-.93-1.64-2-3.22-3-4.79A30.87,30.87,0,0,1,135.05,142.55Z"/>
        <path class="cls-13" d="M120,166.56a6.74,6.74,0,0,1,.81-1.84,14.21,14.21,0,0,0,5.49,6.63l-.08.39C124,170.18,122,168.31,120,166.56Z"/>
      </g>
      <g>
        <path class="cls-14" d="M155.41,149.87l.36.35a8.85,8.85,0,0,1-4.31,4.1c-.9-.61-1.9-1-2.78-1.71-1.23-.91-2.61-1.58-3.83-2.5l.2,0c.88,0,1.76.17,2.65.13A76.36,76.36,0,0,0,155.41,149.87Z"/>
        <path class="cls-14" d="M143,150.52c.92.87,1.65,1.93,2.53,2.84s1.72,1.81,2.56,2.75a6.46,6.46,0,0,0,1.88,1.77c-1.28,1.68-3,3.49-5.21,3.26l0,.27c-.08-.17-.16-.33-.23-.49C144.16,157.43,143.32,154,143,150.52Z"/>
      </g>
      <path class="cls-15" d="M115,167.86a3.77,3.77,0,0,1,.52-3,10.05,10.05,0,0,0,1.24,4.77C115.89,169.39,115.46,168.54,115,167.86Z"/>
      <path class="cls-16" d="M159.51,170.65l0,0Z"/>
      <path class="cls-17" d="M40,173.43l0,0Z"/>
      <g>
        <path class="cls-18" d="M161,180.29a12.5,12.5,0,0,1,2.62.59c1.48.42,3,.76,4.43,1.25.49.12.6.68.76,1.11a4.64,4.64,0,0,1,.26,2.44.6.6,0,0,1-1,.24c-.91-.58-1.75-1.29-2.62-1.94C164,182.74,162.46,181.61,161,180.29Z"/>
        <path class="cls-18" d="M160.26,184.11c2.43,1.65,4.7,3.56,7.22,5.06l.5-.16c0,1.06.07,2.13,0,3.19a4.68,4.68,0,0,1-2.53,3.18c-.92-1-1.1-2.44-1.92-3.49a11.5,11.5,0,0,0-1-2.84C161.82,187.37,160.93,185.8,160.26,184.11Z"/>
      </g>
      <text class="cls-19" transform="translate(226.86 139.74) scale(0.83 1)">S<tspan class="cls-20" x="98.98" y="0">C</tspan><tspan class="cls-8" x="211.99" y="0">M</tspan><tspan class="cls-21" x="350.32" y="0">U</tspan><tspan class="cls-9" x="463.33" y="0">N</tspan></text>
      <text class="cls-22" transform="translate(228.29 184.45) scale(0.69 1)">S<tspan class="cls-23" x="28.72" y="0">o</tspan><tspan class="cls-24" x="54.11" y="0">u</tspan><tspan class="cls-25" x="78.69" y="0">t</tspan><tspan class="cls-26" x="92.4" y="0">h</tspan><tspan class="cls-27" x="116.97" y="0"> </tspan><tspan class="cls-28" x="129.01" y="0">C</tspan><tspan class="cls-29" x="161.07" y="0">h</tspan><tspan class="cls-30" x="185.65" y="0">i</tspan><tspan class="cls-31" x="195.16" y="0">n</tspan><tspan class="cls-32" x="219.74" y="0">a</tspan><tspan class="cls-27" x="243.46" y="0"> </tspan><tspan class="cls-33" x="255.5" y="0">M</tspan><tspan class="cls-34" x="295.09" y="0">o</tspan><tspan class="cls-35" x="320.48" y="0">d</tspan><tspan class="cls-36" x="346.72" y="0">e</tspan><tspan class="cls-37" x="370.44" y="0">l</tspan><tspan class="cls-27" x="379.96" y="0"> </tspan><tspan class="cls-38" x="392" y="0">U</tspan><tspan class="cls-39" x="424.06" y="0">n</tspan><tspan class="cls-40" x="448.63" y="0">i</tspan><tspan class="cls-41" x="458.15" y="0">t</tspan><tspan class="cls-42" x="471.85" y="0">e</tspan><tspan class="cls-43" x="495.57" y="0">d</tspan><tspan class="cls-44" x="521.82" y="0"> </tspan><tspan class="cls-45" x="533.86" y="0">N</tspan><tspan class="cls-46" x="565.92" y="0">a</tspan><tspan class="cls-47" x="589.64" y="0">t</tspan><tspan class="cls-48" x="603.35" y="0">i</tspan><tspan class="cls-49" x="612.86" y="0">o</tspan><tspan class="cls-50" x="638.25" y="0">n</tspan><tspan class="cls-51" x="662.82" y="0">s</tspan></text>
      <text class="cls-52" transform="translate(719.68 184.47) scale(0.8 1)">V<tspan class="cls-4" x="128.72" y="0">I</tspan><tspan class="cls-53" x="185.76" y="0">I</tspan><tspan class="cls-54" x="242.8" y="0">I</tspan></text>
    </g>
  </g>
</svg>
