<?xml version="1.0" encoding="utf-8"?>
<!-- Generator: Adobe Illustrator 23.0.3, SVG Export Plug-In . SVG Version: 6.00 Build 0)  -->
<svg version="1.1" id="Layer_1" xmlns="http://www.w3.org/2000/svg" xmlns:xlink="http://www.w3.org/1999/xlink" x="0px" y="0px"
	 viewBox="0 0 1040 1040" style="enable-background:new 0 0 1040 1040;" xml:space="preserve">
<style type="text/css">
	.st0{fill:#60A6E0;}
	.st1{fill:#96C8F0;}
	.st2{fill:#95C8F0;}
	.st3{fill:#F1CFAA;}
	.st4{fill:#E5A567;}
	.st5{fill:#60A6E1;}
	.st6{fill:#EBBB8D;}
	.st7{fill:#97C8F0;}
	.st8{fill:#79BBEF;}
	.st9{fill:#A2D0F4;}
	.st10{fill:#F5CDA5;}
	.st11{fill:#E4A567;}
	.st12{fill:#78BAEF;}
	.st13{fill:#ECBC8C;}
	.st14{fill:#96C9F1;}
	.st15{fill:#788792;}
	.st16{fill:#8193A3;}
	.st17{fill:#EBBC8E;}
	.st18{fill:#2E3133;}
</style>
<g>
	<path class="st0" d="M596.25,77.99c8.8-3.65,17.25-8.16,25.98-11.89c6.44,1.23,12.63,3.61,18.92,5.52
		c14.05,4.72,28.63,8.79,41.19,17.15c1.16,0.85,2.41,1.59,3.69,2.27c5.56,3.91,11.63,6.89,17.3,10.62c3.06,1.94,5.9,4.25,9.08,6.02
		c-0.86-1.46-1.75-2.89-2.75-4.25c-4.76-7.07-11.79-11.94-17.34-18.28c-5.07-5.88-11.51-10.23-16.5-16.18
		c0.7,0.12,2.1,0.35,2.8,0.47c7.1,3.45,14.03,7.33,20.95,11.17c1.86,1.2,4.12,2.17,5.21,4.28c3.6,8.14,6.4,16.87,11.75,24.01
		c8.65,4.75,17.42,9.36,26.36,13.55l-0.24-0.98c-4.15-12.07-10.99-23.03-15.05-35.15c4.94,3.7,8.69,9.01,12.68,13.78
		c3.7,4.43,2.52,10.61,3.78,15.9c0.97,3.81,1.89,8.23,5.47,10.32c8.04,5.32,16.32,10.28,24.65,15.1c-0.48-0.96-0.91-1.93-1.3-2.91
		c-1.71-6.08-5.16-11.37-8.08-16.86c-3.58-5.97-6.5-12.32-9.81-18.45c6.68,4.74,11.94,11.34,17.6,17.28
		c1.09,6.4,0.24,13.4,3.64,19.2c3.81,7.03,10.72,11.31,16.45,16.48c4.47,3.6,8.72,7.52,13.51,10.66c-0.58-3.4-1.05-6.86-2.24-10.09
		c-3.7-7.12-9.45-12.72-14.46-18.81c-2.94-3.63-6.3-6.85-9.55-10.17c-0.02-0.02-0.06-0.06-0.08-0.09l-0.75-1.02
		c2.14-0.12,3.8,1.4,5.57,2.42c5.28,3.42,10.67,6.69,15.69,10.51c1.83,1.29,2.19,3.69,2.72,5.76c1.74,8.35,4.87,16.28,7.52,24.34
		c1.22,3.99,4.13,6.98,6.9,9.85c9.81,10.22,19.33,20.77,29.48,30.63c-0.46-1.55-0.92-3.07-1.33-4.62c-0.66-2.62-1.44-5.22-2.52-7.68
		c-5.62-13.08-11.77-25.89-17.26-39.03c-2.11-5.24-5.14-10.12-6.27-15.75c7.95,8.19,14.9,17.41,22.03,26.38
		c1.89,2.79,4.81,5.26,4.9,8.94c0.8,9.2,0.19,18.59,2.31,27.64c1.58,6.31,3.42,12.77,7.4,17.95c4.87,6.62,9.33,13.61,14.78,19.74
		c-0.3-1.65-0.58-3.31-0.84-4.96c0.59-13.8-0.45-27.59-1.04-41.38c-0.09-5.36-1.18-10.78-0.12-16.11
		c4.95,11.21,9.02,22.84,13.06,34.43c-1.8,6.11-5.46,11.52-7.02,17.74c-0.63,4.95-0.81,10.2,0.96,14.94
		c3.04,9.14,8.38,17.12,12.96,25.45c1.38,2.19,2.35,4.79,4.37,6.45l1.31,0.21c5.58-10.97,8.06-23.23,10.98-35.16
		c1.37-5.93,3.58-11.68,3.98-17.82l0.03-0.28c0.45-0.38,1.37-1.13,1.82-1.5c0.97,10.54,1.04,21.16,1.12,31.74
		c-0.06,3.17,0.18,6.65-1.7,9.36c-4.81,6.76-10.06,13.52-12.83,21.52c0.85,2.61,2.42,4.88,3.7,7.27
		c7.52,13.05,11.17,28.02,17.78,41.51c0.74-2.46,1.32-4.97,1.86-7.49c1.08-6.72,3.3-13.29,3.31-20.16
		c0.12-12.44,1.66-24.79,2.14-37.2c4.26,10.9,6.77,22.45,10.92,33.4c-4.24,8.31-10.01,15.8-13.17,24.68
		c-1.97,5.78-1.68,12.04-1.51,18.07c1.93,7.37,4.42,14.59,6.53,21.91c1,2.9,1.49,6.21,3.67,8.46c2.07-5.38,4.92-10.51,6.16-16.2
		c3.09-10.86,7.74-21.13,10.75-32.01c2.85-10.08,7.23-19.59,10.01-29.69c0.94,10.17,0.53,20.4-0.02,30.58
		c-0.43,3.81-0.18,8.03-2.3,11.37c-4.09,6.61-9.43,12.28-13.4,18.98c-1.88,3.77-3.18,7.83-4.78,11.74
		c-1.75,4.84-3.85,9.71-4.12,14.94c1.09,7.12,3.89,13.8,5.46,20.81c0.95,2.94,0.74,6.34,2.58,8.91c4.04-14.53,5.46-29.72,8.66-44.45
		c2.37-3.48,6.02-5.71,9.09-8.46c5.63-4.4,10.76-9.46,16.59-13.57c-0.07,0.5-0.2,1.51-0.26,2.01
		c-11.05,18.77-18.62,39.47-28.68,58.8c-2.19,4.1-3.49,8.65-3.92,13.33l0.13-0.14c-1.28,4.56,0.46,9.19,0.9,13.75
		c1.79,10.37,2.62,20.89,4.14,31.29c2.58-8.29,4.5-16.79,6.25-25.31c0.52-2.21,0.85-4.75,2.71-6.23c7.89-7.08,15.5-14.62,24.34-20.4
		c-0.08,0.45-0.23,1.34-0.31,1.79c-10,17.43-17.56,36.21-26.7,54.13c-1.71,4.1-4.95,8.16-3.89,12.91
		c1.31,15.91,0.58,31.9,0.14,47.83c-0.05,1.47,0.05,2.95,0.25,4.42c4.15-11.22,5.47-23.3,9.03-34.7c3.72-5.09,8.91-8.76,13.54-12.9
		c2.69-2.02,5.09-4.82,8.16-6.07c0.6,2.11-0.67,4.14-1.53,5.97c-9.2,15.86-16.91,32.63-26.57,48.22c-1.71,2.53-2.97,5.4-2.96,8.55
		c-1.79,13.09-3.61,26.23-6.33,39.15l-0.97,1.43c2.19-0.2,4.58-0.21,6.41-1.7c9.88-7.71,18.53-16.94,27.79-25.42
		c9.37-9.42,19.31-18.21,28.4-27.94c0.38-0.08,1.15-0.22,1.52-0.3c-0.95,4.02-3.61,7.2-5.58,10.7
		c-6.68,11.35-12.78,23.08-19.9,34.15c-1.7,2.47-2.96,5.67-5.95,6.71c-11.22,4.64-23.02,7.68-34.19,12.47
		c-2.58,4.44-2.86,9.92-5.35,14.38c-5.13,6.45-9.8,13.32-15.15,19.56c-2.33,2.07-4.34,4.49-5.95,7.2c5.02,0.11,9.66-2,14.32-3.66
		c16.7-5.29,32.83-12.34,49.61-17.42c8.6-2.51,16.91-5.91,25.39-8.8c-2.13,2.6-5.08,4.19-7.66,6.21
		c-10.07,7.54-20.12,15.1-30.29,22.46c-4.26,2.89-8.22,6.5-13.06,8.25c-13.59-0.33-27.12-1.94-40.66-3.04
		c-5.99,7.7-11.92,15.45-17.35,23.59c-5.49,7.84-10.33,16.18-16.3,23.63c-1.35,1.53-2.49,3.24-3.57,4.98
		c11.78-2.52,23.2-6.6,34.76-10.07c20.04-5.61,39.74-12.44,59.8-17.99c0.57-0.02,1.71-0.06,2.27-0.09
		c-4.07,4.29-9.55,6.73-14.34,10.04c-14.39,8.2-27.77,18.16-42.06,26.55c-12.72-2.06-25.56-3.15-38.34-4.55
		c-3.02-0.75-5.04,1.98-6.62,4.17c-7.6,10.58-16.51,20.03-24.5,30.28c-3.73,4.64-7.28,9.44-11.14,13.95
		c-2.81,2.32-5.01,5.28-6.91,8.43c21.93-4.75,43.71-10.23,65.5-15.67c12.77-3.64,25.8-6.13,38.5-10.07
		c-6.21,5.25-13.6,8.63-20.39,12.94c-11.75,7.05-23.31,14.46-35.1,21.47c-2.38,1.52-5.23,2.22-7.98,1.77
		c-11.84-1.47-23.41-4.48-35.14-6.57c-3.47-0.54-7.62-0.91-10.37,1.85c-14.26,13.5-28.82,26.66-43.15,40.08
		c-4.65,4.24-9.68,7.99-14.71,11.71l0.77,0.13c14.15,2.31,28.24-1.33,42.28-2.79c8.54-0.93,16.87-3.24,25.4-4.25
		c21.95-4.29,44.12-7.13,66.13-11.06c3.19-0.72,6.46-1.61,9.74-0.8c-7.12,3.91-14.9,6.33-22.19,9.92
		c-18.07,7.68-35.48,16.99-53.49,24.83c-5.58,0.08-11.1-1.84-16.63-2.71c-12.87-3.01-25.95-4.82-38.92-7.37
		c-6.65-1.43-13.54-0.64-20.02,1.26c-5.56,1.62-9.79,5.97-13.7,10.16c8.45,5.92,17.23,11.32,26.11,16.53
		c-4.73,0.79-9.36-0.9-13.96-1.74c-5.72-1.41-11.48-2.58-17.19-3.97c-16.79-5.04-33.96-8.55-50.56-14.29
		c11.81-5.16,22.98-11.72,34.62-17.28c0.84,0.62,1.72,1.26,2.55,1.94c4.79,5.61,10.21,10.62,15.91,15.21
		c4.97-4.29,9.97-8.57,14.72-13.12c-0.04-0.45-0.1-1.35-0.13-1.81c4.23-8.94,5.77-18.96,7.94-28.6
		c6.35-28.08,11.68-56.39,17.78-84.53c1.15-5.72,1.73-11.55,3.22-17.18c0.25-0.47,0.77-1.4,1.03-1.87c0.74,1.54,1.03,3.24,1.04,4.98
		c1.26,25.69,3.23,51.37,5.1,77c-10.09,16.73-22.42,31.96-31.73,49.2c2.89-1.64,5.58-3.62,8.17-5.72c0.04-0.03,0.11-0.09,0.15-0.12
		c4.52-3.54,8.98-7.19,13.01-11.33c3.36-3.44,4.24-8.46,5.9-12.86c3.09-9.78,6.66-19.46,8.54-29.59
		c11.2-21.98,20.14-45.12,30.69-67.44c4.51-9.41,8.72-18.97,12.44-28.75l0.79-0.86c-0.31,14.64-2.83,29.14-5.19,43.54
		c-1.82,7.85-2.43,16.16-5.99,23.45c-6.5,6.8-13.68,12.9-20.17,19.73c-3.14,3.47-7.13,6.54-8.34,11.4
		c-3.4,10.81-7.48,21.44-9.76,32.59c7.65-5.82,14.43-12.81,21.51-19.37c9.72-8.89,17.87-19.38,26.3-29.55
		c3.03-3.83,6.37-7.39,9.18-11.4c4.6-7.04,4.97-15.87,5.15-24.09c3.43-13.27,7.31-26.42,10.25-39.83c2.8-13.18,6.2-26.21,9.5-39.26
		c0.7-2.68,1.1-5.43,1.43-8.17l0.13-1.01c1.71,1.31,1.49,3.67,1.67,5.63c0.66,15.97,0.36,31.96,0.97,47.92
		c-0.01,1.51,0.33,3.22-0.63,4.53c-5.05,7.64-10.78,14.78-15.6,22.58c-4.57,6.26-3.27,14.6-5.02,21.86
		c8.51-9.01,15.02-19.73,21.97-30.02c5.64-8.46,11.22-16.95,16.77-25.46c0.62-1.09,1.45-2.11,1.73-3.36
		c1.06-6.8,0.62-13.76,1.19-20.58c2.64-4.19,2.58-9.22,2.53-14.03c0.62,4.93,0.01,9.98,1.36,14.82c0.35,4.5-0.17,9.02,0.16,13.53
		c4.86-5.13,8.58-11.25,12.94-16.81c2.05-2.71,4.17-5.6,4.63-9.11c1.02-6.99,0.59-14.09,1.1-21.12c0.17-5.36,1.27-10.73,0.58-16.1
		c-0.7-5.76-3.95-10.64-6.65-15.54c-4.66-7.94-9.34-15.89-13.3-24.24c3.33-11.12,5.73-22.5,8.34-33.81
		c2.64,11.21,4.05,22.69,6.79,33.88c2.1,8.7,3.74,17.51,5.61,26.26c1.18,4.61,1.67,9.55,4.26,13.61c-0.44,5.03-1.54,9.99-2.01,15.03
		c-0.86,5.7-0.09,11.48,0.87,17.11c3.29-2.89,5.9-6.55,8.32-10.22c2.63-8.2,5.09-16.49,7.18-24.87c2.35-9.15,3.06-18.62,4.71-27.91
		c0.52-4.04,1.82-8.3,0.3-12.27c-2.95-8.2-7.71-15.59-13.05-22.28c-7.39-8.61-14.25-17.68-21.63-26.3
		c0.65-11.23-0.19-22.53,1.02-33.72c0.3,0.29,0.91,0.86,1.22,1.15c2.1,6.79,5.42,13.05,8.02,19.64c2.47,6.16,5.34,12.14,8.37,18.03
		c5.22,10.32,8.54,21.61,14.42,31.58c0.69,1.29,1.62,2.44,2.74,3.39c0.26-9.78,0.47-19.56,0.36-29.35
		c-0.13-6.2,0.17-12.59-2.06-18.47c-2.86-10.19-10.48-17.62-16.83-25.51c-6.33-7.46-12.74-14.86-19.37-22.03
		c-2.01-2.19-4.17-4.63-4.24-7.84c-0.79-10.64-1.12-21.33-1.34-31.98l0.71,0.75c3.82,5.76,6.09,12.44,9.25,18.6
		c6.41,14.65,13.55,28.93,20.45,43.33c0.81,1.32,1.74,4.08,3.8,2.53l0.11-0.03c0.83,3.74,3.8,6.29,6.36,8.8
		c-0.37-10.73-2.43-21.3-3.78-31.93c-1.38-8.36-2.19-16.89-4.42-25.06c-3.41-4.75-7.82-8.69-11.17-13.49
		c-2.16-5.95-6.1-10.91-8.98-16.45c-5.27-8.6-9.86-17.62-15.44-26c-3.71-6.07-7.53-12.09-10.68-18.5c-0.05-0.38-0.14-1.15-0.19-1.54
		c11.33,10.22,22.41,20.76,33.04,31.76c0.8,7.75,1.4,15.57,3.14,23.17c1.22,5.78,5.11,10.45,9.33,14.19
		c-1.04-5.17-2.69-10.16-4.15-15.2c-3.56-11.97-6.56-24.12-10.41-35.99c-2.75-9.86-8.15-19.01-15.84-25.47
		c-6.08-8.21-14.11-14.48-20.82-22.08c-5.49-6.42-11.73-12.07-17.05-18.65c10.32,5.05,19.91,11.64,30.19,16.82
		c4.12,1.47,4.5,6.58,6,10.2c1.85,4.85,3.23,10.76,8.1,13.3c-3.5-10.11-7.48-20.05-11.57-29.91c-3.46-6.73-7.43-13.18-11.5-19.53
		c-1.81-0.52-3.65-0.95-5.43-1.57c-3.52-1.76-6.4-4.64-10.01-6.25c-11.04-5.39-23-8.49-33.75-14.55c9.15-0.16,18.27,1.18,27.4,1.83
		c1.68,0.3,3.81-0.17,5.07,1.37c3.37,3.85,5.79,8.55,9.48,12.12c1.02,1.18,2.44,1.71,3.95,1.91c-2.08-5.21-5.36-9.74-7.96-14.64
		c-4.65-8.49-13.28-13.14-21.09-17.84c-1.43-1.59-2.88-3.2-4.65-4.37c-9.11-6.12-18.06-12.51-27.14-18.65
		c-2.16-1.46-4.11-3.19-6.09-4.87c7.02,1.4,13.93,3.45,20.8,5.48c2.6,0.89,5.34,1.48,7.7,2.96c3.32,5.13,5.82,11.07,10.6,14.98
		c3.44,2.77,6.93,5.62,10.96,7.41c-9.82-12.77-18.81-26.22-28.7-38.93c-5.16-4.72-12.11-6.39-18.37-8.93
		c-0.2-0.34-0.59-1.02-0.8-1.36l-0.78,0.28c-0.99-1.52-2.47-2.46-4.12-2.98c-15.02-5.34-30.26-10.02-45.18-15.67
		c12.31-0.9,24.63,0.38,36.95,0.51c4.83,4.93,9.51,10.03,14.59,14.69c2.06,2.03,4.87,2.76,7.54,3.48
		c-7.44-9.32-15.95-17.61-23.96-26.38c-1.12-1.15-2.12-2.46-3.45-3.33c-5.97-3.08-12.48-4.9-19.08-5.66
		c-10.15-1.63-20.47-1.18-30.69-2.05c-0.17-0.01-0.53-0.03-0.71-0.04c6.81-2.71,13.77-5.06,20.87-6.78
		c7.25,3.51,14.48,7.45,22.49,8.67c-6.91-6.73-14.69-12.4-22.21-18.34c-3.07-2.74-7.2-2.76-10.98-2.42
		c-13.49-0.48-26.58,4.01-40,4.62c2.98-2.8,7.03-3.79,10.57-5.6c5.41-2.2,10.68-5.18,16.47-6.12c4.63,0.56,9.01,2.43,13.6,3.27
		c-6.51-4.54-13.32-8.65-20.3-12.36c-3.12-0.86-6.37-1.1-9.57-0.91c-14.69,1.14-29.32,3.13-44.03,3.87l-0.51,0.01
		c8.33-4.22,17.15-7.27,25.52-11.41c2.05-1.16,4.51-1.27,6.7-0.43c4.85,1.84,9.68,3.77,14.66,5.18c-5.06-3.41-10.62-5.92-15.97-8.77
		c-4.38-2.37-9.21-3.55-14.04-4.39c-3.61-0.44-6.94-1.98-10.35-3.15c-9.93-1.25-19.94,1.25-29.84-0.12
		c6.41-2.9,13.24-4.67,19.83-7.05c7.17,2.46,14,5.92,21.26,8.08c-11.37-7.79-23.5-14.29-35.07-21.75
		c-3.87-2.64-8.47-3.76-13.02-4.16c-10.85-0.92-21.77-0.54-32.59-1.95c-8.59-1.09-16.92-0.93-25.54-1.7
		C599.6,79.29,597.76,78.72,596.25,77.99z"/>
	<path class="st0" d="M726.14,85.01"/>
	<path class="st0" d="M820,218.67c0.01,0.01,0.04,0.02,0.06,0.03C820.03,218.69,820.01,218.68,820,218.67z"/>
	<path class="st0" d="M389.73,943.38l-6.08-0.07c12.79-4.45,30.55-9.69,44.03-13.52c18.81-5.52,37.63-11.08,56.32-17.02
		c2.12-0.62,3.99-1.86,5.59-3.4l0.2-0.19c6.03-2.05,12.35-3.31,17.98-6.5c-24.47-2.03-48.98-3.45-73.52-4.18
		c-4.73,0.03-9.65-0.51-14.17,1.29c-4,1.92-7.16,5.28-11.05,7.4c-2.29,0.96-4.67,1.47-7.03,2.51c-10.51,6.77-20.97,13.4-31.47,20.17
		c-3.64,2.75-12.91,1.18-12.91,1.18l-12.77-2.18l-7.71-1.21l-4.82-0.71l-5.32-0.98c0,0-16.66-2.32-27.18-4.43
		c31.75-5.13,69.07-9.76,100.84-14.82c2.59-0.36,5.04-1.44,7.14-3.06c2.3-1.72,4.66-3.4,6.67-5.5c-18.98-1.44-37.21-7.77-56-10.48
		c-3.7,1.26-7.56,1.78-11.44,1.79c-7.68,0.02-15.41,0.91-23.04-0.42c-7.92,1.99-15.81,4.11-23.73,6.12
		c-2.45,0.51-5.25,1.72-7.55,0.06c-13.8-7.03-27.76-13.71-41.42-21.03c1.43-0.21,2.88-0.46,4.32-0.22
		c20.27,3.79,40.58,7.46,60.86,11.24c3.57,0.53,7.37,2.19,10.88,0.45c7.28,0.3,14.61,0.38,21.89-0.02
		c-14.29-6.54-29.55-10.49-44-16.64c-15.09-6.28-29.76-13.63-44.69-20.29c-5.06-0.34-10.22-0.59-15.25,0.15
		c-9.16,2.31-18.3,4.78-27.6,6.45c-3.52,0.91-6.52-1.62-9.65-2.81c-10.72-4.57-20.95-10.26-31.51-15.19
		c-3.22-1.59-6.56-2.97-9.51-5.07c6.21,0.3,12.29,1.71,18.4,2.72c16.15,2.79,32.21,6.09,48.46,8.26c4.26,0.66,8.55,1.58,12.88,0.96
		c0.71,0,2.14,0.02,2.85,0.03c-4.68-3.7-10.02-6.31-15.03-9.46c-13.16-7.5-25.68-16.56-40.05-21.47c-5.25-1.9-10.53-4.13-16.17-4.25
		c-6.44-0.31-12.82,0.94-19.24,1.11c-2.78,0.31-4.98-1.71-7.17-3.14c-9.63-6.78-19.45-13.32-28.77-20.54
		c2.22,0.4,4.48,0.77,6.63,1.53c12.91,4.66,25.91,9.02,38.85,13.59c5.86,1.89,11.56,4.53,17.73,5.1c2.67,0.79,5.16,2.18,7.89,2.8
		c-10.75-8.41-21.82-16.41-32.68-24.69c-6.33-4.95-11.82-10.96-17.58-16.59c-5.84-5.96-12.32-11.42-16.65-18.77
		c-8.88-0.12-17.82-0.14-26.64-1.17c-7.22-5.59-13.39-12.55-20.13-18.76c-2.12-2.03-4.29-4-6.16-6.28
		c11.65,4.37,22.71,10.36,34.3,14.94c5.58,2.06,10.74,5.11,16.28,7.26c-1.28-2.45-2.76-4.78-4.45-6.94
		c-4.74-6.77-8.7-14.1-12.96-21.21c-2.62-4.14-4.28-9.43-8.96-11.58c-3.85-1.86-6.21-5.85-9.96-7.8c-7.36-2.81-15.12-4.41-22.35-7.6
		c-5.79-10.14-13-19.34-18.86-29.44c2.37,1.06,4.3,2.88,6.24,4.61c12.06,9.9,22.55,18.63,34.45,28.5c0.82-0.16,3.45,1.65,4.28,1.49
		c2.42,1.48,3.96,4.04,6.12,5.85c-0.95-3.21-2.7-6.04-4.24-8.95c-4.37-8.21-9.01-16.28-13.01-24.7c-3.45-6.03-3.31-13.65-7.25-19.44
		c-3.86-3.98-6.63-9.32-11.64-11.91c-3.82-1.9-7.93-3.07-11.93-4.48c-5.2-9.4-11.17-18.35-16.29-27.79
		c0.45,0.17,1.36,0.52,1.81,0.69c7.45,8.31,15.91,15.57,23.28,23.96c2.81,2.91,5.47,6.41,9.4,7.66l1.46,0.25
		c-1.79-5.72-4.32-11.18-5.64-17.07c-1.21-5.4-2.3-11.1-5.73-15.52c-5.29-7.83-13.45-12.61-20.56-18.32
		c-2.54-9.13-4.64-18.41-6.8-27.64c9.15,12.17,14.72,27.04,25.21,38.17c1.04,1.26,2.08,2.54,3.3,3.63
		c-2.69-11.58-3.28-23.52-4.97-35.27c-0.41-3.57-2-6.8-3.32-10.07c-4.78-12.32-9.94-24.5-15.62-36.4
		c2.07-9.89,3.83-19.85,5.81-29.76c0,3.59,0.49,7.15,0.88,10.72c1.2,10.74,0.96,21.62,2.65,32.31c0.33,2.1,1.44,3.92,2.42,5.75
		c1.96,3.73,3.08,7.87,5.14,11.56c0.37-12.41-0.38-24.83,0.17-37.25c-0.14-5.72,0.75-11.42,0.56-17.14
		c-0.91-4.03-2.27-7.94-3.44-11.89c-2.46-8.02-8.31-14.29-11.3-22.01c0.66-10.61,3.01-21,4.58-31.48c0.56,0.65,1.05,1.36,1.5,2.11
		c1.37,12.87,3.4,25.64,4.95,38.48c0.53,4.57,2.1,8.9,3.65,13.18c0.42,1.15,0.93,2.3,1.51,3.39c4.18-10.31,7.86-20.84,11.8-31.26
		c6.54-16.27,8.06-34.04,12.33-50.97c4.11-4.76,9.5-8.1,14.27-12.08c7.1-5.87,14.77-10.96,21.6-17.17c2.8-2.12,4.86-5.17,7.96-6.85
		l-0.25,0.93c-2,5.17-4.73,10.02-8.06,14.4c-9.1,13.47-18.71,26.57-27.62,40.2c-4.9,7.54-10.66,14.77-13.44,23.53
		c-6.03,13.78-10.71,28.2-14.58,42.79c-2.01,10.09-2.93,20.47-2.45,30.77c4.59-7.06,2.52-16.01,2.83-23.98
		c-0.28-1.9,1.5-2.96,2.48-4.25c6.3-6.63,11.84-14.08,18.63-20.16c-0.94,3.03-2.02,6.01-3.53,8.79c-3.42,6.4-5.43,13.48-8.75,19.93
		c-2.51,5.09-5.58,9.96-7.04,15.54c-1.23,4.8-3.57,9.22-4.55,14.09c-0.81,14.5,1.86,28.85,3.07,43.25c0.98,7,0.93,14.25,3.14,21
		c0.96-4.94,1.96-9.99,1.69-15.05c-0.86-6.9-2.29-13.71-3.63-20.53c-0.2-1.55-0.71-3.32,0.29-4.68
		c6.71-11.52,13.55-22.96,20.48-34.32c-0.43,4.11-1.39,8.13-2.5,12.1c-3.74,15.55-7.87,30.98-11.81,46.47
		c-0.72,2.4,0.06,4.82,0.6,7.15c-0.42,7.91-3.39,15.84-1.71,23.81c1.25,7.54,3.17,14.98,6.15,21.99c2.91,6.93,5.04,14.19,8.03,21.08
		c1.19-4.68,1.68-9.49,2.44-14.25c0.26-2,0.84-4.13-0.08-6.03c-2.26-5.73-4.55-11.43-6.98-17.08c2.37-10.88,4.73-21.82,8.17-32.38
		c1.28,15.85,0.33,31.81,0.83,47.71c-0.06,1.83,0.98,3.36,1.67,4.97c-0.01,8.7-2.49,17.38-3.15,26.1
		c1.64,6.11,4.93,11.59,7.94,17.05c0.06-6.79,0.47-13.63-0.63-20.35c-0.36-2.93-1.1-5.84-1.04-8.8c1.91-5.86,5.02-11.18,7.43-16.82
		c2.03-4.18,3.3-8.74,5.74-12.69c-0.78,15.11-5.15,29.65-7.48,44.52c-0.26,1.41-0.1,2.78,0.49,4.12c1.11,6.65-1.53,13.95,1.41,20.37
		c3.54,8.03,7.93,15.61,11.86,23.44c2.1,3.75,3.63,7.89,6.38,11.2c0.03-10.4-7.08-18.61-9.61-28.26c2.26-12.09,4.62-24.3,7.94-36.15
		c0.14,9.4,1.17,18.75,1.29,28.15c0.14,7.52,0.31,15.05,1.14,22.52c0.17,2.07,1.16,3.9,1.99,5.75c0.21,5.52,0.56,11.25,2.92,16.33
		c2.67,5.67,6.29,10.79,9.76,15.97c4.7,6.96,10.94,12.52,16.73,18.44c2.69,2.52,5.04,5.5,8.17,7.46c-0.42-1.46-0.61-3.07-1.7-4.16
		c-3.67-4.2-7.9-7.79-11.89-11.63c-1.08-1.05-2.09-2.27-2.42-3.8c-1.8-6.67-2.65-13.58-4.03-20.35c-0.78-4.35-1.94-8.63-2.41-13.03
		c4.47,7.17,7.27,15.25,11.02,22.83c4.72,9.69,8.34,20.05,14.45,28.94c0.8,2.09,1.26,4.3,1.85,6.47
		c10.08,7.74,20.25,15.36,30.42,22.98c5.96,4.38,11.49,9.47,18.08,12.84c-1.7-5.81-4.44-11.52-9.02-15.43
		c-4.07-3.46-8.45-6.51-12.67-9.77c-1.77-1.49-4.3-2.49-4.73-5.1c-3.88-13.16-6.29-26.71-9.05-40.16c0.51,0.39,1.52,1.17,2.03,1.56
		c2.48,6.12,6.02,11.66,9.22,17.39c6.44,11.28,12.85,22.59,19.22,33.92c1.36,2.44,3.04,4.66,4.71,6.87
		c2.24,4.88,4.03,10.08,7.21,14.43c0.06,0.05,0.17,0.17,0.23,0.23c18.65,11.86,37.45,23.8,58.09,31.55
		c-5.8-6.77-13.78-10.67-20.91-15.62c-5.23-3.73-10.71-7.19-15.52-11.51c-3.83-13.28-7.4-26.67-11.09-39.99l-0.74-3.5
		c9.73,13.85,18.81,31.19,28.44,45.12c2.07,2.8,4.03,6.35,7.72,6.87c0.03,0.01,0.1,0.03,0.13,0.05c2.37,3.67,5.1,7.14,8.54,9.79
		c5.41,4.3,10.14,9.45,15.62,13.65c5.9,4.35,12.69,7.12,19.37,9.87c4.71,1.85,9.37,3.88,14.33,4.92
		c-8.4-6.97-19.14-10.05-27.54-17.03c-2.31-1.85-3.17-4.86-4.2-7.55c-3.55-10.44-7.71-20.63-11.47-30.98
		c-0.72-2.17-1.96-4.35-1.46-6.72l0.7,0.77c5.34,6.95,10.56,13.99,16,20.86c7.21,11.31,15.53,21.77,23.48,32.51
		c1.45,2.27,3.81,3.45,6.29,4.12c2.97,3.23,5.36,7.8,9.91,8.75c7.51,2.46,14.91,5.37,22.53,7.49c13.21,2.82,26.35,5.96,39.58,8.65
		c-2.45-2.68-5.89-3.82-8.99-5.41c-8.57-4.1-17.01-8.45-25.53-12.63c-7.63-16-15.14-32.06-22.39-48.25
		c-1.07-2.36-2.04-4.78-2.83-7.25c0.53,0.23,1.59,0.69,2.13,0.92c3.82,6.78,9.09,12.46,13.84,18.53
		c5.02,6.05,9.69,12.43,15.04,18.19c7.09,8.32,13.68,17.11,20.73,25.46c1.16,1.83,3.2,1.7,5.06,1.6h0.28
		c4.26,5.37,9.48,11.43,16.69,11.61c16.82,0.76,33.65,1.27,50.48,1.58c-2.42-2.98-5.06-5.93-8.31-7.93
		c-9.04-3.67-18.46-6.28-27.41-10.16c-7.24-9.76-12.86-20.74-19-31.27c-2.37-4.32-4.91-8.57-6.73-13.18
		c0.75,0.16,2.83,0.83,2.83,0.83l0.3,0.1c0.85,1.69,1.77,3.38,3.08,4.76c5.53,5.91,10.93,11.98,16.96,17.34
		c6.39,5.64,11.75,12.41,18.16,18.03c4.81,4.29,8.88,9.92,15.08,12.14c4.27,4.28,9.03,8.67,15,9.99c16.64,1.22,33.28,2.38,49.93,3.4
		c6.19,0.08,12.48,1.22,18.6-0.09c-5.25-3.25-10.94-5.92-16.84-7.61c-11.34-2.02-22.97-0.6-34.34-2.38
		c-4.64-2.94-8.4-7.17-12.7-10.6c-8.32-7.43-16.03-14.5-24.23-22.06c4.82,0.44,7.93,3.45,12.27,5.36
		c17.04,7.95,34.04,15.99,51.04,24.03c2.42,1.26,5.09,1.82,7.79,1.72c4.13,0.83,7.94,2.94,11.87,4.46
		c6.25,2.46,12.13,6.77,19.08,6.52c12.13-0.51,24.25-1.59,36.4-1.6c2.45,0.03,4.91-0.05,7.35-0.41c-0.86-1.45-1.65-3.52-3.52-3.62
		c-13.67-1.29-27.42-0.02-41.08-1.3c-4.74-1.06-8.26-4.95-11.83-8.12c-9.18-9.18-19.23-17.36-28.54-26.39
		c-3.79-3.81-8.24-6.91-11.61-11.16l1.65,0.04c28.98,15.28,58.42,29.73,88.61,42.22c2.27,1.12,4.63,2.14,7.18,2.31l0.37,0.06
		c0.93,1.41,1.75,2.88,2.52,4.42c-0.65,1.61-1.32,3.24-1.92,4.89c-3.27-0.7-5.96,1.57-8.79,2.82c-3.18,1.59-6.74,2.08-9.99,3.48
		c-2.27,0.66-2.43,3.44-3.7,5.14c-8.85,12.47-17.04,25.45-25.9,37.93c-1.12,1.3-2.14,3.17-4.01,3.31
		c-27.6,4.6-55.1,9.89-82.49,15.64c0.09-0.42,0.24-1.27,0.33-1.69c6.23-2.61,11.86-6.49,18.08-9.13
		c10.85-5.65,21.89-10.93,32.36-17.31c15.62-9,32.03-16.38,47.76-25.16c5.59-3.04,11.43-5.69,16.4-9.81c-0.2-0.47-0.59-1.4-0.8-1.86
		l0.15-0.76c1.3-0.63,2.66-1.12,4.01-1.67c-22.06,0.96-44.14,3.64-66.23,2.1c-7.46,6.97-18.16,7.38-27.06,11.25
		c-8.6,7.05-16.95,14.45-25.37,21.72c-3.07,1.97-5.32,5.14-8.56,6.8c-12.04,0.27-24.11,0.4-36.16,0.54"/>
	<path class="st0" d="M411.18,943.31"/>
	<g>
		<path class="st0" d="M571.39,773.26c2.65-2.95,5.4-6.44,9.47-7.04c5.44,1.49,10.95,2.89,16.09,5.37
			c-1.77,2.26-3.55,4.51-5.11,6.93c-1.62,2.64-3.05,5.45-3.8,8.5c-0.05,2.11-0.14,4.28,0.32,6.37c1.35,3.44,4.34,5.74,7,8.06
			c-4.63-0.27-9.21,0.48-13.77,1.12c-2.86-0.31-5.71-0.74-8.47-1.57c-4.36-6.47-4.98-14.39-5.73-22
			C568.63,777.02,569.96,775.1,571.39,773.26z M575.4,783.47c-0.67,2.58-0.89,5.32-0.52,7.98c1.92,5.22,6.46,9.75,12.08,9.82
			c-3.3-3.04-6.23-6.62-7.66-11.03c-0.5-4.03,0.58-8.05,0.8-12.06C578.32,779.7,576.3,781.18,575.4,783.47z"/>
	</g>
	<path class="st0" d="M599.37,772.86c4.29,0.44,8.42,3.91,8.69,8.61c-0.19,3.51-1.5,6.82-2.7,10.07c-1.44-2.08-2.58-4.38-4.07-6.4
		c-1.73-2.33-4.55-3.11-7.04-4.12C594.6,777.67,596.58,774.53,599.37,772.86z"/>
</g>
<g>
	<path class="st1" d="M674.09,67.16c1.51,0.73,3.04,1.47,4.52,2.28c-0.7-0.12-2.1-0.35-2.8-0.47c4.99,5.95,11.43,10.3,16.5,16.18
		c5.55,6.34,12.57,11.21,17.34,18.28c-5.59-4.21-11.86-7.26-18.01-10.42c-1.78-0.93-3.68-1.54-5.62-1.97
		c-1.28-0.68-2.53-1.42-3.69-2.27c-0.01-1.21-0.24-2.36-0.72-3.45C678.93,79.36,676.31,73.34,674.09,67.16z"/>
	<path class="st1" d="M593.8,79.31c0.8-0.45,1.63-0.89,2.45-1.32c1.5,0.73,3.35,1.31,5.05,1.46c8.62,0.77,16.95,0.61,25.54,1.7
		c10.82,1.41,21.75,1.03,32.59,1.95c4.55,0.4,9.15,1.52,13.02,4.16c-3.1-1.1-6.19,0.29-9.07,1.4c-7.26,2.99-14.42,6.26-21.69,9.23
		c-1.08,0.61-2.19-0.21-3.21-0.53C623.76,90.92,608.66,85.42,593.8,79.31z"/>
	<path class="st1" d="M754.63,102.59c0.09,0.15,0.25,0.46,0.34,0.61c3.32,6.13,6.23,12.48,9.81,18.45
		c2.92,5.49,6.37,10.78,8.08,16.86c-4-4.29-8.01-8.55-12.13-12.7c-2.2-2.4-4.91-4.84-5.31-8.34
		C754.8,112.54,754.62,107.55,754.63,102.59z"/>
	<path class="st1" d="M666.44,107.98c9.9,1.37,19.92-1.13,29.84,0.12c3.41,1.17,6.74,2.71,10.35,3.15c-9.54-2.12-18.82,1.44-28,3.55
		c-4.92-1.51-9.62-3.75-14.25-6.01C664.9,108.59,665.93,108.18,666.44,107.98z"/>
	<path class="st1" d="M690.27,131.06c14.71-0.74,29.34-2.73,44.03-3.87c3.2-0.19,6.45,0.05,9.57,0.91
		c-2.53-0.37-5.19-0.73-7.59,0.45c-8.06,3.52-15.73,8.13-24.19,10.59C704.94,136.08,697.39,134.15,690.27,131.06z"/>
	<path class="st1" d="M818.35,169.42c-0.48-9.37-0.39-18.79-0.15-28.16c0.35,0.45,1.04,1.36,1.4,1.81
		c1.13,5.63,4.16,10.51,6.27,15.75c5.49,13.14,11.64,25.95,17.26,39.03c1.08,2.46,1.86,5.06,2.52,7.68
		c-7.63-9.48-15.32-18.9-23.16-28.18C820.56,175.07,818.15,172.73,818.35,169.42z"/>
	<path class="st1" d="M723.53,148.91c13.43-0.61,26.51-5.1,40-4.62c-6.58,3.48-12.9,7.6-19.81,10.35
		c-6.82-1.78-13.64-3.72-20.42-5.71L723.53,148.91z"/>
	<path class="st1" d="M866.45,185.45c0.69-1.88,1.22-3.95,2.71-5.34c-0.03,0.29-0.11,0.87-0.14,1.16
		c-1.06,5.33,0.03,10.75,0.12,16.11c0.58,13.79,1.63,27.58,1.04,41.38c-3.56-11.2-7.63-22.21-11.7-33.21
		C861.32,198.93,864.12,192.29,866.45,185.45z"/>
	<path class="st1" d="M770.66,181.47c0.38,0.12,1.13,0.36,1.5,0.47c14.92,5.65,30.16,10.33,45.18,15.67
		c1.65,0.52,3.13,1.46,4.12,2.98c-10.35,0.46-20.79-0.32-31.14-0.82c-3.34-1.97-5.96-4.98-8.84-7.58
		C777.9,188.59,773.99,185.33,770.66,181.47z"/>
	<path class="st1" d="M821.46,200.59l0.78-0.28c0.2,0.34,0.59,1.02,0.8,1.36C822.64,201.4,821.85,200.86,821.46,200.59z"/>
	<path class="st1" d="M817.31,218.1c0.67,0.14,2.01,0.43,2.68,0.57c0.01,0.01,0.04,0.02,0.06,0.03c1.97,1.68,3.93,3.41,6.09,4.87
		c9.09,6.14,18.03,12.53,27.14,18.65c1.77,1.17,3.22,2.78,4.65,4.37c-9.15-4.21-18.99-6.38-28.44-9.69
		c-1.34-0.44-1.86-1.97-2.63-3.05C823.85,228.49,820.56,223.31,817.31,218.1z"/>
	<path class="st1" d="M893.95,246.5c5.23-6.32,10.36-12.73,15.66-18.99c-0.39,6.14-2.61,11.89-3.98,17.82
		c-2.92,11.93-5.41,24.19-10.98,35.16l-1.31-0.21C894.41,269.07,893.72,257.75,893.95,246.5z"/>
	<path class="st1" d="M838.76,261.67c0.58,0.04,1.74,0.13,2.33,0.17c10.75,6.06,22.71,9.16,33.75,14.55
		c3.6,1.61,6.49,4.49,10.01,6.25c-9.37-2.86-19.2-2.7-28.81-3.84c-2.59-0.24-4.23-2.53-5.95-4.26
		C846.25,270.32,842.24,266.23,838.76,261.67z"/>
	<path class="st1" d="M914.87,292.99c4.15-6.8,8.36-13.58,11.97-20.71c-0.48,12.41-2.01,24.76-2.14,37.2
		c-0.01,6.87-2.22,13.44-3.31,20.16c0.54-4.12-0.45-8.18-1.21-12.2C918.55,309.26,916.74,301.11,914.87,292.99z"/>
	<path class="st1" d="M868.37,292.56c0.17,0.19,0.52,0.58,0.69,0.77c5.32,6.58,11.56,12.23,17.05,18.65
		c6.71,7.6,14.74,13.87,20.82,22.08c-9.44-6.36-19.87-10.79-30.09-15.53C874.35,309.76,870.66,301.38,868.37,292.56z"/>
	<path class="st1" d="M952.63,307.41c2.43-2.85,4.63-6.08,7.9-7.97c-0.08,0.36-0.25,1.1-0.34,1.46
		c-2.78,10.1-7.16,19.61-10.01,29.69c-3.01,10.88-7.67,21.15-10.75,32.01c-0.54-13.06-0.09-26.15-0.22-39.23
		C943.69,318.06,948.16,312.74,952.63,307.41z"/>
	<path class="st1" d="M892,343.14c-1.55-0.36-1.61-0.88-0.19-1.54C891.85,341.99,891.95,342.76,892,343.14z"/>
	<path class="st1" d="M892,343.14c3.14,6.41,6.97,12.43,10.68,18.5c5.58,8.38,10.17,17.4,15.44,26c2.88,5.54,6.82,10.5,8.98,16.45
		c-10.04-10.5-20.36-20.71-30.94-30.61c-0.78-0.83-1.96-1.57-1.77-2.9c-0.53-7.35-1.51-14.64-2.49-21.93
		C891.88,346.85,890.79,344.73,892,343.14z"/>
	<path class="st1" d="M949,412.56c10.06-19.33,17.63-40.03,28.68-58.8c-0.25,13.43-3.23,26.59-5.73,39.7
		c-0.83,3.22-0.9,7.05-3.48,9.39c-8,7.33-16.99,13.77-23.26,22.9l-0.13,0.14C945.51,421.21,946.82,416.66,949,412.56z"/>
	<path class="st1" d="M114.79,383.09c3.33-4.38,6.06-9.23,8.06-14.4c-0.44,9.47-2.36,18.82-3.64,28.21
		c-0.87,3.97-0.77,8.79-4.03,11.64c-10.69,10.24-21.53,20.32-32.89,29.75c-3.08,2.58-6.08,5.3-8.56,8.53
		c2.78-8.76,8.54-15.99,13.44-23.53C96.09,409.66,105.69,396.56,114.79,383.09z"/>
	<path class="st1" d="M956.55,474.77c9.14-17.92,16.7-36.7,26.7-54.13c-0.18,4.3-1.27,8.46-1.93,12.68
		c-1.96,11.44-3,23.13-6.4,34.23c-2.92,4.55-7.9,7.09-11.49,11.03c-3.24,3.68-7.84,5.79-10.65,9.89l-0.12-0.79
		C951.61,482.93,954.85,478.87,956.55,474.77z"/>
	<path class="st1" d="M45.02,431.04c4.11,5.98,7.92,12.2,11.53,18.51c-0.05,11.12-4.93,21.95-2.93,33.15
		c-1.55-4.28-3.12-8.61-3.65-13.18C48.43,456.68,46.39,443.91,45.02,431.04z"/>
	<path class="st1" d="M915.71,463.13c7.21,6.83,13.16,14.93,19.46,22.64c3.49,4.38,7.08,8.7,10.48,13.17
		c1.47,1.79,1.16,4.33,1.33,6.53c-0.09,8.97-0.47,17.94-0.47,26.91c-5.88-9.97-9.2-21.26-14.42-31.58
		c-3.03-5.89-5.89-11.87-8.37-18.03C921.13,476.18,917.81,469.92,915.71,463.13z"/>
	<path class="st1" d="M80.65,471.99c0.17-0.29,0.5-0.88,0.66-1.18c0.7,6.2-0.33,12.42-0.17,18.64c-0.2,3.13,0.29,6.97-2.14,9.34
		c-6.1,5.57-12.33,11.06-17.67,17.46c1.47-5.58,4.53-10.45,7.04-15.54c3.32-6.45,5.33-13.53,8.75-19.93
		C78.62,478,79.71,475.02,80.65,471.99z"/>
	<path class="st1" d="M983.78,486.26c0.3-0.33,0.89-0.99,1.19-1.33c-0.37,8.95-2.96,17.62-4.7,26.36
		c-1.52,6.5-3.03,13.06-5.43,19.27c-7.28,6.25-15.36,11.53-22.12,18.44c-0.01-3.15,1.26-6.02,2.96-8.55
		c9.66-15.59,17.37-32.36,26.57-48.22C983.11,490.4,984.39,488.37,983.78,486.26z"/>
	<path class="st1" d="M41.86,488.36c0.14-0.45,0.44-1.34,0.59-1.79c2.53,4.03,4.69,8.29,6.99,12.46c0.97,2.01,2.39,4.02,2.13,6.39
		c-0.53,9.14-2.49,18.1-3.87,27.12c-0.24,1.53-0.2,3.06,0.12,4.6c-0.98-1.83-2.09-3.65-2.42-5.75c-1.7-10.69-1.46-21.57-2.65-32.31
		C42.35,495.51,41.86,491.95,41.86,488.36z"/>
	<path class="st1" d="M912.17,512.11c5.03,8.78,9.12,18.12,14.05,26.98c2.98,5.43,6.02,10.85,8.74,16.43
		c-1.21,10.78-3.81,21.34-6.16,31.89c-2.6-4.06-3.09-9-4.26-13.61c-1.87-8.75-3.51-17.56-5.61-26.26
		c-2.74-11.19-4.16-22.67-6.79-33.88L912.17,512.11z"/>
	<path class="st1" d="M83.13,517.08c1.49,2.45,1.21,5.54,1.86,8.29c0.83,6.33,2.67,12.64,2.67,19.02
		c-4.06,11.43-10.48,21.76-16.45,32.19c-1.64,2.8-2.19,6.06-3.11,9.15c-0.55-2.33-1.32-4.75-0.6-7.15
		c3.94-15.49,8.07-30.92,11.81-46.47c1.11-3.97,2.07-7.99,2.5-12.1C82.18,518.99,82.62,518.02,83.13,517.08z"/>
	<path class="st1" d="M971.26,546.78c12.22-4.2,24.29-8.98,36.76-12.26c-9.09,9.73-19.02,18.52-28.4,27.94
		c-9.27,8.48-17.91,17.71-27.79,25.42c-1.83,1.49-4.23,1.5-6.41,1.7l0.97-1.43c4.59-6.79,8.31-14.18,12.78-21.06
		C963.38,560.43,966.73,553.23,971.26,546.78z"/>
	<path class="st1" d="M896.66,552.97c0.2,0.52,0.58,1.54,0.79,2.06c-0.13,3.24-0.23,6.5,0.17,9.74c0.85,7.65,1.01,15.37,1.96,23.01
		c1.44,11.39,1.56,22.91,3.4,34.26c0.05,4.81,0.11,9.84-2.53,14.03c-0.57-4.81-2.83-9.09-4.61-13.48
		c-4.61-10.96-8.92-22.17-11.49-33.84C888.12,576.71,891.89,564.63,896.66,552.97z"/>
	<path class="st1" d="M30.46,555.1c5.84,3.75,12.15,6.94,17.35,11.64c3.43,9.64,5.3,19.87,8.86,29.49
		c-10.49-11.13-16.06-26-25.21-38.17C31.07,557.09,30.73,556.1,30.46,555.1z"/>
	<path class="st1" d="M84.53,581.13c4.14,7.35,7.14,15.35,10.9,22.92c-3.34,10.37-5.63,21.07-8.78,31.5
		c-0.69-1.61-1.73-3.14-1.67-4.97c-0.51-15.9,0.45-31.86-0.83-47.71C84.24,582.43,84.43,581.57,84.53,581.13z"/>
	<path class="st1" d="M962.8,605.9c2.04-1.71,4.81-1.15,7.23-1.04c12.41,1.65,24.96,1.88,37.35,3.72l-0.59,0.93
		c-8.48,2.89-16.79,6.29-25.39,8.8c-16.77,5.08-32.9,12.13-49.61,17.42c-4.66,1.66-9.3,3.77-14.32,3.66
		c1.61-2.71,3.62-5.13,5.95-7.2c1.09-0.1,2.07-0.52,2.94-1.26C938.09,621.93,951.05,614.86,962.8,605.9z"/>
	<path class="st1" d="M36.04,604.74c4.69,1.42,9.45,2.62,14.03,4.37c1.62,0.53,2.73,1.93,3.74,3.28
		c5.49,7.64,9.17,16.52,14.91,23.97c-3.93-1.25-6.59-4.75-9.4-7.66C51.95,620.31,43.49,613.05,36.04,604.74z"/>
	<path class="st1" d="M855.46,644c6.95-10.26,14.14-20.35,21.82-30.02c-0.33,2.74-0.73,5.49-1.43,8.17
		c-3.3,13.05-6.7,26.08-9.5,39.26c-2.93,13.41-6.81,26.56-10.25,39.83c-0.41-17.61-2.77-35.12-2.56-52.75
		C853.48,646.75,854.61,645.37,855.46,644z"/>
	<path class="st1" d="M103.9,618.86c1.57,8.53,3.73,16.96,4.88,25.57c-2.89,9-9.49,16.19-12.57,25.15l-0.27-0.9
		c-0.58-1.34-0.75-2.71-0.49-4.12c2.34-14.87,6.71-29.41,7.48-44.52"/>
	<path class="st1" d="M815.42,680.21c9.13-8.06,17.8-16.72,27.22-24.41c-3.72,9.78-7.93,19.34-12.44,28.75
		c-10.55,22.32-19.48,45.46-30.69,67.44c2.4-16.16,4.03-32.47,7.7-48.4c1.28-5.65,2.19-11.39,3.25-17.09
		C810.83,683.58,813.54,682.05,815.42,680.21z"/>
	<path class="st1" d="M45.93,658.19c7.99,2.33,15.95,4.85,23.9,7.37c4.23,4.76,7.02,10.73,10.91,15.81
		c2.17,3.41,4.72,6.55,6.61,10.15c1.02,2.1,3.32,2.8,5.12,3.95c-0.82,0.16-4.1-1.34-4.1-1.34s-22.57-18.75-34.63-28.65
		c-1.94-1.73-3.87-3.55-6.24-4.61l-0.3-0.15C46.77,659.87,46.34,659.02,45.93,658.19z"/>
	<path class="st1" d="M113.91,659.28c4.3,6.2,7.73,13.03,11.42,19.64c1.56,2.84,0.48,6.1-0.26,9.02c-2.55,9.17-5.2,18.33-6.74,27.76
		c-0.83-1.85-1.82-3.68-1.99-5.75c-0.83-7.47-1-15-1.14-22.52C115.08,678.03,114.06,668.68,113.91,659.28z"/>
	<path class="st1" d="M902.54,677.11c7.9-4.81,15.96-9.39,24.11-13.67c11.92-0.56,23.75,1.3,35.57,2.58
		c3.4,0.44,6.86,0.67,10.22,1.51c-20.06,5.55-39.76,12.38-59.8,17.99c-11.56,3.47-22.98,7.55-34.76,10.07
		c1.08-1.74,2.22-3.45,3.57-4.98C888.82,686.72,895.35,681.35,902.54,677.11z"/>
	<path class="st1" d="M316.29,679.37c5.06-2.13,9.98-4.6,15.1-6.56c-3.33,4.33-7.57,7.68-11.7,11.11
		c-11.13,9.41-22.96,17.89-33.45,28.12c-3.22,2.97-6.03,6.49-9.8,8.76c-0.23,0.16-0.7,0.47-0.94,0.63
		c-7.96-0.87-15.96-1.46-23.92-2.32c4.24-3.07,8.13-6.6,12.36-9.65c-1.57,0.03-3.15,0.08-4.72,0.14c-9.09-1.52-18.3-1.91-27.44-2.96
		c12.36-3.02,24.49-7.01,36.85-10C284.79,691.77,300.84,686.37,316.29,679.37z"/>
	<path class="st1" d="M310.33,707.81c2.08,5.73,1.27,12.07,2.99,17.91c1.96,6.42,5.78,12.03,7.79,18.44
		c-8.24,8.49-17.03,16.37-24.92,25.24c0.66-13.58,1.78-27.13,2.1-40.72C302.74,722,305.67,714.35,310.33,707.81z"/>
	<path class="st1" d="M132.73,718.14c4.45,2.88,8.19,6.73,12.27,10.14c2.68,2.47,6.07,4.79,6.82,8.73
		c2.36,11.89,4.34,23.88,7.13,35.69c-6.11-8.89-9.74-19.25-14.45-28.94c-3.75-7.58-6.56-15.66-11.02-22.83
		C133.28,720.23,132.91,718.84,132.73,718.14z"/>
	<path class="st1" d="M887.71,719.43c16.08,3.01,32.03,6.77,48.07,10.01c-0.25,0.28-0.75,0.84-0.99,1.13
		c-12.7,3.94-25.73,6.43-38.5,10.07c-21.78,5.44-43.57,10.92-65.5,15.67c1.9-3.15,4.1-6.11,6.91-8.43c0.38-0.08,1.14-0.25,1.51-0.34
		C855.32,738.04,870.8,727.34,887.71,719.43z"/>
	<path class="st1" d="M72.61,721.92c9.06,0,18.2-0.86,27.22,0.11c6.56,4.84,12.35,10.72,18.77,15.74c0.5,0.18,1.49,0.55,1.98,0.73
		c1.69,2.16,3.16,4.49,4.45,6.94c-5.54-2.15-10.71-5.2-16.28-7.26c-11.59-4.58-22.65-10.57-34.3-14.94
		C73.81,722.82,73.2,722.38,72.61,721.92z"/>
	<path class="st1" d="M636.32,740.26c1.36,1.76,2.57,3.67,4.07,5.32c4.38,1.25,9.18-0.18,13.48,1.58c2.45,1.06,2.52,3.9,2.69,6.27
		c-3.57-3.55-8.61-4.69-13.4-4.19c0.35,2.77,0.33,5.81,1.94,8.21c1.37,2.08,2.89,4.07,4.15,6.24c-3-0.51-5.96-1.87-7.83-4.46
		C637.34,753.93,636.69,746.8,636.32,740.26z"/>
	<path class="st1" d="M175.86,746.09c7.02,5.15,14.29,9.88,21.52,14.69c4.53,14.24,7.48,29.08,11.63,43.49
		c-1.67-2.21-3.34-4.43-4.71-6.87c-6.36-11.33-12.78-22.64-19.22-33.92C181.88,757.75,178.34,752.21,175.86,746.09z"/>
	<path class="st1" d="M575.4,783.47c0.9-2.29,2.92-3.77,4.7-5.29c-0.22,4.01-1.29,8.03-0.8,12.06c1.43,4.41,4.36,7.99,7.66,11.03
		c-5.62-0.07-10.16-4.6-12.08-9.82C574.51,788.79,574.73,786.05,575.4,783.47z"/>
	<path class="st1" d="M226.27,779.86c8.34,5.39,16.37,11.27,24.42,17.11c2.78,1.56,2.81,5.12,3.72,7.9
		c2.56,9.03,4.05,18.45,8.02,26.98c-3.7-0.52-5.65-4.07-7.72-6.87c-9.62-13.93-17.37-29.17-27.09-43.02"/>
	<path class="st1" d="M835.72,785.55c5.19-2.12,10.48-5.85,16.3-4.27c18.33,3.47,36.72,6.68,54.91,10.95
		c2.06,0.76,4.91,0.61,6.06,2.91l-0.72-0.09c-3.28-0.81-6.55,0.08-9.74,0.8c-22,3.93-44.18,6.77-66.13,11.06
		c-8.53,1.01-16.86,3.32-25.4,4.25c-14.04,1.46-28.14,5.1-42.28,2.79c7.35-0.08,13.52-4.75,20.03-7.7
		C804.41,799.36,820.03,792.37,835.72,785.55z"/>
	<path class="st1" d="M121.51,785.13c9.72-0.94,19.42-2.29,29.17-2.66c1.2,0.07,2.12,1.03,3.13,1.6c6.79,4.5,13.47,9.2,19.98,14.12
		c4.12,2.96,8,6.34,12.59,8.51c-6.17-0.57-11.87-3.21-17.73-5.1c-12.94-4.57-25.94-8.93-38.85-13.59c-2.16-0.76-4.41-1.13-6.63-1.53
		C122.54,786.15,121.99,785.7,121.51,785.13z"/>
	<path class="st1" d="M276.45,808.62c7.03,2.51,13.58,6.3,20.53,9.08c2.34,1.42,5.84,1.84,6.81,4.85
		c4.63,11.46,9.25,22.94,14.07,34.32c1.05,3.27,2.29,6.48,4.35,9.24c-2.47-0.67-4.84-1.85-6.29-4.12
		c-7.95-10.74-16.27-21.2-23.48-32.51C287.01,822.61,281.79,815.57,276.45,808.62z"/>
	<path class="st1" d="M336.63,818.38c11.48,5.41,22.61,11.63,33.95,17.38c5.15,10.25,9.23,21.04,14.12,31.42
		c2.42,4.89,3.95,10.2,6.6,14.98c-1.86,0.1-3.9,0.23-5.06-1.6c-7.05-8.35-13.64-17.14-20.73-25.46
		c-5.35-5.76-10.02-12.14-15.04-18.19C345.72,830.84,340.45,825.16,336.63,818.38z"/>
	<path class="st1" d="M200.53,822.61c1.83-0.59,3.47,0.69,5.11,1.33c14,6.57,27.81,13.62,41.82,20.19l-0.7,0.07
		c-4.33,0.62-8.63-0.3-12.88-0.96c-16.24-2.17-32.31-5.47-48.46-8.26c-6.11-1.01-12.19-2.42-18.4-2.72l-0.69-0.06
		c1.37-0.77,2.81-1.4,4.31-1.82C180.52,827.42,190.52,824.94,200.53,822.61z"/>
	<path class="st1" d="M262.43,831.85c0.03,0.01,0.1,0.03,0.13,0.05C262.53,831.88,262.46,831.86,262.43,831.85z"/>
	<path class="st1" d="M400.41,833.74c8.98,3.64,18.17,6.73,27.04,10.67c1.64,0.55,2.4,2.26,3.31,3.64
		c6.2,10.28,12.02,20.81,18.08,31.17c1.43,2.4,3.25,4.51,4.85,6.79c-6.19-2.22-10.26-7.85-15.08-12.14
		c-6.41-5.62-11.77-12.39-18.16-18.03c-6.04-5.36-11.43-11.43-16.96-17.34C402.18,837.12,401.26,835.43,400.41,833.74z"/>
	<path class="st1" d="M500,846.19c14.68-0.63,29.41-0.51,44.12-0.7c8.42,7.62,16.7,15.44,25.41,22.72
		c8.86,7.36,17.29,15.29,26.26,22.51c-2.55-0.17-4.91-1.19-7.18-2.31C558.43,875.92,528.98,861.47,500,846.19z"/>
	<path class="st1" d="M446.59,854.48c6.4-1.1,12.87-0.01,19.31-0.1c5.75,0.26,11.57-0.35,17.27,0.53
		c12.54,10.7,24.48,22.19,37.04,32.86c-2.7,0.1-5.37-0.46-7.79-1.72c-17-8.04-34-16.08-51.04-24.03c-4.34-1.91-7.45-4.92-12.27-5.36
		l-0.94-0.55C448.18,856.1,446.88,855,446.59,854.48z"/>
	<path class="st1" d="M247.84,872.57c11.44-4.03,23.44-6.04,35.07-9.42c4.95,3.45,10.77,5.25,15.87,8.46
		c9.73,4.23,18.99,9.51,28.57,14.07c-3.51,1.74-7.3,0.08-10.88-0.45c-20.28-3.78-40.59-7.45-60.86-11.24
		c-1.45-0.24-2.89,0.01-4.32,0.22C250.14,873.68,248.97,873.09,247.84,872.57z"/>
	<path class="st1" d="M570.46,905.6c1.93-0.04,3.08-2.01,4.83-2.37l0.75,0.22c0.2,0.46,0.59,1.39,0.8,1.86
		c-4.96,4.12-10.81,6.77-16.4,9.81c-15.73,8.78-32.13,16.16-47.76,25.16c-10.48,6.38-21.52,11.66-32.36,17.31
		c-6.22,2.64-11.86,6.52-18.08,9.13c9.96-16.29,22.89-30.32,34.32-45.42C521.2,916.2,545.59,909.53,570.46,905.6z"/>
	<path class="st1" d="M383.65,943.3c2.21-3.14,4.28-5.39,6.86-8.14c1.12-0.96,2.24-1.92,3.36-2.88c5.11-4.57,10.57-9.2,16.4-13.83
		c3.17-2.52,6.31-4.93,9.41-7.23c8.97-0.94,17.44-0.8,26.16-0.94c6.22-0.18,12.56-0.26,18.87-0.11c8.59-0.03,16.5-0.04,24.88-0.8
		c-1.6,1.54-3.47,2.78-5.59,3.4c-18.7,5.94-37.51,11.5-56.32,17.02c-13.48,3.83-26.75,8.88-40.34,12.28"/>
</g>
<g>
	<path class="st2" d="M725.92,84.03l0.44,0.66c0.6,0.77,0.79,1.23,1.19,1.59c0.06,0.06,0.11,0.13,0.14,0.21
		c4.07,12.07,10.82,22.95,14.96,34.98l0.18,0.65c-5.05-5.85-10.6-11.21-16.04-16.65c-0.09-0.09-0.15-0.22-0.15-0.35
		C726.19,98.1,725.72,91.07,725.92,84.03z"/>
	<path class="st2" d="M779.84,127.66c0.02,0.03,0.06,0.07,0.08,0.09C779.9,127.73,779.86,127.69,779.84,127.66z"/>
	<path class="st2" d="M779.92,127.75c3.25,3.32,6.6,6.54,9.55,10.17c5.01,6.09,10.76,11.69,14.46,18.81
		c-5.67-3.79-11.23-7.77-16.99-11.42c-1.06-0.84-2.56-1.41-2.9-2.89C782.48,137.59,781.1,132.69,779.92,127.75z"/>
	<path class="st2" d="M754.06,163.2c10.22,0.87,20.54,0.42,30.69,2.05c-4.33,1.58-8.76,2.82-13.13,4.25c-2.5,0.7-5.31,1.69-7.77,0.4
		C760.39,168,757.03,165.85,754.06,163.2z"/>
	<path class="st2" d="M906.5,401.34c6.32,5.12,11.55,11.55,17.29,17.35c5,5.59,10.53,10.75,14.99,16.82
		c0.11,10.1,0.18,20.23,1.22,30.29c-2.05,1.55-2.99-1.21-3.8-2.53c-6.9-14.4-14.04-28.68-20.45-43.33
		C912.58,413.78,910.32,407.1,906.5,401.34z"/>
	<path class="st2" d="M347.42,672.2c13.18-0.27,26.38,0.6,39.55-0.57c-1.46,0.33-2.9,0.7-4.36,1c-4.27,0.37-9.39-0.96-12.78,2.57
		c-6.51,6.57-12.95,13.21-19.33,19.91c-4.34,5.11-9.67,9.27-13.61,14.74c-5.76,10.23-8.84,21.95-15.34,31.76
		c0.04-5.39,0.42-10.76,0.54-16.14c0.26-6.92,0.29-13.99,2.34-20.65c2.08-7.02,5.54-13.49,7.48-20.56
		C336.81,679.86,342.37,676.4,347.42,672.2z"/>
	<path class="st2" d="M627.29,750.4c1.73,3.36,2.85,7.19,5.5,9.95c1.59,1.7,3.3,3.3,4.88,5.04c-3.8-0.44-8.6-1.36-10.03-5.65
		C625.98,756.83,625.78,753.41,627.29,750.4z"/>
</g>
<g>
	<path class="st3" d="M727.15,325.16c20.54-30.34,42.26-59.99,59.62-92.47c0.82,10.65,1.82,21.35,1.3,32.05
		c-14.39,13.97-26.99,29.8-41.65,43.48c-4.67,4.77-9.34,9.53-14.25,14.03C730.74,323.63,728.94,324.45,727.15,325.16z"/>
	<path class="st3" d="M772.06,311.9c6.33-6.37,9.97-14.9,13.02-23.35c3.17,14.15,5.28,28.56,8.85,42.61
		c-9.46,5.29-19.48,9.47-29.8,12.55c-6.84,2.09-13.54,4.66-20.47,6.43c-4.66,1.1-9.04,3.41-13.86,3.74
		C742.74,338.66,758.29,326.24,772.06,311.9z"/>
	<path class="st3" d="M756.9,351.02c16.89-2.39,33.59-6.14,50.54-7.99c-6.3,8.11-13.53,15.36-19.74,23.54
		c8.5,1.8,17.46,1.36,25.67,4.51c-7.41,6.17-13.67,13.69-21.14,19.79c-8.34,7.97-17.18,15.31-25.99,22.69
		c9.97,1.89,19.98,3.5,30.03,4.9c2.63,5.07,4.62,10.41,6.48,15.83c-16.71,12.36-32.79,25.77-50.49,36.61
		c2.08-11.8,6.33-23.01,8.62-34.75c1.73-7.49,4.26-14.86,4.79-22.57c-3.11-7.96-8.34-14.82-11.34-22.83
		c9.84-7.9,19.96-15.47,30.4-22.49c0.9-0.7,1.76-1.46,2.64-2.22c-19.22-2.89-38.34-6.56-57.48-10.01
		C738.75,353.66,747.85,352.42,756.9,351.02z"/>
	<path class="st3" d="M759.6,482.45c14.61,2.35,28.9,6.81,43.69,7.86c-0.23,6.06-1.66,12.39-5.77,16.92l-0.29,0.29
		c-7.04-3.41-13.93-7.19-21.23-9.98C770.35,492.75,764.89,487.69,759.6,482.45z"/>
	<path class="st3" d="M788.68,537.16c0.24,0.03,0.73,0.09,0.97,0.13c3.49,3.19,7.14,6.98,7.83,12c0.21,3-0.44,5.97-0.73,8.95
		c-14.26-0.87-28.48-2.22-42.74-3.12l-0.41-0.56c4.03-1.64,8.09-3.24,11.91-5.37C773.09,544.88,781.11,541.51,788.68,537.16z"/>
	<path class="st3" d="M732.84,655.78c0.23-0.06,0.69-0.16,0.92-0.22c9.34,6.54,19.17,12.31,29.22,17.58
		c0.21,3.13,1.51,6.27,0.61,9.41c-0.56,2.36-1.92,4.39-3.03,6.48c2.05,5.08,3.07,11.14,0.58,16.27c-1.27,3.03-4.23,4.5-6.63,6.35
		c-0.58-0.56-1.15-1.11-1.7-1.65c-9.19-9.12-16.92-19.69-25.96-28.95c0.1-0.12,0.3-0.36,0.39-0.48c10.18,2.3,20.26,5.08,30.5,7.06
		c-8.28-10.4-16.33-21.03-25.01-31.08L732.84,655.78z"/>
	<path class="st3" d="M154.85,703.23c12.64-0.8,25.32,0.44,37.96,0.87c13.01,0.53,25.95,2.26,38.97,2.54
		c9.14,1.05,18.35,1.44,27.44,2.96c-4.6,0.95-9.19,1.97-13.87,2.43c-24.59,2.15-49.23,3.7-73.73,6.87
		C165.73,714.05,159.92,709.02,154.85,703.23z"/>
	<path class="st3" d="M224.62,739.52c8.74-7.13,17.35-14.58,26.96-20.41c7.96,0.86,15.96,1.45,23.92,2.32
		c-7.36,8.08-14.78,16.14-21.75,24.6C244,744.1,234.3,741.86,224.62,739.52z"/>
	<path class="st3" d="M280.64,737.41c5.37-1.6,10.21-4.55,15.33-6.76c-2.47,5.67-6.16,10.62-9,16.09
		c-4.64,7.64-8.49,15.77-13.16,23.39l-0.07,0.11c-5.95-2.69-12-6.23-15.33-12.29c-2.21-3.66-2.98-7.98-3.91-12.13
		C263.05,742.44,271.98,740.37,280.64,737.41z"/>
	<path class="st3" d="M296.2,769.4c7.89-8.87,16.68-16.75,24.92-25.24c2.03,10.27,4.06,20.54,6.35,30.74
		c3.35-2.11,6.64-4.32,9.92-6.55c4.32-2.98,9.1-5.13,13.39-8.17c3.42,1.79,6.75,3.79,10.14,5.64c-0.25,9.28-0.89,18.56-0.85,27.86
		c-6.62,0.81-13.52,1.21-19.89-1.31c-2.65-0.87-4.54-3.13-6.25-5.29c-2.69-3.51-5.41-7.1-7.04-11.29
		c-7.01,3.75-14.99,6.92-22.97,5.74c-5.36-0.81-7.56-6.76-7.92-11.72L296.2,769.4z"/>
	<path class="st3" d="M778.48,850.37l0.52-0.03c6.59,6.09,13.89,11.31,20.76,17.05c-8.51-0.14-17.07,0.19-25.52-0.87
		C775.55,861.11,776.42,855.55,778.48,850.37z"/>
	<path class="st3" d="M749.6,880.1c6.1,3.21,11.75,7.22,17.52,11.03c7.74,4.38,15.5,8.77,23.44,12.76
		c3.85,4.82,4.67,11.54,8.96,16.09l0.04,0.03c-4.92,6.75-11.43,12.55-19.39,14.88c-4.19,1.27-8.65,0.54-12.59-1.24
		C761.86,915.7,756.14,897.75,749.6,880.1z"/>
	<path class="st3" d="M626.15,894.94c3.21,5.66,5.85,11.67,9.22,17.24c3.74-3.95,7.54-7.84,10.99-12.08
		c6.99,4.46,13.34,9.88,20.18,14.56l-0.36,0.57c-6.26,12.84-11.1,26.47-18.4,38.74c-3.36-6.33-4.44-13.59-6.68-20.37
		c-2.32-7.01-3.93-14.24-5.98-21.33c-1.81,11.19-4.74,22.17-6.46,33.38c-3.12-4.38-6.55-8.53-9.77-12.83
		C620.83,920.1,622.87,907.36,626.15,894.94z"/>
	<path class="st3" d="M586.62,920.82c12.61-7.94,24.36-17.28,36.98-25.21c-0.97,2.04-2.05,4.05-3.5,5.78
		c-8.17,9.66-15.02,20.42-23.04,30.2c-6.27-1.13-12.71-0.48-19.04-1.03C581.02,927.43,583.76,924.06,586.62,920.82z"/>
	<path class="st3" d="M690.15,911.26l0.12-0.28c4.63,10.53,10.89,20.16,16.33,30.24c4.94,7.77,8.56,16.36,13.72,23.99
		c-10.26,9.01-26.13,9.56-37.5,2.47c0.67-6.74,1.11-13.51,2.3-20.18C687.32,935.5,688.53,923.35,690.15,911.26z"/>
</g>
<g>
	<path class="st4" d="M746.42,308.22c14.66-13.68,27.27-29.51,41.65-43.48c-0.15,8.03-1.45,15.97-2.99,23.81
		c-3.06,8.45-6.7,16.98-13.02,23.35c-13.77,14.34-29.32,26.76-42.25,41.98c-0.28,0.04-0.82,0.11-1.1,0.15
		c-0.39-9.6-1.16-19.18-1.4-28.79l-0.15-0.08c1.79-0.71,3.59-1.53,5.02-2.91C737.08,317.75,741.75,312.99,746.42,308.22z"/>
	<path class="st4" d="M813.37,371.08c0.4-0.16,1.21-0.48,1.61-0.65c-1.54,12.31-1.35,25.52-7.4,36.61
		c-2.73,4.77-6.55,8.89-11.32,11.42c-10.04-1.4-20.06-3.01-30.03-4.9c8.81-7.38,17.65-14.72,25.99-22.69
		C799.71,384.77,805.96,377.25,813.37,371.08z"/>
	<path class="st4" d="M780.21,469.27c5.7-0.15,11.35-1.1,17.03-1.69c2.04,0.41,3.31,2.74,4.42,4.47c2.85,5.49,4.35,12.38,1.63,18.26
		c-14.79-1.05-29.09-5.51-43.69-7.86c-0.56-0.31-1.1-0.61-1.65-0.91c-1.81-3.26-3.85-6.37-5.98-9.4
		C761.37,471.09,770.74,469.49,780.21,469.27z"/>
	<path class="st4" d="M776.01,497.54c7.29,2.79,14.18,6.57,21.23,9.98c-4.32,2.38-9.1,3.56-13.56,5.6
		c-12.05,5.52-24.31,10.49-36.38,15.94c-2.52,1.17-5.19,1.95-7.95,2.02c8.94-8.07,17.15-17.06,26.73-24.33
		C769.64,504,772.86,500.8,776.01,497.54z"/>
	<path class="st4" d="M738.56,532.75c9.52-0.01,18.91,1.83,28.41,2.37c7.22,0.89,14.56,0.52,21.71,2.04
		c-7.56,4.35-15.58,7.72-23.17,12.03c-3.82,2.13-7.89,3.73-11.91,5.37C748.63,547.26,743.84,539.8,738.56,532.75z"/>
	<path class="st4" d="M754,555.12c14.26,0.9,28.48,2.25,42.74,3.12c0.06,7.79-2.01,15.5-6.47,21.81
		c-15.79,6.19-31.93,11.36-47.71,17.61c10.55,6.03,22.15,10.56,31.36,18.82c-10.72,1.16-21.54,1-32.29,2.07l-0.55-0.05
		c-0.13-8.35-1.96-17.27,1.58-25.14c3.27-8.5,4.65-17.62,7.56-26.24C751.56,563.14,752.82,559.14,754,555.12z"/>
	<path class="st4" d="M726.86,681.05c9.05,9.26,16.77,19.83,25.96,28.95c-11.86,1.73-23.88,1.12-35.81,1.62
		c-4.13,0.22-8.22-0.4-12.32-0.58C708.89,698.79,719.13,690.75,726.86,681.05z"/>
	<path class="st4" d="M259.22,709.6c1.57-0.06,3.15-0.11,4.72-0.14c-4.24,3.05-8.13,6.58-12.36,9.65
		c-9.61,5.83-18.22,13.28-26.96,20.41c-12.19-2.8-24.26-6.28-35.92-10.96c-6.03-2.48-12.16-5.14-17.08-9.66
		c24.5-3.17,49.14-4.72,73.73-6.87C250.03,711.57,254.62,710.55,259.22,709.6z"/>
	<path class="st4" d="M680.75,711.92c1.5-0.2,3.02-0.4,4.55-0.54c6.13-0.49,12.31,0.26,18.45-0.25c5.69,4.26,12.09,7.33,17.83,11.53
		c4.07,3.04,8.72,5.07,12.91,7.91c0.63,6.16-0.49,14.45-7.19,16.41c-3.72-1.68-6.01-5.26-8.73-8.19c-3.89-4.3-7.87-8.5-11.88-12.67
		c-4.1-4.19-7.47-9.09-11.76-13.08c1.7,16.09,5.63,31.85,7.29,47.94c-4.04-7.17-6.65-15.06-10.2-22.47
		C687.9,729.81,685.39,720.35,680.75,711.92z"/>
	<path class="st4" d="M368.88,760.79c4.14-3.03,7.93-6.56,12.34-9.16c4.48,4.32,8.53,9.07,12.81,13.6
		c-1.79,4.82-3.59,9.64-5.69,14.33c-2.52,5.61-4.21,11.59-6.91,17.12C376.64,784.97,372.95,772.79,368.88,760.79z"/>
	<path class="st4" d="M441.15,766.46l0.72-0.37c3.23,6.5,7.86,12.06,12.03,17.9c5.76,7.85,11.37,15.88,17.91,23.04
		c1.91-12.77,5.31-25.36,5.72-38.32c1.63-0.7,3.27-1.4,4.91-2.08c6.28,4.08,12.2,8.71,18.31,13.05c3.55,2.79,7.39,5.1,11.03,7.75
		c5.27,11.6,9.96,23.47,14.94,35.21c-7-0.2-13.74-2.27-20.52-3.59c-8.24,3.6-17.85,2.38-25.56-2.08c-3.12-1.32-5.64-4.15-8.89-4.93
		c-4.9,2.45-9.74,5.97-15.47,5.35c-7.19-0.48-12.34-6.31-17.23-11.15c-10.72,5.57-23.29,4.98-34.75,2.65
		c4.14-8.5,10.86-15.18,15.51-23.34c-2.33-2.9-4.7-5.76-6.94-8.73c3.11-2.72,6.1-5.58,9.19-8.31c2.28,1.26,4.57,2.53,6.87,3.77
		c-2.06,4.63-5.05,8.7-7.79,12.9c5.24,6.51,11,12.56,16.72,18.63C438.2,791.3,439.85,778.88,441.15,766.46z"/>
	<path class="st4" d="M543.65,778.81c7.3-3.2,14.75-6.07,22.16-9.02c1.78,1.27,3.7,2.34,5.59,3.47c-1.43,1.84-2.76,3.76-4.01,5.74
		c-2.38,4.09-4.08,9.32-2.41,14.02c-7.87-3.34-15.18-8.02-22.29-12.82c5.41,15.67,13.96,29.85,21.21,44.6
		c-18.35-10.36-35.29-23.21-51.48-36.89c4.96-3.12,10.02-6.09,14.97-9.24C532.8,777.96,538.31,780.09,543.65,778.81z"/>
	<path class="st4" d="M748.21,879.38c8.38-4.83,17.21-8.89,26.02-12.86c8.45,1.06,17.01,0.73,25.52,0.87
		c4.04,2.99,7.93,6.25,12.16,8.96c-0.51,4.72-0.67,9.48-0.65,14.23c-0.58,0.19-1.74,0.57-2.32,0.76
		c-11.73-6.93-22.26-15.74-33.57-23.34c3.12,7.76,7.27,15.02,10.44,22.78c1.86,4.24,4.07,8.42,4.75,13.11
		c-7.94-3.99-15.7-8.38-23.44-12.76c-5.77-3.81-11.41-7.82-17.52-11.03c6.54,17.65,12.26,35.6,17.98,53.55
		c-1.14,2.98-3.02,5.92-5.94,7.24c-3.54,1.11-7.35,1.26-10.95,0.48c-7.16-3.92-11.74-11.23-17.03-17.35
		c-4.98-5.64-8.47-12.52-13.68-17.95c0,12.15,1.69,24.22,1.69,36.37c0.06,6.02,0.81,12.03,0.65,18.05c0.03,1.24-0.56,2.36-1.14,3.4
		l-0.85,1.32c-5.17-7.63-8.79-16.22-13.72-23.99c-5.44-10.08-11.7-19.71-16.33-30.24c6.31-7.17,12.32-14.61,18.52-21.87
		c3.61,4.79,7.2,9.8,12.14,13.19c11.61,8.04,23.29,15.97,35.27,23.39c-2.91-7.16-6.95-13.76-9.9-20.9
		c-2.15-5.41-5.6-10.23-6.8-16.01C742.46,885.71,745.24,882.45,748.21,879.38z"/>
	<path class="st4" d="M623.61,895.61c0.73-0.47,1.45-0.96,2.19-1.41l0.35,0.74c-3.29,12.42-5.33,25.16-7.25,37.88
		c-5.03,3.84-11.66,6.18-17.77,3.85c-2.2-0.74-3.31-2.99-4.06-5.08c8.02-9.78,14.87-20.54,23.04-30.2
		C621.55,899.66,622.64,897.65,623.61,895.61z"/>
	<path class="st4" d="M666.55,914.66c2.76-2.89,6.01-5.19,9.26-7.46c4.78,1.33,9.55,2.74,14.34,4.06
		c-1.62,12.09-2.83,24.24-5.02,36.24c-1.19,6.67-1.63,13.44-2.3,20.18c-4.14-1.43-8.41-2.5-12.27-4.66
		c-2.23-15.84-2.37-31.92-4.37-47.79L666.55,914.66z"/>
</g>
<g>
	<g>
		<path class="st5" d="M697.47,358.11c10.03-10.87,20.38-21.45,29.83-32.87c0.24,9.61,1.01,19.19,1.4,28.79
			c0.02,0.49,0.05,1.47,0.07,1.96c-3.32,4.51-6.27,9.29-9.61,13.78c-4.37,5.86-7.89,12.34-12.32,18.15
			c-11.39,15.06-21.45,31.15-31.28,47.34c-10.02,18.84-22.44,36.29-31.09,55.91c5.16-3.3,8.66-8.55,13.13-12.68
			c11.13-10.38,22.07-20.98,32.85-31.75c6.77-5.56,12.28-12.53,18.9-18.24c11.42-9.75,21.98-20.61,34.07-29.47
			c3.59-2.81,7.35-5.4,10.91-8.28c3,8.01,8.23,14.87,11.34,22.83c-0.53,7.71-3.06,15.08-4.79,22.57
			c-2.29,11.74-6.54,22.95-8.62,34.75c-0.07,0.31-0.21,0.93-0.29,1.24c2.13,3.03,4.17,6.14,5.98,9.4
			c-4.18,1.74-8.16,3.94-12.25,5.88c-16.02,6.75-32.42,12.53-48.23,19.87c-11.95,4.74-23.65,10.16-35.18,15.91
			c10.71,1.67,21.56,1.84,32.26,3.61c4.89,0.79,9.8,1.46,14.76,1.68c9.51,0.33,18.73,3.01,28.15,4.14l1.1,0.12
			c5.28,7.05,10.06,14.51,15.03,21.81l0.41,0.56c-1.18,4.02-2.44,8.02-3.77,12c-2.91,8.62-4.29,17.74-7.56,26.24
			c-3.55,7.87-1.72,16.79-1.58,25.14c-9.71-2.67-19.04-6.62-28.3-10.61c-10.55-3.35-20.24-8.91-30.32-13.47
			c-5.83-2.62-11.12-6.58-17.35-8.17c2.69,3.61,5.95,6.67,8.98,9.96c8.9,10.67,18.65,20.5,28.17,30.55
			c8.71,11.27,20.71,18.98,30.57,29.02l-0.11,0.77c-1.55,8.07-3.78,15.98-5.48,24.02c-0.1,0.12-0.3,0.36-0.39,0.48
			c-7.73,9.7-17.97,17.74-22.18,29.99c-0.23,0.03-0.7,0.07-0.93,0.09c-6.14,0.51-12.32-0.24-18.45,0.25
			c-3.82-7.54-6.87-15.47-10.15-23.27c-0.99-2.14-1.65-4.8-3.86-5.91c-4.18-2.42-8.52-4.57-13.1-5.97c2.29,4.91,5.8,9.01,8.61,13.59
			c4.8,7.26,9.63,14.51,13.95,22.1c4.64,8.43,7.15,17.89,11.27,26.59c3.55,7.41,6.15,15.3,10.2,22.47c0.34,0.74,0.69,1.5,1.05,2.26
			c0.38,0.84,0.78,1.69,1.17,2.55c-2.23,8.56-4.66,17.07-6.74,25.67c-2.43,11.74-5.24,23.39-8.17,35.02
			c-8.31-10.88-15.48-22.64-22.68-34.33c-5.23-9.47-10.5-18.98-16.84-27.71c-5.04,1.44-10.17,2.59-15.36,3.22
			c-8.55,1.01-16.73-5.96-17.23-14.95c-0.19-2.38-0.47-4.8-0.05-7.15c1.92-3.24,4.63-5.88,7.29-8.44c1.73-1.92,4.41-1.12,6.64-1.25
			c5.73,0.26,11.72-3,17.22-0.05c4.15,2.79,5.98,7.84,8.65,11.96c0.69-4.49-0.13-9.24-3.35-12.5c-2.88-4-8.98-1.57-11.86-5.51
			c-5.35-7.54-8.98-16.34-15.16-23.25c-11.17-14.63-23.91-27.88-34.69-42.84c-3.86-5-7.08-10.49-11.06-15.4
			c-3.56-4.41-6.47-9.32-9.31-14.25c-3.92-6.67-5.59-14.39-8-21.71c-2.21-7.97-5.17-15.72-6.69-23.88
			c-1.11-6.32-4.34-11.91-5.98-18.06c8.06,3.82,16.93,5.01,25.21,8.2c2.03,11.07-0.44,23.14,4.89,33.45
			c3,5.85,4.33,12.94,9.07,17.62c8.43,6.08,17.78,10.62,26.46,16.3c5.01,3.17,10.03,6.35,15.19,9.27
			c9.78,5.77,19.21,12.35,29.82,16.35c-5.08-6.25-12.33-10.11-17.22-16.54c-3.97-5.96-7.51-12.21-11.12-18.41
			c-2.88-4.99-8-7.7-12.06-11.47c-3.72-3.45-6.95-7.42-10.77-10.74c-4.04-3.78-8.92-7.3-10.48-13.04
			c-3.9-12.92-7.39-25.99-9.85-39.29c2.1-3.1,4.72-5.96,5.99-9.56c0.44-3.91-1.4-7.56-2.25-11.28c1.27,0.33,2.57,0.68,3.86,1.03
			c5.34,5.59,12.27,8.9,18.5,13.21c4.14,2.84,8.64,5.01,13,7.46c7.29,4.3,14.4,8.93,21.68,13.28c4.29,2.53,8.37,5.52,13,7.42
			c2.33-4.39,4.36-8.95,6.96-13.17c0.73-1.45,1.97-2.93,1.5-4.68c-1.3-6.6-3.44-12.99-4.97-19.53l-0.13-0.56
			c-0.01-2.42,0.26-4.85-0.04-7.25c-1.87-5.6-6.81-9.42-8.73-14.96c-0.74-7.77,1.33-15.44,2.42-23.08
			c-6.77-1.8-13.68-2.91-20.47-4.57c-5.86-13.51-13.15-26.27-19.03-39.77c-1.6-3.65-3.47-7.17-5.52-10.56
			c4-5.37,8.87-10.38,13.54-15.28C652.63,406.66,674.88,382.21,697.47,358.11z M636.32,740.26c0.36,6.54,1.02,13.67,5.11,18.97
			c1.87,2.59,4.83,3.95,7.83,4.46c-1.26-2.17-2.78-4.16-4.15-6.24c-1.61-2.4-1.58-5.44-1.94-8.21c4.79-0.5,9.83,0.64,13.4,4.19
			c-0.17-2.37-0.24-5.21-2.69-6.27c-4.3-1.76-9.1-0.33-13.48-1.58C638.89,743.93,637.68,742.02,636.32,740.26z M627.29,750.4
			c-1.51,3.01-1.31,6.43,0.34,9.34c1.44,4.29,6.23,5.21,10.03,5.65c-1.58-1.74-3.29-3.34-4.88-5.04
			C630.14,757.59,629.03,753.76,627.29,750.4z"/>
	</g>
	<path class="st5" d="M484.81,532.63c2.71-2.36,5.19-5.37,8.66-6.51c1.46,0.12,2.92,0.3,4.38,0.55c-0.6,0.41-1.79,1.22-2.4,1.63
		c-0.9,0.59-1.8,1.2-2.69,1.81c1.94,2.32,4.72,4.44,7.6,2.33c0.69-0.31,2.08-0.93,2.77-1.24c0.1,0.31,0.3,0.92,0.39,1.23
		c-2.57,3.73-7.11,5.26-11.35,4.42C489.47,535.98,487.18,534.17,484.81,532.63z"/>
	<path class="st5" d="M897.44,555.03c7.38,16.6,13.74,33.72,19.87,50.88c-3.25,10.76-8.16,20.88-12.97,30.95
		c-1.35-4.84-0.74-9.89-1.36-14.82c-1.84-11.35-1.96-22.87-3.4-34.26c-0.96-7.64-1.11-15.36-1.96-23.01
		C897.21,561.53,897.31,558.27,897.44,555.03z"/>
	<path class="st5" d="M476.4,643.47c6.3-2.74,12.74-5.14,18.86-8.27l0.3,0.5c5.06,7.23,10.91,13.82,15.91,21.09
		c3.66,7.7,5.79,16.05,8.74,24.05c3.66,10.93,6.65,22.11,9.4,33.32c-3.01-0.28-5.15-2.69-7.29-4.63
		c-6.65-6.37-12.96-13.1-19.41-19.68c-3.45-3.36-5.1-8.07-7.53-12.16c-6.77-11.09-12.98-22.54-18.93-34.12L476.4,643.47z"/>
	<path class="st5" d="M432.61,663.07c5.12,5.74,10.69,10.99,16.84,15.52c10.7,7.7,19.94,17.47,31.12,24.45
		c7.28,3,15.08,4.42,22.66,6.41c8.69,2.28,17.75,3.38,26.05,7.06c-4.53,13.02-12.09,24.52-17.27,37.23
		c-4.5,8.27-8.15,17-11.25,25.94c-6.11-4.34-12.04-8.97-18.31-13.05c-7.42-13.38-13.69-27.4-20.56-41.08
		c-3.99-11.04-12.66-19.27-17.11-30.06C440.82,684.63,435.61,674.29,432.61,663.07z"/>
	<path class="st5" d="M386.97,671.63c2.49-0.49,5.02-0.8,7.53-1.18c-1.04,6.08-3.82,11.61-5.87,17.35
		c-1.87,5.29-4.99,10.12-6.06,15.7c-1.11,16.01-1.81,32.07-1.36,48.13c-4.42,2.6-8.2,6.13-12.34,9.16
		c-2.65,1.68-5.38,3.24-7.96,5.03c-3.39-1.85-6.72-3.85-10.14-5.64c0.34-4.6,1.41-9.08,2.26-13.58c1.87-11.02,3.82-22.05,6.77-32.81
		c1.56-6.06,5.36-11.03,8.29-16.4c4.6-8.41,10.01-16.3,14.52-24.76C384.07,672.33,385.52,671.96,386.97,671.63z"/>
	<path class="st5" d="M331.4,672.81c5.34-0.35,10.68-0.55,16.02-0.61c-5.05,4.2-10.61,7.66-15.51,12.06
		c-4.75,3.82-8.69,8.56-12.97,12.92c-3.17,3.26-6.11,6.78-8.62,10.63c-4.66,6.54-7.59,14.19-12.04,20.87
		c-0.77,0.64-1.54,1.32-2.32,1.97c-5.13,2.21-9.97,5.16-15.33,6.76c-1.11-5.62-3.13-10.98-4.2-16.61c3.78-2.27,6.58-5.79,9.8-8.76
		c10.48-10.23,22.32-18.71,33.45-28.12C323.83,680.49,328.07,677.14,331.4,672.81z"/>
	<path class="st5" d="M530.36,718.15c1.96,2.34,3.74,4.85,5.37,7.47c9.81,14.88,19.54,29.83,30.08,44.17
		c-7.41,2.95-14.85,5.82-22.16,9.02c-5.34,1.28-10.85-0.85-16.26-0.14C528.04,758.48,530.03,738.35,530.36,718.15z"/>
	<path class="st5" d="M617.34,809.09c11.94,5.07,24.78,7.31,37.44,9.49c0.04,4.37-0.05,8.75,0.1,13.13
		c-0.13,3.32-0.13,6.65-0.25,9.98c-0.19,0.08-0.58,0.24-0.79,0.33c-5.4-3.84-9.54-9.2-14.47-13.61c-3.39-2.97-6.3-6.63-10.25-8.83
		c-0.72-0.43-1.47-0.82-2.15-1.26c-3.35-2.44-6.64-4.98-10.01-7.4L617.34,809.09z"/>
	<path class="st5" d="M675.63,834.19c4.98-2.1,9.75-4.85,15-6.21c18.53,17.94,38.67,33.93,57.59,51.4c-2.97,3.07-5.75,6.33-8.72,9.4
		c-0.18,0.17-0.54,0.51-0.72,0.68c-7.54-0.04-15.12,0.41-22.63-0.54c-2.62-0.31-5.24-0.43-7.86-0.48
		c-5.8-8.1-10.41-17.04-15.9-25.37C686.22,853.83,681.13,843.87,675.63,834.19z"/>
</g>
<g>
	<path class="st6" d="M793.93,331.16c4.81-1.07,10.2-0.72,14.66,1.53c3.57,1.96,3.11,6.57,2.82,10.09
		c4.54,4.16,7.99,10.09,7.46,16.6c-0.06,4.08-2.33,7.48-3.88,11.05c-0.4,0.17-1.21,0.49-1.61,0.65c-8.21-3.15-17.17-2.71-25.67-4.51
		c6.21-8.18,13.45-15.43,19.74-23.54c-16.95,1.85-33.66,5.6-50.54,7.99c-9.05,1.4-18.14,2.64-27.02,5.01
		c-0.28-0.01-0.83-0.03-1.11-0.04c-0.02-0.49-0.05-1.47-0.07-1.96c0.28-0.04,0.82-0.11,1.1-0.15c4.82-0.33,9.2-2.64,13.86-3.74
		c6.93-1.77,13.63-4.34,20.47-6.43C774.44,340.63,784.47,336.45,793.93,331.16z"/>
	<path class="st6" d="M752.26,470.9c17.7-10.84,33.77-24.25,50.49-36.61c2.78,6.19,3.42,13.35,2.59,20.09
		c-0.65,5.49-4.76,9.31-8.09,13.2c-5.68,0.59-11.33,1.54-17.03,1.69c-9.48,0.22-18.84,1.82-28.24,2.87
		C752.05,471.83,752.19,471.21,752.26,470.9z"/>
	<path class="st6" d="M797.23,507.52l0.29-0.29c1.61,2.78,1.47,6.09,1.69,9.22c0.18,3.81,0.12,7.67-0.54,11.43
		c-1.05,4.61-4.95,7.8-9.03,9.41c-0.24-0.04-0.73-0.1-0.97-0.13c-7.15-1.52-14.49-1.15-21.71-2.04c-9.5-0.54-18.89-2.38-28.41-2.37
		l-1.1-0.12c0.62-0.51,1.27-1.02,1.88-1.55c2.76-0.07,5.43-0.85,7.95-2.02c12.07-5.45,24.33-10.42,36.38-15.94
		C788.13,511.08,792.91,509.9,797.23,507.52z"/>
	<g>
		<path class="st6" d="M449.78,540.74c3.22-2.14,6.53-4.15,9.84-6.12c5.01,1.29,10.51,2.4,14.28,6.4c2.47,3.68,2.88,8.86,1.02,12.93
			c-7.83,1.23-14.62-3.6-21.73-6.09c6.05-2.88,13.24-1.88,18.85-5.86c-1.39-0.49-2.81-0.89-4.26-0.45
			c-8.92,1.54-18,4.41-24.98,10.67c-1.64,1.4-3.23,2.87-4.88,4.27C438.69,549.29,444.55,544.65,449.78,540.74z M454.29,543.32
			c2.9-0.62,5.77-1.41,8.63-2.21c-0.03-0.67-0.08-2.02-0.11-2.69C459.39,538.66,456.68,540.96,454.29,543.32z"/>
	</g>
	<path class="st6" d="M742.57,597.66c15.77-6.25,31.91-11.42,47.71-17.61c-0.47,4.1,0.55,8.36-0.82,12.35
		c-1.41,4.25-2.89,8.5-4.91,12.49c-2.5,4.97-6.8,8.5-10.58,12.35c0.64,3.73,1.56,7.44,1.74,11.24c-0.25,5.99-2.72,11.5-4.97,16.91
		c-1.63,3.04,1.43,5.94,1.3,9.11c0.31,7.29-3.91,14.04-9.06,18.64c-10.05-5.27-19.88-11.04-29.22-17.58
		c11.61-2.55,23.36-4.35,34.87-7.34c-9.49-9.38-18.58-19.23-26.99-29.67c10.74-1.07,21.56-0.91,32.29-2.07
		C764.72,608.22,753.12,603.69,742.57,597.66z"/>
	<path class="st6" d="M275.5,721.43c0.24-0.16,0.71-0.47,0.94-0.63c1.06,5.63,3.09,10.99,4.2,16.61
		c-8.66,2.96-17.59,5.03-26.13,8.41c-0.18,0.06-0.56,0.16-0.75,0.21C260.73,737.57,268.14,729.51,275.5,721.43z"/>
	<path class="st6" d="M360.91,765.82c2.59-1.79,5.32-3.35,7.96-5.03c4.07,12,7.76,24.18,12.55,35.89c2.7-5.53,4.39-11.51,6.91-17.12
		c2.1-4.69,3.9-9.51,5.69-14.33c2.16,2.12,4.34,4.22,6.62,6.2c3.45,3.07,8.1,3.73,12.21,5.39c2.24,2.97,4.61,5.83,6.94,8.73
		c-4.65,8.16-11.37,14.84-15.51,23.34c-7.07-1.64-13.73-4.72-19.99-8.49c-2.63-2.14-5.6,0.56-8.42,0.37
		c-5.83-0.57-11.28-3.32-15.82-7.09C360.02,784.38,360.67,775.1,360.91,765.82z"/>
	<path class="st6" d="M428.93,772.28c4.02-2.07,8.14-3.9,12.22-5.82c-1.3,12.42-2.95,24.84-3.29,37.35
		c-5.72-6.07-11.48-12.12-16.72-18.63C423.88,780.98,426.87,776.91,428.93,772.28z"/>
	<path class="st6" d="M441.87,766.09c6.47,2.9,12.69,6.35,19.08,9.44c5.49-2.36,11.1-4.42,16.58-6.82
		c-0.41,12.96-3.81,25.55-5.72,38.32c-6.55-7.16-12.15-15.19-17.91-23.04C449.73,778.15,445.1,772.59,441.87,766.09z"/>
	<path class="st6" d="M542.69,780.2c7.11,4.8,14.42,9.48,22.29,12.82c2.19,3.15,4.16,7.07,8.14,7.98c2.76,0.83,5.62,1.26,8.47,1.57
		c5.18,2.78,9.97,6.29,14.79,9.71c4.16,2.97,8.75,5.23,12.83,8.35c-9.59,1.69-17.25,10.42-27.37,9.31
		c-6.02-0.63-12.09-1.5-18.12-0.62c-8,1.39-16.29,1.24-24.2-0.69c-4.6-1.07-8.53-3.86-12.75-5.88l-0.05-0.11
		c-4.98-11.74-9.67-23.61-14.94-35.21l0.63,0.48c16.2,13.68,33.13,26.53,51.48,36.89C556.65,810.05,548.1,795.87,542.69,780.2z"/>
	<path class="st6" d="M708.29,888.44c2.62,0.05,5.24,0.17,7.86,0.48c7.5,0.95,15.08,0.5,22.63,0.54c0.18-0.17,0.54-0.51,0.72-0.68
		c1.21,5.78,4.66,10.6,6.8,16.01c2.95,7.14,6.99,13.74,9.9,20.9c-11.98-7.42-23.66-15.35-35.27-23.39
		c-4.95-3.39-8.53-8.4-12.14-13.19L708.29,888.44z"/>
	<path class="st6" d="M719.98,906.07c5.2,5.43,8.69,12.31,13.68,17.95c5.29,6.12,9.87,13.43,17.03,17.35
		c-1.45,0.05-4.14-2.07-4.72,0.25c-2.66,9.25-7.87,18.27-15.95,23.34c-2.95,2.14-6.01,0.12-8.84-1.07c0.58-1.04,1.17-2.16,1.14-3.4
		c0.15-6.02-0.59-12.03-0.65-18.05C721.67,930.29,719.98,918.22,719.98,906.07z"/>
	<path class="st6" d="M628.67,945.65c1.72-11.21,4.65-22.19,6.46-33.38c2.05,7.09,3.66,14.32,5.98,21.33
		c2.24,6.78,3.32,14.04,6.68,20.37c7.3-12.27,12.14-25.9,18.4-38.74c2,15.87,2.14,31.95,4.37,47.79c-6.27,5.22-15.19,2.59-20.5-2.8
		c-2.76-3.14-7.18-1.47-10.6-3.01C634.57,955.22,629.52,951.43,628.67,945.65z"/>
</g>
<g>
	<path class="st7" d="M719.16,369.77c3.34-4.49,6.3-9.27,9.61-13.78c0.28,0.01,0.83,0.03,1.11,0.04
		c19.14,3.45,38.26,7.12,57.48,10.01c-0.87,0.76-1.73,1.52-2.64,2.22c-10.44,7.02-20.56,14.59-30.4,22.49
		c-3.56,2.88-7.31,5.47-10.91,8.28c-12.09,8.86-22.65,19.72-34.07,29.47c-6.62,5.71-12.13,12.68-18.9,18.24
		c-10.78,10.77-21.73,21.37-32.85,31.75c-4.47,4.13-7.97,9.38-13.13,12.68c8.65-19.62,21.07-37.07,31.09-55.91
		c9.83-16.19,19.9-32.28,31.28-47.34C711.27,382.11,714.79,375.63,719.16,369.77z"/>
	<path class="st7" d="M602.88,463.45c4.29-6.04,8.39-12.25,13.11-17.94c2.05,3.39,3.92,6.91,5.52,10.56
		c5.88,13.5,13.18,26.26,19.03,39.77c-17.42,6.83-34.84,13.85-51.46,22.61c12.6,7.83,26.59,12.81,40.02,18.83
		c12.32,4.65,25.51,5.63,38.26,8.42l0.13,0.56c-9.72,0.2-19.44,0.02-29.15-0.15c-13.57-0.38-26.92-3.42-40.49-3.84
		c-1.29-0.35-2.59-0.7-3.86-1.03c-2.88-11.11-5.91-22.19-10.02-32.88c-1.13-4-3.39-8.15-2.5-12.39
		C587.42,484.34,595.46,474.08,602.88,463.45z"/>
	<path class="st7" d="M469.08,525.79c8.2-11.06,23.28-16.44,36.1-11.82c-1.48,3.99-3.93,7.44-6.06,11.07
		c-1.89,0.32-3.79,0.63-5.64,1.08c-3.47,1.14-5.95,4.15-8.66,6.51c2.37,1.54,4.66,3.35,7.37,4.22c4.24,0.84,8.78-0.69,11.35-4.42
		c1.59-1.24,3.49-2,5.47-2.2c5.77-0.74,11.6-0.92,17.4-1.29c2.51,3.04,4.8,6.27,7.06,9.53c-2.03,5.7-4.59,11.2-6.07,17.11
		c-1.44,5.29-2.28,10.75-3.94,15.98c-2.78,7.96-8.24,14.54-11.04,22.49c-1.28,3.59-2.5,7.22-4.12,10.68
		c-4.75,10.09-8.25,20.75-12.75,30.97l-0.3-0.5c-1.44-12.12-3.11-24.2-4.76-36.29c-1.04-6.61-1.96-13.32-1.54-20.03
		c2.24-9.88,0.99-20.08,2.31-30.06c0.41-3.15,0.5-6.34,0.26-9.5c-2.94,10.84-5.81,21.7-9.3,32.36c-5.02-2.15-8.86-6.19-12.34-10.39
		c1.86-2.3,3.61-4.71,5.03-7.34c1.87-4.07,1.46-9.25-1.02-12.93c-3.77-4-9.27-5.11-14.28-6.4
		C463.62,532.8,466.39,529.23,469.08,525.79z"/>
	<path class="st7" d="M492.77,530.11c0.89-0.61,1.79-1.22,2.69-1.81c1.64,1.37,3.28,2.75,4.91,4.14
		C497.48,534.55,494.7,532.43,492.77,530.11z"/>
	<g>
		<path class="st7" d="M526.41,575.55c2.01-3.78,5.97-5.77,9.27-8.16c0.9,19.04,2.89,38,3.92,57.03c0.21,7.59-0.2,15.5,2.31,22.74
			c4.54,8.33,10.23,15.91,15.72,23.56c14.47,22.95,31.01,44.36,46.42,66.6c3.49,5.96,7.98,11.26,13.39,15.39
			c0.5,8.99,8.68,15.96,17.23,14.95c4.05,6.17,6.18,13.38,9.04,20.17c3.87,10.17,8.62,20.08,11.08,30.75
			c-12.66-2.18-25.5-4.42-37.44-9.49c-11.65-6.56-19.89-18.32-25.49-30.57c1.56-2.42,3.34-4.67,5.11-6.93
			c-5.14-2.48-10.65-3.88-16.09-5.37c-2.01-0.63-4.01-1.49-5.54-3.02c-3.8-3.67-7.34-7.63-11-11.45c-3.94-4.24-8.65-7.65-12.19-12.3
			c-4.44-5.7-9.87-10.4-14.76-15.65c-2.82-2.99-5.97-5.8-7.76-9.64c-2.75-11.21-5.74-22.39-9.4-33.32c-2.95-8-5.08-16.35-8.74-24.05
			c1.27-21.09,8.44-41.13,11.41-61.94C524.12,588.44,524.43,581.79,526.41,575.55z M599.37,772.86c-2.79,1.67-4.77,4.81-5.13,8.16
			c2.49,1.01,5.32,1.79,7.04,4.12c1.5,2.02,2.64,4.32,4.07,6.4c1.2-3.25,2.51-6.56,2.7-10.07
			C607.79,776.77,603.66,773.3,599.37,772.86z"/>
	</g>
	<path class="st7" d="M423.6,664.55c2.83-0.92,5.64-1.89,8.44-2.9c-1.77,5.09-1.93,10.55-2.66,15.86
		c-1.08,8.28-1.67,16.62-1.93,24.97c-0.15,5.85-1.46,11.88,0.32,17.6c4.49,15.41,8.94,30.84,14.1,46.01l-0.72,0.37
		c-4.36-6.02-7.57-12.82-11.67-19.02c-7.39-12.74-14.79-25.49-21.55-38.6c-2.49-4.81-3.69-10.16-5.37-15.3
		c-2.46-7.72-5.25-15.35-6.91-23.31C404.94,668.19,414.54,667.65,423.6,664.55z"/>
	<path class="st7" d="M757.96,721.96c9.81-13.47,19.34-27.22,30.35-39.66c-1.49,5.63-2.07,11.46-3.22,17.18
		c-6.1,28.14-11.42,56.45-17.78,84.53c-2.18,9.64-3.72,19.66-7.94,28.6c-2.23-27.02-4.3-54.06-5.5-81.16
		C753.48,727.71,756.02,724.77,757.96,721.96z"/>
	<path class="st7" d="M697.71,791.46c2.08-8.6,4.5-17.11,6.74-25.67c3.1,8.54,5.4,17.49,9.91,25.39
		c4.33,7.41,9.39,14.33,14.52,21.15c-0.83-0.68-1.71-1.32-2.55-1.94c-11.63,5.56-22.81,12.12-34.62,17.28
		c-0.27,0.08-0.81,0.24-1.08,0.31c-5.25,1.36-10.02,4.11-15,6.21c-7.06,2.31-14.21,4.36-21,7.5c0.12-3.33,0.12-6.66,0.25-9.98
		c0.6-5.56,0.05-11.44,2.44-16.61c3.43-7.54,5.82-15.55,9.55-22.95c7.2,11.69,14.37,23.45,22.68,34.33
		C692.46,814.85,695.27,803.2,697.71,791.46z"/>
	<path class="st7" d="M620.66,841.02c2.85-6.66,5.22-13.54,8.58-19.95c1.28,16.48-0.4,32.96-1.4,49.4
		c-0.43,7.44-2.46,14.74-1.92,22.24c2.75-4.09,4.36-8.85,6.9-13.06c6.87-11.41,12.92-23.41,20.6-34.27
		c-1.86,18.3-4.41,36.53-7.05,54.72c-3.45,4.24-7.25,8.13-10.99,12.08c-3.37-5.57-6.01-11.58-9.22-17.24l-0.35-0.74
		c-0.75,0.45-1.47,0.94-2.19,1.41c-12.62,7.93-24.37,17.27-36.98,25.21c4.13-6.47,7.57-13.44,10.15-20.73
		c0.59-1.65,1.27-3.28,1.92-4.89C605.53,876.93,612.79,858.83,620.66,841.02z"/>
	<path class="st7" d="M305.26,921.29c0,0-2.21,0.05-5.44,0.26c13.47-8.78,26.93-17.61,40.54-26.18c5.36,0.71,15.52,2.02,15.52,2.02
		s18.12,2.58,27.2,3.71c8.22,1.28,16.46,2.84,24.73,2.57c-2.1,1.62-4.55,2.7-7.14,3.06C368.89,911.79,337.01,916.16,305.26,921.29"
		/>
</g>
<g>
	<path class="st8" d="M757.95,481.54c0.55,0.3,1.09,0.6,1.65,0.91c5.29,5.24,10.75,10.3,16.41,15.09c-3.14,3.26-6.36,6.46-9.94,9.21
		c-9.58,7.27-17.79,16.26-26.73,24.33c-0.61,0.53-1.26,1.04-1.88,1.55c-9.42-1.13-18.64-3.81-28.15-4.14
		c-4.95-0.22-9.87-0.89-14.76-1.68c-10.7-1.77-21.55-1.94-32.26-3.61c11.53-5.75,23.23-11.17,35.18-15.91
		c15.8-7.34,32.2-13.12,48.23-19.87C749.79,485.48,753.77,483.28,757.95,481.54z"/>
	<path class="st8" d="M640.54,495.84c6.79,1.66,13.7,2.77,20.47,4.57c-1.09,7.64-3.16,15.31-2.42,23.08
		c1.92,5.54,6.86,9.36,8.73,14.96c0.3,2.4,0.03,4.83,0.04,7.25c-12.75-2.79-25.94-3.77-38.26-8.42c-13.44-6.02-27.42-11-40.02-18.83
		C605.7,509.69,623.12,502.67,640.54,495.84z"/>
	<path class="st8" d="M505.18,513.97c3.57,1.33,7.17,3.27,10.49,5.47c3.93,2.58,7.53,5.9,10.73,9.5c-5.81,0.37-11.63,0.55-17.4,1.29
		c-1.98,0.2-3.88,0.96-5.47,2.2c-0.1-0.31-0.3-0.92-0.39-1.23c-0.99-2.34-2.85-4.06-5.28-4.53c-1.46-0.25-2.92-0.43-4.38-0.55
		c1.86-0.45,3.76-0.76,5.64-1.08C501.25,521.41,503.7,517.96,505.18,513.97z"/>
	<path class="st8" d="M533.47,538.47c6.92,10,8.61,23.42,17.62,31.91c1.64,6.15,4.87,11.74,5.98,18.06
		c1.52,8.16,4.48,15.91,6.69,23.88c2.42,7.32,4.08,15.04,8,21.71c2.84,4.93,5.75,9.84,9.31,14.25c3.98,4.91,7.2,10.4,11.06,15.4
		c10.78,14.96,23.52,28.21,34.69,42.84c6.18,6.91,9.81,15.71,15.16,23.25c2.88,3.94,8.97,1.51,11.86,5.51
		c3.22,3.26,4.04,8.01,3.35,12.5c-2.67-4.12-4.5-9.17-8.65-11.96c-5.5-2.95-11.49,0.31-17.22,0.05c-2.23,0.13-4.92-0.67-6.64,1.25
		c-2.66,2.56-5.38,5.2-7.29,8.44c-0.42,2.35-0.14,4.77,0.05,7.15c-5.41-4.13-9.9-9.43-13.39-15.39
		c-15.41-22.24-31.95-43.65-46.42-66.6c-5.49-7.65-11.17-15.23-15.72-23.56c-2.51-7.24-2.1-15.15-2.31-22.74
		c-1.03-19.03-3.02-37.99-3.92-57.03c-3.3,2.39-7.25,4.38-9.27,8.16c-1.97,6.24-2.29,12.89-3.53,19.3
		c-2.97,20.81-10.14,40.85-11.41,61.94c-5-7.27-10.85-13.86-15.91-21.09c4.49-10.22,7.99-20.88,12.75-30.97
		c1.62-3.46,2.84-7.09,4.12-10.68c2.8-7.95,8.26-14.53,11.04-22.49c1.66-5.23,2.5-10.69,3.94-15.98
		C528.88,549.67,531.44,544.17,533.47,538.47z"/>
	<path class="st8" d="M491.52,539.32c0.24,3.16,0.15,6.35-0.26,9.5c-1.32,9.98-0.07,20.18-2.31,30.06c-0.99-3.45-3.81-5.62-6.73-7.2
		C485.71,561.02,488.58,550.16,491.52,539.32z"/>
	<path class="st8" d="M597.84,542.27c13.57,0.42,26.92,3.46,40.49,3.84c9.72,0.17,19.44,0.35,29.15,0.15
		c1.53,6.54,3.67,12.93,4.97,19.53c0.48,1.75-0.77,3.23-1.5,4.68c-2.6,4.22-4.63,8.78-6.96,13.17c-4.63-1.9-8.7-4.89-13-7.42
		c-7.27-4.35-14.39-8.98-21.68-13.28c-4.35-2.45-8.86-4.62-13-7.46C610.11,551.17,603.18,547.86,597.84,542.27z"/>
	<path class="st8" d="M576.31,578.58c5.27-4.88,9.55-10.78,13.93-16.5c2.46,13.3,5.95,26.37,9.85,39.29
		c1.55,5.74,6.43,9.26,10.48,13.04c3.82,3.32,7.05,7.29,10.77,10.74c4.05,3.77,9.17,6.48,12.06,11.47
		c3.6,6.2,7.15,12.45,11.12,18.41c4.89,6.43,12.14,10.29,17.22,16.54c-10.62-4-20.05-10.58-29.82-16.35
		c-5.16-2.92-10.18-6.1-15.19-9.27c-8.68-5.68-18.03-10.22-26.46-16.3c-4.73-4.68-6.07-11.77-9.07-17.62
		C575.87,601.72,578.34,589.65,576.31,578.58z"/>
	<path class="st8" d="M665.12,586.25c6.23,1.59,11.52,5.55,17.35,8.17c10.08,4.56,19.77,10.12,30.32,13.47
		c9.26,3.99,18.59,7.94,28.3,10.61l0.55,0.05c8.4,10.44,17.5,20.29,26.99,29.67c-11.51,2.99-23.26,4.79-34.87,7.34
		c-0.23,0.06-0.69,0.16-0.92,0.22c-9.86-10.04-21.86-17.75-30.57-29.02c-9.52-10.05-19.26-19.88-28.17-30.55
		C671.07,592.92,667.82,589.86,665.12,586.25z"/>
	<path class="st8" d="M432.05,661.65c14.97-5.54,29.57-12.16,44.4-18.08c5.95,11.58,12.16,23.03,18.93,34.12
		c2.43,4.09,4.08,8.8,7.53,12.16c6.45,6.58,12.76,13.31,19.41,19.68c2.15,1.94,4.28,4.35,7.29,4.63c1.79,3.84,4.95,6.65,7.76,9.64
		c4.89,5.25,10.32,9.95,14.76,15.65c3.54,4.65,8.25,8.06,12.19,12.3c3.66,3.82,7.2,7.78,11,11.45c1.53,1.53,3.53,2.39,5.54,3.02
		c-4.07,0.6-6.82,4.09-9.47,7.04c-1.89-1.13-3.8-2.2-5.59-3.47c-10.54-14.34-20.27-29.29-30.08-44.17c-1.63-2.62-3.4-5.13-5.37-7.47
		c-0.33,20.2-2.32,40.33-2.97,60.52c-4.95,3.15-10.01,6.12-14.97,9.24l-0.63-0.48c-3.64-2.65-7.48-4.96-11.03-7.75
		c3.11-8.94,6.75-17.67,11.25-25.94c5.18-12.71,12.74-24.21,17.27-37.23c-8.3-3.68-17.36-4.78-26.05-7.06
		c-7.58-1.99-15.37-3.41-22.66-6.41c-11.17-6.98-20.42-16.75-31.12-24.45c-6.15-4.53-11.72-9.78-16.84-15.52
		c3,11.22,8.21,21.56,12.16,32.42c4.45,10.79,13.12,19.02,17.11,30.06c6.87,13.68,13.14,27.7,20.56,41.08
		c-1.64,0.68-3.28,1.38-4.91,2.08c-5.48,2.4-11.09,4.46-16.58,6.82c-6.39-3.09-12.61-6.54-19.08-9.44
		c-5.16-15.17-9.61-30.6-14.1-46.01c-1.77-5.72-0.47-11.75-0.32-17.6c0.26-8.35,0.84-16.69,1.93-24.97
		C430.12,672.2,430.27,666.74,432.05,661.65z"/>
	<path class="st8" d="M394.51,670.45c0.29-0.05,0.86-0.17,1.14-0.22c1.66,7.96,4.45,15.59,6.91,23.31
		c1.68,5.14,2.88,10.49,5.37,15.3c6.77,13.11,14.16,25.86,21.55,38.6c4.1,6.2,7.31,13,11.67,19.02c-4.08,1.92-8.2,3.75-12.22,5.82
		c-2.3-1.24-4.59-2.51-6.87-3.77c-3.1,2.73-6.09,5.59-9.19,8.31c-4.11-1.66-8.76-2.32-12.21-5.39c-2.28-1.98-4.47-4.08-6.62-6.2
		c-4.28-4.53-8.34-9.28-12.81-13.6c-0.45-16.06,0.25-32.12,1.36-48.13c1.06-5.58,4.19-10.41,6.06-15.7
		C390.68,682.06,393.47,676.53,394.51,670.45z"/>
	<path class="st8" d="M369.84,675.2c3.38-3.53,8.5-2.2,12.78-2.57c-4.51,8.46-9.92,16.35-14.52,24.76
		c-2.93,5.37-6.73,10.34-8.29,16.4c-2.94,10.76-4.9,21.79-6.77,32.81c-0.85,4.5-1.93,8.98-2.26,13.58
		c-4.28,3.04-9.07,5.19-13.39,8.17c-3.28,2.23-6.56,4.44-9.92,6.55c-2.29-10.2-4.32-20.47-6.35-30.74
		c-2.01-6.41-5.83-12.02-7.79-18.44c-1.72-5.84-0.91-12.18-2.99-17.91c2.5-3.85,5.44-7.37,8.62-10.63
		c4.27-4.36,8.21-9.1,12.97-12.92c-1.95,7.07-5.41,13.54-7.48,20.56c-2.05,6.66-2.08,13.73-2.34,20.65
		c-0.11,5.38-0.5,10.75-0.54,16.14c6.51-9.81,9.58-21.53,15.34-31.76c3.94-5.47,9.27-9.63,13.61-14.74
		C356.89,688.41,363.33,681.77,369.84,675.2z"/>
	<path class="st8" d="M634.66,767.66c5.19-0.63,10.32-1.78,15.36-3.22c6.33,8.73,11.61,18.24,16.84,27.71
		c-3.73,7.4-6.11,15.41-9.55,22.95c-2.4,5.17-1.84,11.05-2.44,16.61c-0.14-4.38-0.06-8.76-0.1-13.13
		c-2.46-10.67-7.21-20.58-11.08-30.75C640.85,781.04,638.72,773.83,634.66,767.66z"/>
	<path class="st8" d="M629.13,819.58c3.95,2.2,6.85,5.86,10.25,8.83c4.94,4.41,9.08,9.77,14.47,13.61c0.2-0.09,0.59-0.25,0.79-0.33
		c6.79-3.14,13.93-5.19,21-7.5c5.5,9.68,10.59,19.64,16.76,28.88c5.49,8.33,10.1,17.27,15.9,25.37l0.5,0.67
		c-6.2,7.26-12.21,14.7-18.52,21.87l-0.12,0.28c-4.79-1.32-9.56-2.73-14.34-4.06c-3.25,2.27-6.5,4.57-9.26,7.46
		c-6.84-4.68-13.2-10.1-20.18-14.56c2.65-18.19,5.19-36.42,7.05-54.72c-7.68,10.86-13.72,22.86-20.6,34.27
		c-2.54,4.21-4.15,8.97-6.9,13.06c-0.55-7.5,1.49-14.8,1.92-22.24c1-16.44,2.68-32.92,1.4-49.4
		C629.21,820.7,629.15,819.96,629.13,819.58z"/>
	<path class="st8" d="M690.62,827.98c0.27-0.07,0.81-0.23,1.08-0.31c16.61,5.74,33.77,9.25,50.56,14.29
		c5.71,1.39,11.47,2.56,17.19,3.97c4.6,0.84,9.23,2.53,13.96,1.74c1.65,0.61,3.32,1.21,4.88,2.08l0.17,0.62
		c-2.06,5.18-2.93,10.74-4.25,16.15c-8.81,3.97-17.64,8.03-26.02,12.86C729.29,861.91,709.16,845.92,690.62,827.98z"/>
</g>
<g>
	<path class="st9" d="M495.46,528.3c0.6-0.41,1.79-1.22,2.4-1.63c2.43,0.47,4.29,2.19,5.28,4.53c-0.69,0.31-2.08,0.93-2.77,1.24
		C498.74,531.05,497.1,529.67,495.46,528.3z"/>
</g>
<g>
	<path class="st10" d="M454.29,543.32c2.39-2.36,5.1-4.66,8.53-4.9c0.03,0.67,0.08,2.02,0.11,2.69
		C460.06,541.91,457.19,542.7,454.29,543.32z"/>
</g>
<g>
	<path class="st11" d="M442.79,552.22c6.99-6.26,16.06-9.13,24.98-10.67c1.46-0.44,2.88-0.04,4.26,0.45
		c-5.62,3.98-12.8,2.98-18.85,5.86c7.11,2.49,13.9,7.32,21.73,6.09c-1.42,2.63-3.17,5.04-5.03,7.34c-3.96-0.91-7.82-2.22-11.44-4.12
		C453.53,554.52,447.81,554.57,442.79,552.22z"/>
	<path class="st11" d="M732.74,656.55c8.68,10.05,16.73,20.68,25.01,31.08c-10.24-1.98-20.32-4.76-30.5-7.06
		C728.96,672.53,731.18,664.62,732.74,656.55z"/>
	<path class="st11" d="M295.97,730.65c0.78-0.65,1.55-1.33,2.32-1.97c-0.32,13.59-1.44,27.14-2.1,40.72l-0.2,0.41l-0.12,0.26
		c-6.92,3.25-15.05,2.7-22.05,0.06c4.67-7.62,8.52-15.75,13.16-23.39C289.81,741.27,293.5,736.32,295.97,730.65z"/>
	<path class="st11" d="M588.05,787.02c9.55,8.08,18.72,16.71,28.92,23.9c3.36,2.42,6.65,4.96,10.01,7.4
		c-5.95,0.51-11.86,1.39-17.77,2.31c-4.08-3.12-8.67-5.38-12.83-8.35c-4.82-3.42-9.6-6.93-14.79-9.71
		c4.56-0.64,9.14-1.39,13.77-1.12c-2.65-2.32-5.64-4.62-7-8.06C587.91,791.3,588,789.13,588.05,787.02z"/>
</g>
<g>
	<path class="st12" d="M658.19,676.23c4.58,1.4,8.92,3.55,13.1,5.97c2.21,1.11,2.88,3.77,3.86,5.91c3.28,7.8,6.33,15.73,10.15,23.27
		c-1.53,0.14-3.05,0.34-4.55,0.54c-4.32-7.59-9.15-14.84-13.95-22.1C663.99,685.24,660.48,681.14,658.19,676.23z"/>
	<path class="st12" d="M588.05,787.02c0.75-3.05,2.18-5.86,3.8-8.5c5.61,12.25,13.84,24.01,25.49,30.57l-0.36,1.83
		C606.77,803.73,597.59,795.1,588.05,787.02z"/>
</g>
<g>
	<path class="st13" d="M752.82,710c0.55,0.54,1.11,1.09,1.7,1.65c-4.14,8.62-11.69,15.04-20.03,18.92
		c-4.19-2.84-8.84-4.87-12.91-7.91c-5.73-4.2-12.13-7.27-17.83-11.53c0.23-0.02,0.7-0.06,0.93-0.09c4.1,0.18,8.19,0.8,12.32,0.58
		C728.94,711.12,740.96,711.73,752.82,710z"/>
	<path class="st13" d="M694.93,713.04c4.29,3.99,7.66,8.89,11.76,13.08c4.02,4.17,7.99,8.37,11.88,12.67
		c2.72,2.93,5.01,6.51,8.73,8.19c-5.94,7.74-13.79,16.07-24.18,15.05l0.15,1.21c-0.36-0.76-0.72-1.52-1.05-2.26
		C700.55,744.89,696.62,729.13,694.93,713.04z"/>
</g>
<g>
	<path class="st14" d="M564.98,793.02c-1.68-4.7,0.03-9.93,2.41-14.02c0.75,7.61,1.37,15.53,5.73,22
		C569.14,800.09,567.17,796.17,564.98,793.02z"/>
</g>
<g>
	<path class="st15" d="M771.91,805.89c0.04-0.03,0.11-0.09,0.15-0.12C772.03,805.8,771.95,805.86,771.91,805.89z"/>
</g>
<g>
	<path class="st16" d="M216.21,818.7c0.06,0.05,0.17,0.17,0.23,0.23C216.38,818.87,216.27,818.75,216.21,818.7z"/>
</g>
<g>
	<path class="st17" d="M779,850.34c4.03-0.04,8.14,1.88,12.21,2.72c6.85,1.95,13.83,3.51,20.6,5.78c2.25,0.57,2.79,3.16,3.5,5.13
		c1,3.61,2.29,7.51,1.21,11.26c-0.55,2.15-3.11,2.28-4.59,1.12c-4.24-2.71-8.12-5.97-12.16-8.96
		C792.88,861.65,785.59,856.43,779,850.34z"/>
	<path class="st17" d="M775.37,868c11.31,7.6,21.84,16.41,33.57,23.34c0.58-0.19,1.73-0.57,2.32-0.76c0.11,4.9,0.33,9.82,0,14.72
		c-1.73,6.31-5.75,12.19-11.74,14.68c-4.29-4.55-5.11-11.27-8.96-16.09c-0.68-4.69-2.89-8.87-4.75-13.11
		C782.65,883.02,778.5,875.76,775.37,868z"/>
</g>
<g>
	<path class="st18" d="M395.22,922.69"/>
</g>
</svg>
